<svg width="32" height="32" viewBox="0 0 32 32" fill="none" xmlns="http://www.w3.org/2000/svg">
<g clip-path="url(#clip0_1_978)">
<path d="M9.59997 7.97284C9.17562 7.97284 8.76866 8.14141 8.4686 8.44147C8.16854 8.74153 7.99997 9.14849 7.99997 9.57284C7.99997 9.99719 8.16854 10.4042 8.4686 10.7042C8.76866 11.0043 9.17562 11.1728 9.59997 11.1728H22.4C22.8243 11.1728 23.2313 11.0043 23.5313 10.7042C23.8314 10.4042 24 9.99719 24 9.57284C24 9.14849 23.8314 8.74153 23.5313 8.44147C23.2313 8.14141 22.8243 7.97284 22.4 7.97284H9.59997Z" fill="white"/>
<path d="M7.99997 16C7.99997 15.5757 8.16854 15.1687 8.4686 14.8687C8.76866 14.5686 9.17562 14.4 9.59997 14.4H22.4C22.8243 14.4 23.2313 14.5686 23.5313 14.8687C23.8314 15.1687 24 15.5757 24 16C24 16.4244 23.8314 16.8313 23.5313 17.1314C23.2313 17.4315 22.8243 17.6 22.4 17.6H9.59997C9.17562 17.6 8.76866 17.4315 8.4686 17.1314C8.16854 16.8313 7.99997 16.4244 7.99997 16Z" fill="white"/>
<path d="M9.59997 20.8271C9.17562 20.8271 8.76866 20.9957 8.4686 21.2958C8.16854 21.5958 7.99997 22.0028 7.99997 22.4271C7.99997 22.8515 8.16854 23.2585 8.4686 23.5585C8.76866 23.8586 9.17562 24.0272 9.59997 24.0272H22.4C22.8243 24.0272 23.2313 23.8586 23.5313 23.5585C23.8314 23.2585 24 22.8515 24 22.4271C24 22.0028 23.8314 21.5958 23.5313 21.2958C23.2313 20.9957 22.8243 20.8271 22.4 20.8271H9.59997Z" fill="white"/>
<path fill-rule="evenodd" clip-rule="evenodd" d="M32 16C32 24.8368 24.8368 32 16 32C7.1632 32 0 24.8368 0 16C0 7.1632 7.1632 0 16 0C24.8368 0 32 7.1632 32 16ZM28.8 16C28.8 19.3948 27.4514 22.6505 25.051 25.051C22.6505 27.4514 19.3948 28.8 16 28.8C12.6052 28.8 9.3495 27.4514 6.94903 25.051C4.54857 22.6505 3.2 19.3948 3.2 16C3.2 12.6052 4.54857 9.3495 6.94903 6.94903C9.3495 4.54857 12.6052 3.2 16 3.2C19.3948 3.2 22.6505 4.54857 25.051 6.94903C27.4514 9.3495 28.8 12.6052 28.8 16Z" fill="white"/>
</g>
<defs>
<clipPath id="clip0_1_978">
<rect width="32" height="32" fill="white"/>
</clipPath>
</defs>
</svg>
