<svg width="33" height="30" viewBox="0 0 33 30" fill="none" xmlns="http://www.w3.org/2000/svg">
<path d="M25.2396 0C25.4412 0.000127652 25.6403 0.0461466 25.822 0.134657C26.0038 0.223168 26.1636 0.351908 26.2896 0.511369L26.3906 0.655917L32.1117 10.2015C32.2433 10.4206 32.3111 10.6728 32.3076 10.9292C32.304 11.1856 32.2291 11.4358 32.0916 11.651L31.9879 11.7901L17.1801 29.5176C17.0627 29.6581 16.9184 29.773 16.7559 29.8555C16.5935 29.938 16.4162 29.9863 16.2348 29.9975C16.0535 30.0087 15.8717 29.9826 15.7006 29.9207C15.5294 29.8589 15.3724 29.7626 15.239 29.6376L15.1259 29.5176L0.318114 11.7901C0.154774 11.5944 0.0491941 11.356 0.0134797 11.1023C-0.0222347 10.8485 0.0133625 10.5897 0.11619 10.3556L0.194267 10.2015L5.91545 0.655917C6.02003 0.481206 6.16204 0.332535 6.33097 0.220892C6.49989 0.109248 6.69143 0.0374863 6.89142 0.0109091L7.06642 0H25.2396ZM20.8848 12.2729H11.4199L16.1517 24.0985L20.8848 12.2729ZM28.0585 12.2729H23.7898L19.863 22.0843L28.0585 12.2729ZM8.51489 12.2729H4.24621L12.4403 22.0816L8.51489 12.2729ZM10.3295 2.7273H7.82162L3.73467 9.54556H8.40585L10.3295 2.7273ZM19.1765 2.7273H13.1282L11.2045 9.54556H21.1001L19.1765 2.7273ZM24.483 2.7273H21.9752L23.8988 9.54556H28.57L24.483 2.7273Z" fill="url(#paint0_linear_1_5277)"/>
<defs>
<linearGradient id="paint0_linear_1_5277" x1="27.9689" y1="14.2769" x2="14.5116" y2="18.0723" gradientUnits="userSpaceOnUse">
<stop stop-color="#D69CFF"/>
<stop offset="0.409208" stop-color="#B78AF6"/>
<stop offset="1" stop-color="#685BDE"/>
</linearGradient>
</defs>
</svg>
