<svg width="108" height="143" viewBox="0 0 108 143" fill="none" xmlns="http://www.w3.org/2000/svg">
<path d="M63.1792 69.8541L55.9119 59.7596L43.194 69.8541L35.7248 59.7596L24.6219 68.4409L22.1995 65.4125L36.5323 53.9048L43.7996 63.9993L56.7194 53.9048L63.9867 63.9993L76.9065 53.9048L85.385 65.8163L82.1551 68.0371L76.099 59.7596L63.1792 69.8541Z" fill="white"/>
<path d="M63.1792 86.8129L55.9119 76.7183L43.194 86.8129L35.7248 76.7183L24.6219 85.3996L22.1995 82.3713L36.5323 70.8635L43.7996 80.958L56.7194 70.8635L63.9867 80.958L76.9065 70.8635L85.385 82.7751L82.1551 84.9959L76.099 76.7183L63.1792 86.8129Z" fill="white"/>
<path d="M53.4897 120.327C26.0352 120.327 3.62756 97.9168 3.62756 70.4597C3.62756 42.8007 26.0352 20.3909 53.6915 20.3909C81.3478 20.3909 103.755 42.8007 103.755 70.4597C103.554 97.9168 81.146 120.327 53.4897 120.327ZM53.4897 24.4287C28.2558 24.4287 7.46311 45.0215 7.46311 70.4597C7.46311 95.8979 28.0539 116.491 53.4897 116.491C78.9254 116.491 99.5162 95.8979 99.5162 70.4597C99.5162 45.0215 78.9254 24.4287 53.4897 24.4287Z" fill="white"/>
<path d="M62.1701 103.57C62.1701 102.762 62.7757 101.955 63.7851 101.955C64.5926 101.955 65.4 102.561 65.4 103.57C65.4 104.378 64.7944 105.185 63.7851 105.185C62.7757 104.983 62.1701 104.378 62.1701 103.57ZM52.0766 103.57C52.0766 102.762 52.6822 101.955 53.6915 101.955C54.499 101.955 55.3065 102.561 55.3065 103.57C55.3065 104.378 54.7009 105.185 53.6915 105.185C52.6822 104.983 52.0766 104.378 52.0766 103.57ZM41.983 103.57C41.983 102.762 42.5886 101.955 43.598 101.955C44.4055 101.955 45.213 102.561 45.213 103.57C45.213 104.378 44.6074 105.185 43.598 105.185C42.5886 104.983 41.983 104.378 41.983 103.57Z" fill="white"/>
<path d="M62.1704 37.148C62.1704 36.3404 62.776 35.5328 63.7853 35.5328C64.5928 35.5328 65.4003 36.1385 65.4003 37.148C65.4003 37.9555 64.7947 38.7631 63.7853 38.7631C62.776 38.7631 62.1704 37.9555 62.1704 37.148ZM52.0768 37.148C52.0768 36.3404 52.6824 35.5328 53.6918 35.5328C54.4993 35.5328 55.3068 36.1385 55.3068 37.148C55.3068 37.9555 54.7011 38.7631 53.6918 38.7631C52.6824 38.7631 52.0768 37.9555 52.0768 37.148ZM41.9833 37.148C41.9833 36.3404 42.5889 35.5328 43.5982 35.5328C44.4057 35.5328 45.2132 36.1385 45.2132 37.148C45.2132 37.9555 44.6076 38.7631 43.5982 38.7631C42.5889 38.7631 41.9833 37.9555 41.9833 37.148Z" fill="white"/>
<path d="M19.9792 134.257C19.1717 133.853 19.3736 132.642 19.5755 131.834V131.431C19.3736 131.431 19.3736 131.229 19.1717 131.229L15.9418 129.21C15.9418 129.21 15.9418 129.21 15.7399 129.21C14.7306 129.816 13.9231 130.623 13.1156 130.219C12.51 129.816 12.3081 129.008 12.7119 128.402C12.9138 128.2 12.9138 128.2 13.1156 127.999L21.3923 121.74C21.9979 121.336 22.4017 121.336 22.8054 121.74C23.2092 121.942 23.6129 122.548 23.411 123.153L21.7961 133.248C21.7961 133.45 21.7961 133.651 21.5942 133.651C21.3923 134.459 20.5848 134.661 19.9792 134.257ZM18.3643 127.393C18.1624 127.393 18.1624 127.595 17.9605 127.595L19.9792 128.806L20.383 126.182C20.383 125.98 20.383 125.778 20.383 125.778L18.3643 127.393Z" fill="white"/>
<path d="M33.1007 126.383C36.3306 127.595 37.9456 131.027 36.7343 134.257C36.3306 135.468 35.5231 136.68 34.3119 137.285L34.5138 137.487C34.7156 137.689 34.7156 138.093 34.5138 138.497C34.3119 139.102 33.5044 139.506 32.8988 139.304C32.4951 139.102 32.0913 138.901 31.8894 138.295C30.8801 138.497 29.8707 138.295 28.8614 137.891C25.6314 136.68 24.0165 133.248 25.2277 130.017C26.2371 126.989 29.8707 125.374 33.1007 126.383ZM29.6689 135.67C30.0726 135.872 30.4763 135.872 30.8801 135.872C30.6782 135.468 30.6782 135.267 30.8801 134.863C31.082 134.257 31.8894 133.853 32.4951 134.055C32.8988 134.257 33.1007 134.459 33.3025 134.661L33.5044 134.863C33.9082 134.459 34.3119 133.853 34.7156 133.248C35.3212 131.431 34.5138 129.21 32.4951 128.604C30.6782 127.998 28.4576 128.806 27.852 130.825C26.8427 132.844 27.852 135.065 29.6689 135.67Z" fill="white"/>
<path d="M39.5609 130.017C39.7628 129.412 40.3684 128.806 40.974 129.008C41.5796 129.21 42.1852 129.816 41.9834 130.421L40.7722 137.487C40.5703 138.295 41.3778 138.901 41.9834 139.103C42.7909 139.304 43.3965 138.699 43.5983 138.093L44.8096 131.027C45.0114 130.421 45.6171 129.816 46.2227 130.017C46.8283 130.219 47.4339 130.825 47.232 131.431L46.2227 138.699C45.8189 140.718 43.8002 141.929 41.7815 141.525C39.7628 141.121 37.946 139.304 38.3497 137.285L39.5609 130.017Z" fill="white"/>
<path d="M57.5272 142.333C56.7197 142.333 56.1141 141.323 55.9122 140.516L55.7104 140.112C55.5085 140.112 55.5085 140.112 55.3066 140.112H51.4711C51.0673 141.121 50.6636 142.333 49.6542 142.333C48.8468 142.333 48.2411 141.929 48.2411 141.121C48.2411 140.92 48.2412 140.718 48.443 140.516L52.0767 130.825C52.2786 130.219 52.6823 130.017 53.2879 130.017C53.8935 130.017 54.2973 130.219 54.4991 130.825L58.5366 140.516C58.5366 140.718 58.7384 140.92 58.7384 141.121C58.7384 141.727 58.1328 142.333 57.5272 142.333ZM52.4804 137.286C52.4804 137.487 52.2786 137.487 52.2786 137.689H54.4991L53.6917 135.267C53.6917 135.065 53.4898 135.065 53.4898 134.863L52.4804 137.286Z" fill="white"/>
<path d="M64.5928 136.882C64.5928 136.68 64.5928 136.68 64.5928 136.882H63.7853C63.7853 136.882 63.7853 136.882 63.7853 137.084L64.3909 140.516C64.5928 141.323 63.9872 141.929 63.3816 142.131C62.776 142.333 61.9685 141.727 61.9685 141.121L60.1517 131.229C59.9498 130.421 60.3535 129.816 61.161 129.816L64.1891 129.21C66.2078 128.806 68.0246 130.219 68.4284 132.238C68.6302 133.652 68.2265 134.661 67.419 135.67C67.419 135.872 67.2171 135.872 67.2171 136.074L69.6396 138.901C69.8415 139.103 69.8415 139.304 69.8415 139.506C70.0433 140.112 69.4377 140.92 68.8321 140.92C68.4284 140.92 67.8227 140.92 67.6209 140.516L64.5928 136.882ZM63.1797 132.036H62.9779L63.3816 134.459L64.9966 134.257C65.804 134.055 66.0059 133.248 65.804 132.844C65.804 132.44 65.4003 131.633 64.5928 131.835L63.1797 132.036Z" fill="white"/>
<path d="M70.6487 127.595C71.2544 127.393 72.0619 127.797 72.2637 128.402L75.0899 137.689C75.2918 138.295 74.888 139.103 74.2824 139.304C73.6768 139.506 72.8693 139.102 72.6675 138.497L69.8413 129.21C69.6394 128.604 70.0431 127.797 70.6487 127.595Z" fill="white"/>
<path d="M74.0807 127.999C73.8788 127.393 74.0807 126.585 74.6863 126.384C75.2919 126.182 76.0994 126.384 76.3013 126.989L79.1275 133.45C79.5312 134.257 80.5406 134.257 81.1462 134.055C81.7518 133.853 82.1555 133.046 81.9537 132.238L79.1275 125.576C78.9256 124.97 79.1275 124.163 79.7331 123.961C80.3387 123.759 81.1462 123.961 81.3481 124.567L84.3761 131.431C85.1836 133.45 83.9724 135.469 82.1555 136.276C80.3387 137.084 77.9163 136.478 76.9069 134.661L74.0807 127.999Z" fill="white"/>
<path d="M87.8079 129.412C88.8173 128.806 89.4229 130.017 90.4322 129.412C90.836 129.21 91.0378 128.604 90.6341 127.999C90.0285 127.191 89.4229 127.393 88.6154 127.595C87.0004 127.999 85.1836 127.595 84.1742 126.182C82.963 124.364 83.3667 122.346 85.1836 121.134C86.1929 120.529 87.8079 120.327 88.8173 121.336C89.0191 121.336 89.0191 121.538 89.221 121.74C89.6247 122.346 89.4229 123.153 88.8173 123.557C88.4135 123.759 88.0098 123.759 87.4042 123.557C87.0004 123.355 86.5967 123.355 86.3948 123.557C85.7892 123.961 85.7892 124.364 86.1929 124.97C86.5967 125.576 87.606 125.374 88.2116 125.374H88.4135C90.6341 124.97 91.8453 125.374 92.8547 126.989C93.864 128.604 93.4603 130.825 91.8453 131.834C90.4322 132.642 88.4135 133.046 87.4042 131.431C87.2023 130.421 87.2023 129.816 87.8079 129.412Z" fill="white"/>
<path d="M6.05018 33.312C5.64644 32.9083 5.44457 32.5045 5.44457 32.1007C5.44457 31.8988 5.2427 28.4667 5.2427 26.8515C5.2427 25.8421 5.2427 25.2364 4.83896 24.8326C4.23335 24.227 3.42586 24.4289 2.82025 24.8326C2.41651 25.2364 2.41651 25.8421 2.61838 26.4478C2.82025 26.8515 2.82025 27.4572 2.41651 27.861C2.01277 28.2648 1.20528 28.4667 0.59967 28.0629C0.397799 27.861 0.397799 27.861 0.397799 27.6591C-0.207813 26.2459 -0.207813 24.4289 1.00341 23.2175C2.41651 21.6024 4.83896 21.4005 6.45393 23.0156C8.06889 24.6308 7.66515 26.8515 7.66515 29.8799V30.2837L9.88573 27.861C10.2895 27.2553 11.097 27.2553 11.7026 27.861C12.1063 28.2648 12.3082 29.0723 11.7026 29.678L8.27076 33.5139C7.86702 33.9177 6.6558 33.9177 6.05018 33.312Z" fill="white"/>
<path d="M17.7586 19.1795C19.1717 20.9965 18.9699 23.6211 17.153 25.0343C15.3362 26.4475 12.7119 26.0438 11.2988 24.4286L8.67445 21.1984C7.46323 19.3814 7.6651 16.7568 9.48194 15.3436C11.2988 13.9303 13.9231 14.1322 15.1343 15.9492L17.7586 19.1795ZM13.3175 22.8135C13.9231 23.4192 14.9324 23.6211 15.5381 23.0154C16.1437 22.4097 16.3455 21.4003 15.7399 20.7946L13.3175 17.5644C12.7119 16.9587 11.7025 16.7568 10.895 17.3625C10.2894 17.7663 10.2894 18.9776 10.6932 19.5833L13.3175 22.8135Z" fill="white"/>
<path d="M21.3923 19.1797C21.796 18.9778 22.6035 19.1797 22.8054 19.5834C23.0072 19.9872 23.0072 20.5929 22.4016 20.9967C21.796 21.4005 21.1904 21.1986 20.9885 20.7948C20.7867 20.391 20.7867 19.5834 21.3923 19.1797Z" fill="white"/>
<path d="M23.411 17.7665C23.2091 17.1608 23.2091 16.5552 24.0166 16.1514C24.4204 15.9495 24.8241 15.9495 25.2279 16.1514C25.4297 16.3533 25.8335 16.3533 26.0353 16.1514C26.4391 15.9495 26.641 15.3438 26.4391 14.94L23.2091 8.07575C22.8054 7.47008 23.2091 6.66252 23.8148 6.46063C24.4204 6.05685 25.2279 6.46063 25.4297 7.0663L28.8615 13.9306C29.669 15.5457 29.0634 17.5646 27.2466 18.5741C26.2372 18.9778 24.8241 18.9778 24.0166 18.1703C23.8148 18.1703 23.6129 17.9684 23.411 17.7665Z" fill="white"/>
<path d="M39.3588 13.7286C38.5514 13.9305 37.7439 13.123 37.1383 12.3154L36.9364 12.1135C36.7345 12.1135 36.7345 12.1135 36.5327 12.3154L32.899 13.5267C32.6971 14.7381 32.899 15.7475 31.8896 16.1513C31.284 16.3532 30.4765 16.1513 30.2747 15.3438C30.2747 15.1419 30.2747 14.94 30.2747 14.7381L31.0821 4.44167C31.0821 3.836 31.4859 3.43222 32.0915 3.23033C32.6971 3.02844 33.1008 3.23033 33.5046 3.63411L40.1663 11.7097C40.1663 11.9116 40.1663 11.9116 40.3682 12.1135C40.5701 12.9211 40.1663 13.5267 39.3588 13.7286ZM33.3027 10.4984C33.3027 10.7003 33.3027 10.7003 33.3027 10.9022L35.3214 10.0946L33.7065 8.0757C33.7065 7.87381 33.5046 7.87381 33.5046 7.67192L33.3027 10.4984Z" fill="white"/>
<path d="M43.5981 1.41323L47.8374 6.86428C48.0393 7.06617 48.2411 7.26806 48.2411 7.46995C48.2411 7.26806 48.2411 7.06617 48.2411 6.86428L47.6355 1.41323C47.6355 0.605671 48.2411 0 48.8467 0C49.6542 0 50.2598 0.403781 50.2598 1.21134L51.2692 10.4983C51.2692 11.3059 50.6636 12.1134 49.8561 12.3153C49.0486 12.3153 48.6449 11.9115 48.443 11.7096L44.2037 6.05671C44.0018 5.85482 44.0018 5.65293 43.8 5.45104C43.8 5.65293 43.8 5.85482 43.8 6.05671L44.4056 11.5078C44.4056 12.1134 44.0018 12.7191 43.1944 12.921C42.3869 12.921 41.7813 12.5172 41.7813 11.9115L40.7719 2.62458C40.7719 1.81701 41.3775 1.00945 42.185 0.807562C42.9925 0.605671 43.3962 1.21134 43.5981 1.41323Z" fill="white"/>
<path d="M57.3254 6.66234C57.931 6.66234 58.3347 7.06612 58.3347 7.67179C58.3347 8.27746 57.931 8.68125 57.1235 8.68125L54.2973 8.47935C53.6917 8.47935 53.288 8.07557 53.288 7.4699C53.288 6.86423 53.6917 6.46045 54.4992 6.46045L57.3254 6.66234Z" fill="white"/>
<path d="M63.3814 1.81707C63.5833 1.2114 64.1889 0.807617 64.7945 0.807617L66.8132 1.2114C67.4188 1.2114 67.8226 1.81707 67.6207 2.42274L66.0057 12.1135C65.8039 12.7192 65.1982 13.3248 64.5926 13.1229C63.987 12.921 63.3814 12.3154 63.5833 11.7097L64.9964 4.03786C64.9964 3.83597 65.1982 3.43219 64.9964 3.43219H64.5926C63.7851 3.2303 63.3814 2.42274 63.3814 1.81707Z" fill="white"/>
<path d="M77.1086 4.03779C78.9254 4.64346 79.7329 6.66236 79.1273 8.47938C78.9254 9.28694 78.3198 9.69072 77.7142 10.0945C78.118 10.9021 78.5217 12.1134 78.118 13.3247C77.3105 15.3437 75.0899 16.555 73.0712 15.7474C71.0525 14.9399 69.8413 12.7191 70.6487 10.7002C71.0525 9.48883 72.0618 8.88316 72.8693 8.47938C72.6675 7.46992 72.4656 6.86425 72.8693 6.05669C73.4749 4.23968 75.4936 3.23022 77.1086 4.03779ZM73.8787 13.3247C74.6862 13.5266 75.4936 13.1229 75.8974 12.3153C76.0993 11.5077 75.6955 10.7002 74.888 10.4983C74.0805 10.2964 73.2731 10.7002 72.8693 11.5077C72.6675 12.1134 73.0712 12.921 73.8787 13.3247ZM75.6955 8.0756C76.0993 8.27749 76.7049 8.0756 76.9067 7.46992C77.1086 7.06614 76.9067 6.46047 76.3011 6.25858C75.8974 6.05669 75.2918 6.25858 75.0899 6.86425C74.888 7.26803 75.2918 7.87371 75.6955 8.0756Z" fill="white"/>
<path d="M80.1369 16.1513C80.7425 16.3532 80.7425 17.1607 80.5407 17.5645C80.3388 18.1702 79.7332 18.3721 79.3295 18.1702C78.7238 17.9683 78.522 17.3626 78.7238 16.7569C78.9257 16.1513 79.7332 15.9494 80.1369 16.1513Z" fill="white"/>
<path d="M87.404 10.0944C87.8078 9.48877 88.6153 9.28688 89.2209 9.69066L92.8545 11.9115C93.4602 12.3152 93.662 13.1228 93.2583 13.7285C92.8545 14.536 91.8452 14.3341 91.2396 13.9304L89.019 12.5171C88.8171 12.719 88.8171 12.719 88.6153 12.9209L88.0096 13.9304C88.0096 14.1323 87.8078 14.1323 87.8078 14.3341L90.2302 15.9493C90.8358 16.1512 91.0377 17.1606 90.634 17.5644C90.2302 18.1701 89.4227 18.372 88.8171 17.9682L86.3947 16.353C86.1928 16.5549 86.1928 16.5549 86.1928 16.7568L84.5778 19.5833C84.1741 20.189 83.3666 20.3909 82.761 19.9871C82.1554 19.5833 81.9535 18.7757 82.3573 18.1701L87.404 10.0944Z" fill="white"/>
<path d="M93.6619 21.6024C93.4601 21.8043 93.4601 21.8043 93.2582 22.0062L92.4507 23.0156C92.2488 23.2175 92.2488 23.2175 92.047 23.4194L94.0657 25.0345C94.6713 25.6402 95.075 26.4477 94.4694 27.0534C94.0657 27.6591 93.2582 27.6591 92.6526 27.2553L89.4226 24.4288C88.817 24.0251 88.817 23.2175 89.2208 22.6118L95.2769 15.3438C95.6806 14.7381 96.4881 14.7381 97.0937 15.1419L100.324 17.9683C101.131 18.1702 101.131 19.1797 100.727 19.5835C100.122 20.1891 99.3143 19.9873 98.7087 19.5835L96.69 17.9683C96.4881 17.9683 96.4881 18.1702 96.2863 18.1702L95.4788 18.9778C95.2769 19.1797 95.2769 19.1797 95.075 19.3816L97.2956 21.1986C97.9012 21.6024 97.9012 22.4099 97.4975 23.0156C97.0937 23.6213 96.2863 23.6213 95.6806 23.2175L93.6619 21.6024Z" fill="white"/>
<path d="M95.681 29.8797C95.2772 29.274 95.2772 28.4664 95.8828 28.0627L102.948 21.8041C103.554 21.4003 104.361 21.4003 104.765 21.8041L106.38 23.6211C107.591 25.0343 107.389 27.0532 105.976 28.2646C105.371 28.8702 104.765 29.0721 103.958 29.0721C103.958 30.0816 103.554 31.2929 102.746 31.8986C101.131 33.3118 98.9109 33.1099 97.4978 31.6967L95.681 29.8797ZM100.728 27.6589C100.526 27.457 100.526 27.457 100.324 27.6589L98.709 29.0721L98.5072 29.274L99.3147 30.0816C99.7184 30.6872 100.728 30.6872 101.131 30.0816C101.737 29.6778 101.737 28.8702 101.333 28.2646L100.728 27.6589ZM104.16 26.6494C104.563 26.2456 104.563 25.64 104.361 25.2362L103.958 24.8324C103.756 24.6305 103.756 24.8324 103.554 24.8324L102.545 25.8419L102.343 26.0438L102.948 26.6494C103.15 27.0532 103.756 27.0532 104.16 26.6494Z" fill="white"/>
</svg>
