<svg width="115" height="143" viewBox="0 0 115 143" fill="none" xmlns="http://www.w3.org/2000/svg">
<path d="M39.8685 70.3029C35.6031 65.0215 35.6031 56.693 39.8685 51.4116C41.4934 49.1772 43.7276 48.1615 46.368 48.1615C49.6178 48.1615 53.2739 50.1928 55.9143 53.4429C58.1486 56.2868 58.961 60.7557 58.961 63.5995H54.8988C54.8988 60.7557 54.0863 57.7087 52.6645 56.0836C50.8365 53.6461 48.3992 52.2241 46.368 52.2241C45.1494 52.2241 43.9307 52.8335 43.1183 54.0523C40.0716 57.7087 40.0716 64.0058 43.1183 67.8653L39.8685 70.3029Z" fill="white"/>
<path d="M59.1641 94.4756H55.1018V63.8027C55.1018 60.9588 55.9143 56.693 58.1485 53.6461C60.789 50.3959 64.445 48.3646 67.6948 48.3646C70.3352 48.3646 72.5695 49.5834 74.1944 51.6147C78.4597 56.8962 78.4597 65.2246 74.1944 70.506L70.9446 68.0684C73.9913 64.4121 73.9913 58.115 70.9446 54.2555C69.929 53.0367 68.9134 52.4273 67.6948 52.4273C65.6636 52.4273 63.2263 53.8492 61.3983 56.2868C59.9765 57.9118 59.1641 60.9588 59.1641 63.8027V94.4756Z" fill="white"/>
<path d="M57.133 120.68C29.3066 120.68 6.76111 98.132 6.76111 70.3029C6.76111 42.4738 29.3066 19.9261 57.133 19.9261C84.9594 19.9261 107.505 42.4738 107.505 70.3029C107.302 98.132 84.7563 120.68 57.133 120.68ZM57.133 24.1919C31.7439 24.1919 10.8234 44.9114 10.8234 70.506C10.8234 96.1007 31.5408 116.82 57.133 116.82C82.522 116.82 103.443 96.1007 103.443 70.506C103.443 44.9114 82.522 24.1919 57.133 24.1919Z" fill="white"/>
<path d="M65.6637 103.82C65.6637 103.007 66.273 102.195 67.2886 102.195C68.101 102.195 68.9135 102.804 68.9135 103.82C68.9135 104.632 68.3041 105.445 67.2886 105.445C66.273 105.242 65.6637 104.632 65.6637 103.82ZM55.508 103.82C55.508 103.007 56.1174 102.195 57.133 102.195C57.9454 102.195 58.7579 102.804 58.7579 103.82C58.7579 104.632 58.1485 105.445 57.133 105.445C56.1174 105.242 55.508 104.632 55.508 103.82ZM45.3524 103.82C45.3524 103.007 45.9618 102.195 46.9773 102.195C47.7898 102.195 48.3991 102.804 48.3991 103.82C48.3991 104.632 47.7898 105.445 46.9773 105.445C45.9618 105.242 45.3524 104.632 45.3524 103.82Z" fill="white"/>
<path d="M65.6636 36.9892C65.6636 36.1767 66.2729 35.3641 67.2885 35.3641C68.1009 35.3641 68.9134 35.9735 68.9134 36.9892C68.9134 37.8017 68.304 38.6142 67.2885 38.6142C66.2729 38.6142 65.6636 37.8017 65.6636 36.9892ZM55.5079 36.9892C55.5079 36.1767 56.1173 35.3641 57.1328 35.3641C57.9453 35.3641 58.7577 35.9735 58.7577 36.9892C58.7577 37.8017 58.1484 38.6142 57.1328 38.6142C56.1173 38.6142 55.5079 37.8017 55.5079 36.9892ZM45.3523 36.9892C45.3523 36.1767 45.9616 35.3641 46.9772 35.3641C47.7897 35.3641 48.399 35.9735 48.399 36.9892C48.399 37.8017 47.7897 38.6142 46.9772 38.6142C45.9616 38.6142 45.3523 37.8017 45.3523 36.9892Z" fill="white"/>
<path d="M42.1027 141.399C41.2903 141.196 41.0871 139.977 41.0871 139.165V138.758C40.884 138.758 40.884 138.758 40.6809 138.555L37.0249 137.54C36.2124 138.352 35.8062 139.571 34.7906 139.165C34.1813 138.962 33.572 138.352 33.7751 137.54C33.7751 137.336 33.9782 137.133 33.9782 137.133L40.2747 128.805C40.6809 128.399 41.0871 128.196 41.6965 128.399C42.3058 128.602 42.712 129.008 42.712 129.617L43.9307 139.977C43.9307 140.18 43.9307 140.383 43.9307 140.587C43.5245 141.399 42.9152 141.602 42.1027 141.399ZM38.6498 135.305C38.6498 135.508 38.4467 135.508 38.4467 135.711L40.6809 136.321L40.2747 133.68C40.2747 133.477 40.2747 133.274 40.2747 133.274L38.6498 135.305Z" fill="white"/>
<path d="M50.6334 137.946C50.6334 137.743 50.6334 137.743 50.6334 137.946L50.0241 137.743L49.821 141.196C49.821 142.008 49.2116 142.415 48.3992 142.415C47.5867 142.415 47.1805 141.602 47.1805 140.993L47.993 131.446C47.993 130.633 48.6023 130.227 49.4148 130.227L52.4614 130.43C54.4925 130.633 55.9143 132.258 55.7112 134.493C55.5081 135.915 54.8988 136.93 53.8832 137.54C53.6801 137.54 53.6801 137.743 53.477 137.743L55.1019 140.993C55.1019 141.196 55.1019 141.399 55.1019 141.602C55.1019 142.212 54.4926 142.821 53.6801 142.821C53.2739 142.821 52.8677 142.415 52.6646 142.008L50.6334 137.946ZM50.6334 132.868H50.4303L50.2272 135.305L51.8521 135.508C52.6645 135.508 53.0708 134.696 53.0708 134.289C53.0708 133.883 52.8677 133.071 52.0552 133.071L50.6334 132.868Z" fill="white"/>
<path d="M58.9608 130.633C59.7733 130.633 60.1795 131.243 60.3826 131.852L60.7889 141.602C60.7889 142.212 60.1795 142.821 59.5702 142.821C58.7577 142.821 58.3515 142.415 58.1484 141.602L57.7422 131.852C57.7422 131.039 58.3515 130.633 58.9608 130.633Z" fill="white"/>
<path d="M65.6636 137.336C65.6636 137.54 65.6636 137.743 65.6636 137.946L65.8667 139.165C65.8667 139.368 65.8667 139.571 65.8667 139.774L68.5072 139.368C69.3197 139.165 70.1321 139.571 70.3352 140.383C70.3352 140.993 69.929 141.805 69.3196 141.805L65.0543 142.415C64.4449 142.415 63.6325 142.008 63.6325 141.399L62.2107 131.852C62.2107 131.242 62.6169 130.43 63.2263 130.43L67.4916 129.821C68.101 129.821 68.9134 130.227 68.9134 130.836C69.1165 131.852 68.3041 132.258 67.4916 132.258L64.8512 132.664C64.8512 132.868 64.8512 133.071 64.8512 133.274L65.0543 134.493C65.0543 134.696 65.0543 134.899 65.0543 134.899L68.101 134.493C68.7103 134.493 69.5228 134.899 69.5228 135.508C69.5228 136.118 69.1165 136.93 68.5072 136.93L65.6636 137.336Z" fill="white"/>
<path d="M73.9914 136.93C75.0069 136.524 75.4132 137.946 76.6318 137.54C77.2412 137.336 77.4443 136.93 77.2412 136.321C77.038 135.305 76.2256 135.305 75.4132 135.305C73.5851 135.305 72.1634 134.493 71.554 132.664C70.9447 130.43 71.9603 128.805 73.9914 128.195C75.2101 127.789 76.6318 128.195 77.4443 129.414C77.6474 129.617 77.6474 129.617 77.6474 129.82C77.8505 130.43 77.4443 131.242 76.8349 131.446C76.4287 131.649 75.8194 131.446 75.6163 131.039C75.2101 130.633 74.8038 130.633 74.6007 130.633C73.9914 130.836 73.7883 131.242 73.9914 131.852C74.1945 132.664 75.21 132.664 75.8194 132.664H76.0225C78.2567 132.867 79.2723 133.68 79.8816 135.508C80.491 137.336 79.4754 139.368 77.6474 139.977C76.0225 140.383 73.9914 140.18 73.382 138.352C72.9758 137.743 73.382 137.133 73.9914 136.93Z" fill="white"/>
<path d="M6.55808 36.9894C6.15185 36.5832 5.94873 36.1769 5.94873 35.7706C5.94873 35.5675 5.5425 32.1143 5.33939 30.4892C5.33939 29.4736 5.33938 28.8642 4.73005 28.4579C4.12071 28.0516 3.30826 28.0516 2.69892 28.661C2.2927 29.0673 2.2927 29.8798 2.69892 30.2861C2.90203 30.6923 2.90203 31.3017 2.69892 31.708C2.2927 32.1143 1.48026 32.3174 0.870923 31.9111C0.667811 31.9111 0.667799 31.708 0.667799 31.5049C-0.347763 30.083 -0.144638 28.2548 0.870923 26.8328C2.29271 25.2078 4.73005 24.8015 6.35495 26.2234C8.18296 27.6454 7.77673 29.8798 8.18295 32.9268V33.3331L10.2141 30.6923C10.6203 30.083 11.4328 30.083 12.0421 30.4892C12.6514 30.8955 12.6514 31.708 12.2452 32.3174L8.99542 36.38C8.38608 37.3957 7.16741 37.3957 6.55808 36.9894Z" fill="white"/>
<path d="M7.77659 21.1449C7.37037 20.7386 7.37037 19.9261 7.77659 19.5198L9.40149 17.8948C9.80772 17.4885 10.417 17.4885 10.8233 17.8948L17.526 25.2075C17.9322 25.8169 17.9322 26.4263 17.526 27.0357C16.9166 27.442 16.3073 27.442 15.698 27.0357L10.2139 21.1449C10.0108 20.9418 9.80773 20.5355 9.60462 20.7386L9.19837 21.1449C8.99526 21.5512 8.18282 21.5512 7.77659 21.1449Z" fill="white"/>
<path d="M20.979 21.5513C21.3852 21.145 22.1977 21.3481 22.4008 21.7544C22.807 22.1607 22.6039 22.7701 22.1977 23.1763C21.5884 23.5826 20.979 23.3795 20.7759 22.9732C20.3697 22.7701 20.3697 21.9575 20.979 21.5513Z" fill="white"/>
<path d="M26.8692 14.6448C27.0723 14.8479 27.2754 15.051 27.4785 15.051C27.4785 14.8479 27.4785 14.6448 27.4785 14.4417L26.4629 8.14455C26.2598 7.33203 26.666 6.31637 27.4785 5.9101C28.6972 5.30071 29.7127 5.70697 30.119 6.72263L34.3843 14.6448C34.5874 15.2542 34.3843 16.0667 33.775 16.473C33.1656 16.8792 32.5563 16.473 32.1501 15.8636L29.5096 10.9884C29.3065 10.7853 29.3065 10.5821 29.1034 10.379C29.1034 10.5821 29.1034 10.9884 29.3065 11.1915C29.5096 12.4103 30.119 17.2855 30.119 17.2855C30.119 17.8949 29.9158 18.5043 29.5096 18.7074C28.9003 18.9106 28.291 18.9106 27.8847 18.5043C27.2754 17.8949 24.0256 14.8479 23.4162 14.2385C23.2131 14.0354 23.01 13.8323 23.01 13.8323L25.8536 19.1137C26.2598 19.7231 26.0567 20.5356 25.4474 20.9419C24.838 21.3481 24.0256 21.145 23.6194 20.5356L19.354 12.6135C18.9478 11.8009 19.1509 10.379 20.1665 9.97274C20.9789 9.56648 21.7913 9.76961 22.4007 10.379L26.8692 14.6448Z" fill="white"/>
<path d="M44.9462 13.0196C44.1337 13.2228 43.3213 12.4102 42.9151 11.5977L42.712 11.3946C42.5088 11.3946 42.5088 11.3946 42.3057 11.5977L38.6497 12.6134C38.4466 13.629 38.4466 14.8478 37.6341 15.2541C37.0248 15.4572 36.2124 15.051 36.0093 14.4416C36.0093 14.2384 36.0093 14.0353 36.0093 13.8322L37.0248 3.47243C37.228 2.86304 37.4311 2.45677 38.0404 2.25364C38.6497 2.05051 39.056 2.25364 39.4622 2.6599L45.7586 10.9883C45.7586 11.1915 45.9618 11.1915 45.9618 11.3946C45.9618 12.2071 45.5555 12.8165 44.9462 13.0196ZM38.6497 9.36326C38.6497 9.5664 38.6497 9.5664 38.6497 9.76953L40.884 9.16013L39.2591 7.12881C39.2591 6.92568 39.056 6.92568 39.056 6.72255L38.6497 9.36326Z" fill="white"/>
<path d="M50.4303 7.53513C50.2272 7.332 50.2272 7.332 50.4303 7.53513H49.6179C49.6179 7.53513 49.6179 7.53513 49.6179 7.73827L50.0241 11.1915C50.0241 12.004 49.6178 12.6134 48.8054 12.6134C48.1961 12.6134 47.5867 12.004 47.3836 11.3946L46.368 1.6443C46.368 0.831775 46.7743 0.222379 47.3836 0.222379L50.4303 0.0192468C52.4614 -0.183885 54.0864 1.23804 54.2895 3.47249C54.4926 4.89442 53.8832 5.91008 53.0708 6.72261C53.0708 6.92574 52.8677 6.92574 52.8677 6.92574L55.1019 9.97272C55.305 10.1759 55.305 10.379 55.305 10.5821C55.305 11.1915 54.8988 11.8009 54.0863 12.004C53.6801 12.004 53.0708 11.8009 52.8677 11.3946L50.4303 7.53513ZM49.4147 2.65996H49.2116L49.4147 5.09755L51.0396 4.89442C51.8521 4.89442 52.0552 3.87876 52.0552 3.47249C52.0552 3.06623 51.649 2.2537 50.8365 2.45683L49.4147 2.65996Z" fill="white"/>
<path d="M61.3982 6.31641C62.0075 6.31641 62.4137 6.72268 62.4137 7.33207C62.4137 7.94147 62.0075 8.34773 61.1951 8.34773L58.1484 8.1446C57.539 8.1446 57.1328 7.73834 57.1328 7.12894C57.1328 6.51955 57.539 6.11328 58.3515 6.11328L61.3982 6.31641Z" fill="white"/>
<path d="M67.4918 1.6442C67.6949 1.0348 68.3043 0.62854 68.9136 0.62854L70.9447 1.0348C71.5541 1.23794 71.9603 1.6442 71.7572 2.2536L69.9292 12.0039C69.726 12.6133 69.1167 13.2227 68.5074 13.0196C67.898 12.8165 67.2887 12.2071 67.4918 11.5977L68.9136 3.67552C68.9136 3.47239 69.1167 3.06613 68.9136 3.06613H68.5074C67.6949 2.86299 67.2887 2.2536 67.4918 1.6442Z" fill="white"/>
<path d="M82.725 11.1915L77.8503 15.0511C77.444 15.2542 77.0378 15.4573 76.6316 15.2542C76.0223 15.0511 75.616 14.2385 75.8191 13.6291C75.8191 13.426 76.0222 13.2229 76.2253 13.0197L77.6472 12.0041C77.8503 11.8009 77.8503 11.8009 78.0534 11.5978C76.2254 10.5821 75.0067 8.55083 75.8191 6.31638C76.6316 4.08192 79.0689 2.86313 81.3032 3.67566C83.5374 4.48819 84.7561 6.92577 83.9436 9.16022C83.7405 9.97275 83.3343 10.7853 82.725 11.1915ZM80.4907 6.11324C79.4752 5.70698 78.6627 6.11324 78.2565 7.1289C77.8502 8.14456 78.2565 8.95709 79.272 9.36336C80.2876 9.76962 81.1001 9.16023 81.5063 8.3477C81.9125 7.53517 81.5063 6.51951 80.4907 6.11324Z" fill="white"/>
<path d="M84.35 16.0666C84.7562 16.2698 84.9593 17.0823 84.7562 17.4886C84.5531 18.0979 83.9437 18.3011 83.3344 17.8948C82.7251 17.6917 82.522 17.0823 82.7251 16.4729C82.9282 16.0666 83.7406 15.8635 84.35 16.0666Z" fill="white"/>
<path d="M93.084 23.9888C92.2715 23.5825 92.6778 22.3637 92.8809 21.3481V20.9418C92.6778 20.9418 92.6777 20.7387 92.4746 20.7387L89.4279 18.7073C89.4279 18.7073 89.4279 18.7073 89.2248 18.7073C88.2093 19.3167 87.3968 20.1293 86.5844 19.5199C85.975 19.1136 85.7719 18.3011 86.1781 17.6917C86.3813 17.4886 86.3812 17.4886 86.5844 17.2854L95.3182 11.3946C95.9276 11.1915 96.3338 10.9883 96.74 11.3946C97.1462 11.8009 97.3493 12.2071 97.3493 12.8165L95.1151 22.9731C95.1151 23.1763 95.1151 23.3794 94.912 23.3794C94.5058 24.395 93.6933 24.395 93.084 23.9888ZM91.8653 17.0823C91.6622 17.0823 91.6622 17.2854 91.4591 17.2854L93.2871 18.5042L93.8964 15.8635C93.8964 15.6604 93.8964 15.4572 93.8964 15.4572L91.8653 17.0823Z" fill="white"/>
<path d="M102.63 17.6917C103.24 17.0823 103.849 17.0823 104.458 17.6917L106.286 19.5199C107.911 20.9418 107.708 23.1762 106.286 24.5982C104.864 26.0201 102.63 26.2232 101.005 24.8013L100.396 24.1919L100.193 23.9888L97.7555 26.4263C97.3493 27.0357 96.3338 27.0357 95.9275 26.4263C95.3182 26.0201 95.5213 25.0044 95.9275 24.5982L102.63 17.6917ZM103.849 20.5355C103.646 20.5355 103.849 20.5355 103.849 20.5355L102.021 22.1606L102.833 22.9731C103.443 23.5825 104.052 23.1762 104.458 22.77C104.661 22.3637 105.068 21.7543 104.458 21.1449L103.849 20.5355Z" fill="white"/>
<path d="M107.099 31.5047C107.302 31.5047 107.302 31.5047 107.099 31.5047L106.692 30.8953C106.692 30.8953 106.692 30.8953 106.489 30.8953L103.849 32.9266C103.239 33.3329 102.427 33.3329 102.021 32.7235C101.615 32.1141 101.818 31.3015 102.224 30.8953L109.942 25.0045C110.551 24.5982 111.364 24.5982 111.77 25.2076L113.598 27.6452C114.817 29.2702 114.411 31.5047 112.786 32.7235C111.77 33.536 110.551 33.7391 109.333 33.536C109.13 33.536 109.13 33.536 108.927 33.536L107.505 36.9892C107.505 37.1924 107.302 37.3955 107.099 37.3955C106.692 37.8018 105.88 37.8018 105.271 37.1924C105.067 36.7861 104.864 36.3799 105.067 35.7705L107.099 31.5047ZM110.755 28.0514L110.551 27.8483L108.52 29.2702L109.536 30.489C110.145 31.0984 110.958 30.8953 111.161 30.489C111.567 30.2859 111.973 29.4734 111.364 28.864L110.755 28.0514Z" fill="white"/>
</svg>
