<svg width="119" height="143" viewBox="0 0 119 143" fill="none" xmlns="http://www.w3.org/2000/svg">
<path d="M36.676 67.203H32.6401C32.6401 57.1125 44.344 48.8383 58.4693 48.8383C65.1284 48.8383 75.4198 50.6546 83.4914 55.9016L81.2717 59.3324C73.8055 54.6908 64.5231 52.8745 58.4693 52.8745C46.5637 52.8745 36.676 59.3324 36.676 67.203Z" fill="white"/>
<path d="M58.6705 91.4202C52.0114 91.4202 41.7201 89.6039 33.6484 84.3568L35.8681 80.926C43.3344 85.5677 52.6168 87.384 58.6705 87.384C70.778 87.384 80.4639 80.926 80.4639 73.0554H84.4998C84.4998 83.3478 72.7959 91.4202 58.6705 91.4202Z" fill="white"/>
<path d="M73.1997 84.5587C66.9442 84.5587 61.8994 79.5135 61.8994 73.2573C61.8994 67.0012 66.9442 61.9559 73.1997 61.9559C79.4552 61.9559 84.5 67.0012 84.5 73.2573C84.5 79.5135 79.4552 84.5587 73.1997 84.5587ZM73.1997 65.9921C69.1639 65.9921 65.9352 69.2211 65.9352 73.2573C65.9352 77.2935 69.1639 80.5225 73.1997 80.5225C77.2355 80.5225 80.4642 77.2935 80.4642 73.2573C80.4642 69.2211 77.2355 65.9921 73.1997 65.9921Z" fill="white"/>
<path d="M43.9399 78.3026C37.6844 78.3026 32.6396 73.2573 32.6396 67.0012C32.6396 60.7451 37.6844 55.6998 43.9399 55.6998C50.1954 55.6998 55.2402 60.7451 55.2402 67.0012C55.0384 73.2573 50.1954 78.3026 43.9399 78.3026ZM43.9399 59.9378C39.9041 59.9378 36.6755 63.1668 36.6755 67.203C36.6755 71.2392 39.9041 74.4682 43.9399 74.4682C47.9757 74.4682 51.2044 71.2392 51.2044 67.203C51.0026 63.1668 47.7739 59.9378 43.9399 59.9378Z" fill="white"/>
<path d="M58.6709 120.077C31.0255 120.077 8.62671 97.6763 8.62671 70.0283C8.62671 42.3802 31.0255 19.9792 58.6709 19.9792C86.3162 19.9792 108.715 42.3802 108.715 70.0283C108.513 97.6763 86.1144 120.077 58.6709 120.077ZM58.6709 24.2173C33.447 24.2173 12.6625 44.8019 12.6625 70.2301C12.6625 95.4564 33.2452 116.243 58.6709 116.243C83.8947 116.243 104.679 95.6582 104.679 70.2301C104.477 44.8019 83.8947 24.2173 58.6709 24.2173Z" fill="white"/>
<path d="M67.1459 103.327C67.1459 102.52 67.7513 101.713 68.7603 101.713C69.5674 101.713 70.3746 102.318 70.3746 103.327C70.3746 104.134 69.7692 104.941 68.7603 104.941C67.7513 104.941 67.1459 104.134 67.1459 103.327ZM57.0564 103.327C57.0564 102.52 57.6617 101.713 58.6707 101.713C59.4779 101.713 60.285 102.318 60.285 103.327C60.285 104.134 59.6796 104.941 58.6707 104.941C57.6617 104.941 57.0564 104.134 57.0564 103.327ZM46.9668 103.327C46.9668 102.52 47.5722 101.713 48.5811 101.713C49.3883 101.713 49.9937 102.318 49.9937 103.327C49.9937 104.134 49.3883 104.941 48.5811 104.941C47.5722 104.941 46.9668 104.134 46.9668 103.327Z" fill="white"/>
<path d="M67.1458 37.133C67.1458 36.3258 67.7512 35.5186 68.7601 35.5186C69.5673 35.5186 70.3745 36.124 70.3745 37.133C70.3745 37.9403 69.7691 38.7475 68.7601 38.7475C67.7512 38.5457 67.1458 37.9403 67.1458 37.133ZM57.0562 37.133C57.0562 36.3258 57.6616 35.5186 58.6706 35.5186C59.4777 35.5186 60.2849 36.124 60.2849 37.133C60.2849 37.9403 59.6795 38.7475 58.6706 38.7475C57.6616 38.5457 57.0562 37.9403 57.0562 37.133ZM46.9667 37.133C46.9667 36.3258 47.5721 35.5186 48.581 35.5186C49.3882 35.5186 49.9935 36.124 49.9935 37.133C49.9935 37.9403 49.3882 38.7475 48.581 38.7475C47.5721 38.5457 46.9667 37.9403 46.9667 37.133Z" fill="white"/>
<path d="M33.0434 126.939C31.2273 126.132 29.0076 126.939 28.2004 128.755C27.3933 130.572 28.4022 132.59 30.0166 133.599C30.8237 134.002 31.6309 134.002 32.438 133.801C32.8416 133.801 33.0434 133.599 33.447 133.801C34.0524 134.002 34.4559 134.81 34.0524 135.415C33.8506 136.021 33.2452 136.02 33.0434 136.222C32.8416 136.222 31.0255 136.828 29.0076 135.819C25.9807 134.406 24.5682 130.773 25.9807 127.544C27.3933 124.517 31.0255 123.105 34.2541 124.517C36.4738 125.526 37.0792 127.141 37.281 127.343C37.4828 127.544 37.6846 128.15 37.281 128.554C37.0792 129.159 36.2721 129.361 35.6667 129.159C35.2631 128.957 35.0613 128.755 35.0613 128.352C34.4559 127.948 33.8506 127.343 33.0434 126.939Z" fill="white"/>
<path d="M44.5452 140.864C43.738 140.662 43.5362 139.451 43.3344 138.644V138.24C43.1326 138.24 43.1326 138.24 42.9308 138.038L39.2986 137.029C38.6932 137.837 38.0879 139.047 37.0789 138.644C36.4736 138.442 35.8682 137.837 36.07 137.029C36.07 136.828 36.2717 136.626 36.2717 136.626L42.3255 128.15C42.729 127.746 43.1326 127.544 43.738 127.544C44.3434 127.746 44.747 128.15 44.747 128.755L46.1595 139.047C46.1595 139.249 46.1595 139.451 46.1595 139.653C45.9577 140.864 45.3523 141.066 44.5452 140.864ZM41.1147 134.809C41.1147 135.011 40.9129 135.011 40.9129 135.213L43.1326 135.818L42.7291 133.195C42.7291 132.993 42.7291 132.791 42.7291 132.791L41.1147 134.809Z" fill="white"/>
<path d="M53.2224 130.571L56.4511 136.626C56.6529 136.828 56.6529 137.029 56.8547 137.231C56.8547 137.029 57.0565 136.828 57.0565 136.626L57.46 131.177C57.46 130.37 58.0654 129.966 58.8726 129.966C59.6798 129.966 60.0833 130.571 60.0833 131.379L59.4779 140.662C59.4779 141.469 58.6708 142.276 57.8636 142.075C57.0565 142.075 56.6529 141.469 56.4511 141.066L53.2224 135.011C53.0207 134.809 53.0207 134.608 52.8189 134.406C52.8189 134.608 52.6171 134.809 52.6171 135.011L52.2135 140.46C52.2135 141.267 51.6081 141.671 50.801 141.671C49.9938 141.671 49.5902 141.066 49.5902 140.258L50.1956 130.773C50.1956 129.966 51.0028 129.159 51.8099 129.361C52.6171 129.764 53.0207 130.168 53.2224 130.571Z" fill="white"/>
<path d="M67.5496 131.782C65.5317 132.186 64.1192 133.8 64.5228 135.818C64.7245 137.837 66.7425 139.047 68.5586 138.846C69.3658 138.644 70.1729 138.24 70.7783 137.837C70.9801 137.635 71.1819 137.433 71.5855 137.433C72.1908 137.433 72.998 137.837 72.998 138.442C72.998 139.047 72.7962 139.451 72.5944 139.653C72.3926 139.855 71.1819 141.066 68.9622 141.469C65.5317 141.873 62.5048 139.451 62.1013 136.222C61.6977 132.791 64.1192 129.764 67.3479 129.361C69.7694 128.957 71.1819 129.966 71.3837 130.168C71.5855 130.37 71.9891 130.571 72.1908 131.177C72.1908 131.782 71.7873 132.589 71.1819 132.589C70.7783 132.589 70.5765 132.589 70.1729 132.388C69.3658 131.984 68.3568 131.782 67.5496 131.782Z" fill="white"/>
<path d="M77.8408 134.607C77.8408 134.809 77.8408 135.011 78.0426 135.213L78.4461 136.424C78.4461 136.626 78.6479 136.827 78.6479 136.827L81.0694 136.02C81.8766 135.818 82.6838 135.818 83.0874 136.827C83.2891 137.433 82.8855 138.24 82.2802 138.442L78.2443 139.653C77.639 139.855 76.8318 139.451 76.63 138.846L73.8049 129.764C73.6031 129.159 74.0067 128.351 74.6121 128.15L78.6479 126.939C79.2533 126.737 80.0605 127.141 80.2623 127.746C80.464 128.553 79.8587 129.159 79.0515 129.36L76.63 130.168C76.63 130.369 76.63 130.571 76.8318 130.773L77.2354 131.984C77.2354 132.186 77.4372 132.388 77.4372 132.388L80.2623 131.58C80.8676 131.379 81.6748 131.782 81.8766 132.388C82.0784 132.993 81.6748 133.8 81.0694 134.002L77.8408 134.607Z" fill="white"/>
<path d="M87.5267 130.975C87.325 130.975 87.325 130.975 87.5267 130.975L86.9214 131.177C86.9214 131.177 86.9214 131.177 86.9214 131.379L88.3339 134.406C88.7375 135.011 88.3339 135.818 87.7285 136.222C87.1231 136.626 86.316 136.222 86.1142 135.617L81.8766 127.141C81.473 126.535 81.6748 125.728 82.482 125.526L85.1053 124.113C86.9214 123.104 88.9393 123.912 89.9482 125.93C90.5536 127.141 90.5536 128.352 89.9482 129.361C89.9482 129.562 89.7464 129.562 89.7464 129.764L92.7733 131.782C92.9751 131.984 92.9751 131.984 93.1769 132.186C93.3787 132.791 93.1769 133.599 92.5715 133.8C92.1679 134.002 91.5626 134.002 91.159 133.599L87.5267 130.975ZM84.9035 126.737C84.9035 126.737 84.7017 126.737 84.7017 126.939L85.7106 129.159L87.1232 128.352C87.9303 127.948 87.7285 127.141 87.5267 126.737C87.325 126.333 86.7196 125.728 86.1142 126.132L84.9035 126.737Z" fill="white"/>
<path d="M7.01221 38.7476C6.60863 38.5458 6.40685 37.9404 6.20506 37.5367C6.20506 37.3349 5.5997 33.9041 5.39791 32.2897C5.19612 31.2806 5.19611 30.6752 4.79253 30.2716C4.18716 29.8679 3.38 30.0698 2.77462 30.6752C2.37104 31.0788 2.37104 31.886 2.77462 32.2897C3.17821 32.6933 3.17821 33.2987 2.77462 33.7023C2.37104 34.3078 1.56386 34.3078 0.958488 34.106C0.756697 34.106 0.756716 33.9042 0.756716 33.7023C-0.252239 32.2897 -0.252239 30.4734 0.756716 29.0607C1.96746 27.2444 4.38894 26.8408 6.20506 28.0516C8.02118 29.4643 7.81939 31.6842 8.22297 34.7114V35.115L10.0391 32.4915C10.4427 31.8861 11.2498 31.886 11.8552 32.0879C12.4606 32.4915 12.4606 33.2987 12.057 33.9042L9.03012 38.1422C8.82833 39.1512 7.81938 39.353 7.01221 38.7476Z" fill="white"/>
<path d="M7.41597 23.0064C7.01239 22.6028 7.01239 21.7956 7.41597 21.3919L8.8285 19.7774C9.23208 19.3738 9.83744 19.3738 10.241 19.7774L17.3037 26.639C17.9091 27.0426 17.9091 27.8499 17.3037 28.4553C16.9001 28.8589 16.093 28.8589 15.4876 28.4553L9.83745 22.8046C9.63566 22.6028 9.43386 22.401 9.23207 22.401L8.8285 22.8046C8.62671 23.6118 8.02134 23.6118 7.41597 23.0064Z" fill="white"/>
<path d="M20.5322 23.0064C20.9358 22.6028 21.743 22.8046 21.9447 23.2082C22.3483 23.6118 22.1465 24.2173 21.7429 24.6209C21.3394 25.0245 20.5322 25.0245 20.3304 24.4191C20.1286 24.2173 20.1286 23.41 20.5322 23.0064Z" fill="white"/>
<path d="M22.3482 21.1901C21.9446 20.7865 21.9446 19.9792 22.7518 19.3738C23.1554 19.172 23.559 18.9702 23.9626 19.3738C24.1644 19.5756 24.5679 19.5756 24.7697 19.3738C25.1733 19.172 25.1733 18.5665 24.9715 18.1629L20.7339 11.705C20.3303 11.0996 20.5321 10.2923 21.1375 9.8887C21.7428 9.48507 22.55 9.68689 22.9536 10.2923L27.1912 16.7503C28.2001 18.3647 27.7966 20.3829 26.1822 21.3919C25.1733 21.9973 23.7608 22.1991 22.7518 21.5937C22.7518 21.5937 22.55 21.3919 22.3482 21.1901Z" fill="white"/>
<path d="M25.7789 8.87981C25.5771 8.27438 25.7789 7.46714 26.3843 7.26533C26.9897 7.06352 27.7968 7.26533 27.9986 7.87076L31.0255 14.3287C31.4291 15.136 32.438 15.1359 33.0434 14.9341C33.6488 14.5305 34.0523 13.7233 33.8505 13.1178L30.8237 6.6599C30.6219 6.05446 30.8237 5.24722 31.4291 5.0454C32.0344 4.84359 32.8416 5.04541 33.0434 5.65084L36.0702 12.3106C36.8774 14.1269 35.8684 16.3468 33.8505 17.154C32.0344 17.9613 29.613 17.5577 28.604 15.5396L25.7789 8.87981Z" fill="white"/>
<path d="M39.097 3.02717L44.1417 7.87063C44.3435 8.07244 44.5453 8.27426 44.7471 8.27426C44.7471 8.07245 44.7471 7.87063 44.7471 7.66882L43.3346 2.42175C43.1328 1.81632 43.5364 1.00907 44.1417 0.807257C44.7471 0.605447 45.5543 1.00907 45.7561 1.6145L48.1776 10.696C48.3794 11.5032 47.774 12.5123 46.9668 12.7141C46.1596 12.9159 45.7561 12.5123 45.3525 12.3105L40.3077 7.46701C40.1059 7.2652 39.9041 7.06338 39.7024 7.06338C39.7024 7.26519 39.7024 7.46701 39.7024 7.66882L41.1149 12.9159C41.3167 13.5213 40.9131 14.3286 40.1059 14.3286C39.5006 14.5304 38.6934 14.1268 38.4916 13.5213L36.0701 4.43985C35.8683 3.63261 36.4737 2.62356 37.2808 2.42175C38.2898 2.42175 38.8952 2.82536 39.097 3.02717Z" fill="white"/>
<path d="M52.2134 7.26519C52.2134 7.467 52.2134 7.6688 52.2134 7.87061L52.4152 9.08147C52.4152 9.28328 52.4152 9.48509 52.4152 9.6869L55.0385 9.4851C55.8456 9.4851 56.6528 9.6869 56.8546 10.696C56.8546 11.5032 56.451 11.9068 55.6438 12.1086L51.4062 12.5123C50.599 12.5123 49.9937 12.1086 49.9937 11.3014L49.1865 1.8163C49.1865 1.21087 49.5901 0.40363 50.3973 0.40363L54.6349 0C55.2403 0 55.8456 0.403633 56.0474 1.21087C56.0474 2.21993 55.442 2.62354 54.4331 2.62354L51.8098 2.82535C51.8098 3.02716 51.8098 3.22898 51.8098 3.43079L52.0116 4.64164C52.0116 4.84346 52.0116 5.04526 52.0116 5.04526L55.0385 4.84345C55.6438 4.84345 56.2492 5.24707 56.451 6.05431C56.451 6.86155 56.0474 7.46699 55.2403 7.46699L52.2134 7.26519Z" fill="white"/>
<path d="M62.7065 6.25614C63.3119 6.25614 63.7155 6.65976 63.7155 7.26519C63.7155 7.87062 63.3119 8.27424 62.5047 8.27424L59.4778 8.07242C58.8725 8.07242 58.4689 7.6688 58.4689 7.06337C58.4689 6.45794 58.8725 6.05432 59.6796 6.05432L62.7065 6.25614Z" fill="white"/>
<path d="M65.5315 10.2923C65.5315 9.88869 65.9351 9.48505 66.3387 9.08143C66.5405 8.87962 69.3656 7.06333 70.7781 6.05427C71.7871 5.44884 72.1907 5.24704 72.3925 4.64161C72.5942 3.83436 71.9889 3.22893 71.1817 3.02711C70.5763 2.8253 69.971 3.22893 69.7692 3.83436C69.5674 4.23798 68.962 4.64161 68.3566 4.4398C67.7513 4.23799 67.1459 3.63255 67.3477 3.02711C67.3477 2.8253 67.3476 2.82531 67.5494 2.6235C68.3566 1.21083 69.9709 0.403584 71.5853 0.605395C73.805 1.00902 75.2175 3.02713 74.814 5.24704C74.4104 7.46696 72.1907 8.27419 69.7692 9.88868L69.3656 10.0905L72.5942 10.6959C73.1996 10.8977 73.805 11.5032 73.6032 12.1086C73.4014 12.714 72.796 13.3195 72.1907 13.1176L67.1459 12.1086C65.9351 12.1086 65.3297 11.0995 65.5315 10.2923Z" fill="white"/>
<path d="M75.2174 12.1085C75.4192 11.7049 75.8228 11.3012 76.0246 11.0994C76.2264 10.8976 79.2533 9.48495 80.8676 8.87952C81.8765 8.47589 82.2801 8.27409 82.6837 7.66865C82.8855 6.86141 82.4819 6.25597 81.8765 5.85235C81.2712 5.65054 80.6658 5.85236 80.2622 6.25598C79.8586 6.65961 79.4551 6.86141 78.8497 6.6596C78.2443 6.45779 77.8407 5.65054 78.0425 5.04511C78.0425 4.8433 78.2443 4.8433 78.2443 4.64149C79.2533 3.43063 81.0694 2.8252 82.6837 3.43063C84.7016 4.23787 85.7106 6.45779 85.1052 8.4759C84.298 10.6958 82.0783 10.8976 79.2533 12.3103L78.8497 12.5121L81.8765 13.723C82.4819 13.9248 82.8855 14.732 82.6837 15.3375C82.4819 15.9429 81.6748 16.3465 81.0694 16.1447L76.2264 14.3284C75.4192 14.1266 74.8139 12.9157 75.2174 12.1085Z" fill="white"/>
<path d="M85.5088 15.9429C86.1142 16.1448 86.1142 16.952 85.9124 17.3556C85.7106 17.9611 85.1053 18.1629 84.4999 17.7592C83.8945 17.5574 83.6927 16.952 83.8945 16.3466C84.2981 15.9429 84.9035 15.7411 85.5088 15.9429Z" fill="white"/>
<path d="M87.9303 16.9521C88.3339 16.3467 88.9392 16.1449 89.7464 16.5485C90.15 16.7503 90.3518 17.1539 90.3518 17.5575C90.3518 17.7594 90.3518 18.163 90.7553 18.3648C91.1589 18.5666 91.7643 18.5666 91.9661 18.163L96.0019 11.705C96.4055 11.0996 97.2126 10.8978 97.818 11.3014C98.4234 11.705 98.6252 12.3105 98.2216 13.1177L94.1858 19.5757C93.1769 21.1901 91.1589 21.5938 89.5446 20.5847C88.5357 19.9793 87.9303 18.7684 87.9303 17.5575C87.7285 17.3557 87.7285 17.1539 87.9303 16.9521Z" fill="white"/>
<path d="M100.643 14.7323C101.047 14.1268 101.854 14.1268 102.459 14.5304C103.065 14.9341 103.065 15.7413 102.661 16.3467L98.0199 21.7956C97.4145 22.4011 97.8181 23.4101 98.2217 23.8137C98.8271 24.2173 99.6342 24.2173 100.24 23.8137L104.881 18.3648C105.284 17.7594 106.092 17.7594 106.697 18.163C107.302 18.5666 107.302 19.3739 106.899 19.9793L102.056 25.63C100.643 27.2445 98.2217 27.0427 96.6074 25.8318C94.993 24.4192 94.3877 21.9974 95.8002 20.383L100.643 14.7323Z" fill="white"/>
<path d="M104.679 29.2625C104.477 29.4643 104.276 29.4643 104.276 29.6661L106.092 31.6842C106.495 32.2897 106.495 32.8951 105.89 33.5005C105.284 33.9042 104.679 33.9042 104.074 33.2987L101.45 30.4734C101.047 29.868 100.845 29.0607 101.45 28.6571L108.715 22.1991C109.32 21.7955 109.926 21.7955 110.531 22.401C110.935 23.0064 110.935 23.6118 110.329 24.2172L104.679 29.2625Z" fill="white"/>
<path d="M114.97 27.4463C115.374 28.0517 115.172 28.6571 114.768 29.2625L112.751 32.4915L116.585 31.4825C116.988 31.2807 117.593 31.6843 117.997 32.0879C118.401 32.6933 118.199 33.5006 117.594 33.9042C117.594 33.9042 117.392 34.106 117.19 34.106L110.733 35.3169L108.109 37.1332C107.504 37.5368 106.697 37.5368 106.293 36.9314C105.89 36.3259 106.091 35.5187 106.697 35.1151L109.32 33.2988L112.751 27.6481C112.952 27.4462 112.952 27.2444 113.154 27.2444C113.759 26.8408 114.567 26.8408 114.97 27.4463Z" fill="white"/>
</svg>
