<svg width="113" height="142" viewBox="0 0 113 142" fill="none" xmlns="http://www.w3.org/2000/svg">
<path d="M55.6325 120.257C28.1061 120.257 5.80371 97.9529 5.80371 70.4239C5.80371 42.8948 28.1061 20.5902 55.6325 20.5902C83.1589 20.5902 105.461 42.8948 105.461 70.4239C105.26 97.9529 82.958 120.257 55.6325 120.257ZM55.6325 24.81C30.5172 24.81 9.82216 45.3061 9.82216 70.6248C9.82216 95.9435 30.3163 116.44 55.6325 116.44C80.7478 116.44 101.443 95.9435 101.443 70.6248C101.443 45.3061 80.7478 24.81 55.6325 24.81Z" fill="white"/>
<path d="M64.0713 103.378C64.0713 102.575 64.674 101.771 65.6787 101.771C66.4824 101.771 67.2861 102.374 67.2861 103.378C67.2861 104.182 66.6833 104.986 65.6787 104.986C64.875 104.986 64.0713 104.383 64.0713 103.378ZM54.0252 103.378C54.0252 102.575 54.6279 101.771 55.6325 101.771C56.4362 101.771 57.2399 102.374 57.2399 103.378C57.2399 104.182 56.6371 104.986 55.6325 104.986C54.8288 104.986 54.0252 104.383 54.0252 103.378ZM43.979 103.378C43.979 102.575 44.5817 101.771 45.5864 101.771C46.3901 101.771 47.1938 102.374 47.1938 103.378C47.1938 104.182 46.591 104.986 45.5864 104.986C44.7827 104.986 43.979 104.383 43.979 103.378Z" fill="white"/>
<path d="M64.0718 37.4692C64.0718 36.6655 64.6746 35.8617 65.6792 35.8617C66.4829 35.8617 67.2866 36.4645 67.2866 37.4692C67.2866 38.273 66.6838 39.0768 65.6792 39.0768C64.8755 38.8758 64.0718 38.273 64.0718 37.4692ZM54.0257 37.4692C54.0257 36.6655 54.6284 35.8617 55.6331 35.8617C56.4368 35.8617 57.2405 36.4645 57.2405 37.4692C57.2405 38.273 56.6377 39.0768 55.6331 39.0768C54.8294 38.8758 54.0257 38.273 54.0257 37.4692ZM43.9796 37.4692C43.9796 36.6655 44.5823 35.8617 45.5869 35.8617C46.3906 35.8617 47.1943 36.4645 47.1943 37.4692C47.1943 38.273 46.5915 39.0768 45.5869 39.0768C44.7832 38.8758 43.9796 38.273 43.9796 37.4692Z" fill="white"/>
<path d="M37.1476 75.0457C37.1476 75.0457 37.1476 66.4052 37.1476 61.7835C37.1476 58.7694 34.3347 55.7553 33.1292 54.9515L35.7411 51.9374C35.942 52.1383 41.166 56.3581 41.166 61.9845C41.166 66.6061 41.166 75.2466 41.166 75.2466L37.1476 75.0457Z" fill="white"/>
<path d="M52.0159 91.322V87.3031C57.0389 87.3031 59.0481 85.0928 60.4546 81.0739C56.6371 76.8541 54.8288 70.6249 54.8288 65.8023C54.8288 57.9656 53.4223 55.3533 49.4038 55.3533C47.3946 55.3533 40.9651 55.3533 40.9651 67.2089H36.9467C36.9467 53.3439 44.7826 51.3345 49.4038 51.3345C58.8472 51.3345 58.8472 61.5825 58.8472 65.8023C58.8472 68.6155 59.8519 72.8353 61.8611 76.2513C63.0666 71.2277 64.8749 65.1995 71.9072 65.1995C78.1358 65.1995 82.1543 69.2183 82.1543 75.0456C82.1543 82.0786 78.1359 85.8965 71.1035 85.8965C68.2906 85.8965 65.6786 85.0928 63.6694 83.6862C62.062 87.9059 58.8473 91.322 52.0159 91.322ZM65.0759 79.8683C66.6832 81.0739 68.6925 81.8777 71.1035 81.8777C75.9257 81.8777 78.1359 79.6673 78.1359 75.0456C78.1359 71.4287 75.9257 69.2183 71.9072 69.2183C68.0897 69.2183 67.0851 71.6296 65.6786 77.6579C65.4777 78.2607 65.2768 79.0645 65.0759 79.8683Z" fill="white"/>
<path d="M18.0599 119.655C16.4525 118.449 14.2424 118.65 13.0368 120.257C11.8313 121.865 12.2331 124.075 13.6396 125.281C14.2424 125.683 15.0461 126.085 15.8498 126.085C16.2516 126.085 16.4525 126.085 16.8544 126.286C17.4571 126.687 17.4571 127.491 17.0553 128.094C16.6534 128.496 16.2516 128.496 15.8498 128.697C15.6488 128.697 13.8405 128.898 12.0322 127.29C9.4202 125.281 8.81744 121.262 11.0276 118.65C13.0368 116.038 17.0553 115.435 19.6673 117.645C21.4756 119.052 21.8774 120.86 21.8774 121.061C21.8774 121.463 22.0784 121.865 21.6765 122.267C21.2747 122.87 20.471 122.87 19.8682 122.468C19.6673 122.267 19.4663 122.066 19.4663 121.664C19.0645 121.061 18.6627 120.257 18.0599 119.655Z" fill="white"/>
<path d="M26.0969 135.931C25.2932 135.529 25.4941 134.323 25.4941 133.519V133.118C25.2932 133.118 25.2932 132.917 25.0922 132.917L21.8775 131.108C21.8775 131.108 21.8775 131.108 21.6766 131.108C20.8729 131.711 20.0692 132.716 19.0646 132.314C18.4618 131.912 18.06 131.309 18.4618 130.706C18.4618 130.505 18.6627 130.304 18.8637 130.304L26.6996 123.472C27.1015 123.07 27.7042 123.07 28.1061 123.271C28.7089 123.472 28.9098 124.075 28.9098 124.678L27.9052 134.926C27.9052 135.127 27.9052 135.328 27.7042 135.328C27.5033 135.931 26.6996 136.132 26.0969 135.931ZM24.0876 129.099C23.8867 129.099 23.8867 129.3 23.6858 129.3L25.695 130.304L25.896 127.692C25.896 127.491 25.896 127.29 25.896 127.29L24.0876 129.099Z" fill="white"/>
<path d="M33.732 127.29C33.9329 126.486 34.5357 126.285 35.3394 126.486L37.7505 127.29C39.7597 127.893 40.5634 129.902 39.9606 131.912C39.3578 133.921 37.3486 135.127 35.3394 134.323L34.5357 134.122C34.3348 134.122 34.3347 134.122 34.3347 134.122L33.3301 137.337C33.1292 137.94 32.3255 138.342 31.7228 138.141C31.12 137.94 30.7182 137.136 30.9191 136.534L33.732 127.29ZM35.9422 129.3H35.7412L34.9375 131.51L36.1431 131.912C36.9468 132.113 37.3486 131.51 37.5495 131.108C37.7504 130.706 37.7505 129.902 36.9468 129.702L35.9422 129.3Z" fill="white"/>
<path d="M44.5817 136.534C44.3808 136.534 44.3808 136.534 44.5817 136.534L43.979 136.333L43.3762 139.749C43.1752 140.552 42.5725 140.954 41.9697 140.753C41.367 140.552 40.7642 139.95 40.9651 139.347L42.3716 129.902C42.5725 129.099 43.1753 128.697 43.778 128.898L46.7919 129.3C48.8011 129.702 50.0066 131.51 49.8057 133.519C49.6048 134.926 48.8011 135.73 47.7965 136.333C47.5956 136.333 47.5955 136.534 47.3946 136.534L48.8011 139.95C48.8011 140.151 48.8011 140.352 48.8011 140.552C48.8011 141.155 47.9974 141.758 47.3946 141.557C46.9928 141.557 46.5909 141.155 46.39 140.753L44.5817 136.534ZM44.7827 131.711H44.5817L44.1799 134.122L45.7873 134.323C46.591 134.524 46.9928 133.72 46.9928 133.319C46.9928 132.917 46.9928 132.113 46.1891 131.912L44.7827 131.711Z" fill="white"/>
<path d="M53.2213 129.902C54.025 129.902 54.4268 130.505 54.4268 131.108L54.025 140.753C54.025 141.356 53.4222 141.959 52.6185 141.959C51.8148 141.959 51.413 141.356 51.413 140.753L51.8148 131.108C51.8148 130.304 52.4176 129.902 53.2213 129.902Z" fill="white"/>
<path d="M62.4638 132.113C60.4546 132.314 59.0481 134.122 59.2491 136.132C59.45 138.141 61.2583 139.347 63.2675 139.347C64.0712 139.347 64.8748 138.945 65.4776 138.342C65.6785 138.141 65.8795 137.94 66.2813 137.94C67.085 137.94 67.6878 138.342 67.6878 139.146C67.6878 139.749 67.4869 140.151 67.2859 140.352C67.085 140.552 65.8795 141.758 63.6693 141.959C60.2536 142.361 57.2398 139.749 57.0389 136.333C56.6371 132.917 59.249 129.903 62.6647 129.702C65.0758 129.501 66.2813 130.505 66.6831 130.706C66.8841 130.907 67.2859 131.108 67.4868 131.711C67.4868 132.515 67.085 132.917 66.2813 133.118C65.8795 133.118 65.6786 133.118 65.2767 132.917C64.0712 132.314 63.2675 131.912 62.4638 132.113Z" fill="white"/>
<path d="M73.5146 127.089C76.7294 126.085 80.1451 127.893 81.1497 131.108C82.1543 134.323 80.346 137.739 77.1313 138.744C73.9165 139.749 70.5008 137.94 69.4962 134.725C68.4916 131.51 70.2999 128.094 73.5146 127.089ZM76.5285 136.534C78.3368 135.931 79.5423 133.921 78.9396 131.912C78.3368 130.103 76.3276 128.898 74.3184 129.501C72.5101 130.103 71.3045 132.113 71.9073 134.122C72.711 135.931 74.7202 137.136 76.5285 136.534Z" fill="white"/>
<path d="M86.9763 129.702C86.7754 129.702 86.7754 129.702 86.9763 129.702L86.3735 129.903C86.3735 129.903 86.3735 129.903 86.3735 130.103L87.9809 133.118C88.3827 133.72 87.9809 134.524 87.3782 134.926C86.7754 135.328 85.9717 134.926 85.7707 134.323L81.1495 125.884C80.7477 125.281 80.9485 124.477 81.5513 124.075L84.1634 122.669C85.9717 121.664 87.9809 122.468 88.9855 124.276C89.5883 125.482 89.5883 126.687 89.1865 127.692C89.1865 127.893 88.9855 127.893 88.9855 128.094L92.2003 129.903C92.4012 130.103 92.4012 130.103 92.6021 130.304C92.803 130.907 92.8031 131.711 91.9994 132.113C91.5975 132.314 90.9947 132.314 90.5929 132.113L86.9763 129.702ZM84.1634 125.683L83.9624 125.884L85.168 128.094L86.5744 127.29C87.3781 126.888 87.1772 126.085 86.9763 125.683C86.7754 125.281 86.1726 124.678 85.3689 125.08L84.1634 125.683Z" fill="white"/>
<path d="M91.5975 118.851L98.027 121.262C98.228 121.262 98.4289 121.463 98.6298 121.463C98.6298 121.262 98.4289 121.061 98.228 120.86L94.8123 116.64C94.4104 116.038 94.4104 115.234 95.0132 114.832C95.616 114.43 96.4196 114.43 96.8215 115.033L102.648 122.267C103.251 122.87 103.05 123.874 102.447 124.477C101.845 124.879 101.242 124.879 100.84 124.678L94.4105 122.267C94.2095 122.267 94.0086 122.066 93.8076 122.066C93.8076 122.267 94.0086 122.468 94.2095 122.669L97.6252 126.888C98.027 127.491 98.0271 128.094 97.4243 128.697C96.8215 129.099 96.0178 129.099 95.6159 128.496L89.7892 121.061C89.1864 120.458 89.3873 119.454 89.9901 118.851C90.5929 118.65 91.1956 118.851 91.5975 118.851Z" fill="white"/>
<path d="M6.40654 35.6608C6.00469 35.2589 5.80379 34.857 5.80379 34.4551C5.80379 34.2542 5.40192 30.8382 5.40192 29.2306C5.40192 28.2259 5.40195 27.6231 4.79918 27.2212C4.19642 26.8193 3.39273 26.8193 2.78996 27.4221C2.38812 27.824 2.38812 28.6278 2.78996 29.0297C2.99088 29.4316 2.99087 30.0344 2.58903 30.4363C2.18718 30.8381 1.3835 31.0391 0.780738 30.6372C0.579816 30.6372 0.579804 30.4363 0.579804 30.2353C-0.223885 28.8287 -0.223873 27.0202 0.780738 25.6137C2.18719 24.0061 4.59825 23.6042 6.20563 25.0108C8.01393 26.4174 7.61209 28.6278 7.81301 31.6419V32.0438L9.82224 29.4315C10.2241 28.8287 11.0278 28.8287 11.6305 29.2306C12.2333 29.6325 12.2333 30.4363 11.8315 31.0391L8.61669 35.0579C8.21485 36.0626 7.0093 36.2636 6.40654 35.6608Z" fill="white"/>
<path d="M12.8361 28.0249C12.4342 27.623 12.4342 27.2211 12.4342 26.8192C12.4342 26.6183 12.6351 23.2023 12.8361 21.5947C13.037 20.59 13.037 19.9872 12.6351 19.5853C12.0324 18.9825 11.2287 18.9825 10.6259 19.3844C10.2241 19.7862 10.0231 20.3891 10.2241 20.9919C10.425 21.3938 10.2241 21.9966 9.82222 22.3985C9.42038 22.8004 8.41575 22.8004 8.01391 22.3985C7.81298 22.1975 7.813 22.1975 7.813 21.9966C7.21023 20.59 7.61208 18.7815 8.81761 17.5759C10.425 16.1693 12.8361 16.3702 14.2425 17.9778C15.8499 19.7862 15.0462 21.7957 14.8453 24.8098V25.2117L17.2563 23.0013C17.8591 22.5994 18.6628 22.5994 19.0646 23.2023C19.4665 23.8051 19.4665 24.6089 18.8637 25.0107L15.0462 28.4267C14.4434 28.8286 13.2379 28.6277 12.8361 28.0249Z" fill="white"/>
<path d="M20.873 20.791C21.2749 20.3891 22.0785 20.5901 22.2795 21.1929C22.6813 21.5948 22.4804 22.1976 22.0785 22.5995C21.4758 23.0014 20.873 22.8004 20.6721 22.3985C20.2703 21.7957 20.4712 21.1929 20.873 20.791Z" fill="white"/>
<path d="M19.2655 11.5476C18.8637 10.7439 19.0646 9.94009 19.8683 9.53821L22.0784 8.33254C25.0923 6.725 28.7089 7.93066 30.3163 10.9448C31.9236 13.9589 30.7181 17.5759 27.7043 18.9825L25.2932 20.1882C24.6904 20.59 23.8867 20.1882 23.4849 19.5853L19.2655 11.5476ZM22.2793 11.1458C22.0784 11.1458 22.0784 11.3467 21.8775 11.3467C21.8775 11.5476 22.0784 11.7486 22.0784 11.9495L24.6904 17.174C24.6904 17.375 24.8913 17.5759 24.8913 17.7768L26.0969 17.174C27.9052 16.1693 28.5079 14.3608 27.5033 12.5523C26.4987 10.7439 24.6904 10.141 22.8821 10.9448L22.2793 11.1458Z" fill="white"/>
<path d="M35.3394 10.5429C35.3394 10.7439 35.3394 10.9448 35.5403 11.1458L35.9422 12.3514C35.9422 12.5524 36.1431 12.7533 36.1431 12.7533L38.5542 11.9495C39.3579 11.7486 40.1616 11.7486 40.5634 12.7533C40.7643 13.3561 40.3625 14.1599 39.7597 14.3608L35.7413 15.7674C35.1385 15.9684 34.3348 15.5665 34.1339 14.9637L31.1201 5.92126C30.9192 5.31844 31.321 4.51466 31.9238 4.31372L35.9422 2.90713C36.545 2.70619 37.3486 3.10806 37.5496 3.71089C37.7505 4.51466 37.1477 5.1175 36.344 5.51939L33.933 6.32314C33.933 6.52408 33.933 6.72503 34.1339 6.92597L34.5357 8.13164C34.5357 8.33258 34.7367 8.53352 34.7367 8.53352L37.5496 7.52881C38.1523 7.32787 38.9561 7.72974 39.157 8.33256C39.3579 8.93539 38.956 9.73917 38.3532 9.94011L35.3394 10.5429Z" fill="white"/>
<path d="M46.7919 2.90716C44.7827 3.30905 43.3762 4.91659 43.7781 6.92601C43.979 8.93543 45.9882 10.1411 47.7965 9.94014C48.6002 9.7392 49.4039 9.33731 50.0066 8.73448C50.2076 8.53354 50.4085 8.3326 50.8103 8.3326C51.4131 8.3326 52.2168 8.73448 52.2168 9.33731C52.2168 9.94014 52.0158 10.342 51.8149 10.543C51.614 10.7439 50.6094 12.1505 48.1984 12.3514C44.7827 12.7533 41.7689 10.543 41.1661 7.12696C40.7643 3.71094 42.9744 0.696809 46.39 0.0939825C48.8011 -0.307902 50.2075 0.696797 50.4084 0.89774C50.6094 1.09868 51.0113 1.29962 51.2122 1.90245C51.2122 2.50528 50.8103 3.30904 50.2076 3.30904C49.8057 3.30904 49.6048 3.30906 49.203 3.10812C48.3993 2.90718 47.5956 2.70622 46.7919 2.90716Z" fill="white"/>
<path d="M58.2446 6.32312C58.8474 6.32312 59.2492 6.725 59.2492 7.32782C59.2492 7.93064 58.8474 8.33252 58.2446 8.33252H55.2308C54.628 8.33252 54.2262 7.93064 54.2262 7.32782C54.2262 6.725 54.628 6.32312 55.2308 6.32312H58.2446Z" fill="white"/>
<path d="M64.0714 1.50068C64.2723 0.897856 64.6741 0.495972 65.4778 0.495972L67.688 0.89785C68.2908 0.89785 68.6926 1.50069 68.4917 2.10351L66.8843 11.7487C66.6834 12.3515 66.0806 12.9544 65.4778 12.7534C64.8751 12.5525 64.2723 11.9497 64.4732 11.3468L65.6788 3.5101C65.6788 3.30916 65.8797 2.90727 65.6788 2.90727H65.277C64.4733 2.70633 64.0714 2.10351 64.0714 1.50068Z" fill="white"/>
<path d="M79.3415 10.543L74.5193 14.3609C74.1175 14.5618 73.7157 14.7628 73.3138 14.5618C72.7111 14.3609 72.3092 13.5571 72.5101 12.9543C72.5101 12.7533 72.7111 12.5524 72.912 12.3515L74.3185 11.3467C74.5194 11.1458 74.5193 11.1458 74.7203 10.9449C72.711 9.94015 71.7065 7.93073 72.3092 5.9213C73.1129 3.71093 75.524 2.50527 77.7341 3.30904C79.9443 4.11281 81.1498 6.52412 80.3461 8.73448C80.3461 9.53825 79.9443 10.1411 79.3415 10.543ZM77.1314 5.72035C76.1268 5.31846 75.323 5.92129 74.9212 6.72506C74.5194 7.72977 75.1221 8.53355 75.9258 8.93544C76.9304 9.33732 77.7341 8.73448 78.136 7.72977C78.5378 7.12694 78.136 6.12223 77.1314 5.72035Z" fill="white"/>
<path d="M81.1496 15.5665C81.7524 15.7674 81.7524 16.5712 81.5515 16.9731C81.3505 17.5759 80.7478 17.7768 80.145 17.375C79.5422 17.174 79.3413 16.5712 79.5422 15.9684C79.944 15.5665 80.5469 15.3656 81.1496 15.5665Z" fill="white"/>
<path d="M83.5607 16.3703C83.9626 15.7675 84.5654 15.5665 85.3691 15.9684C85.7709 16.1694 85.9718 16.5712 85.9718 16.9731C85.9718 17.1741 86.1728 17.5759 86.3737 17.7769C86.7755 17.9778 87.3783 17.7769 87.5792 17.375L91.3968 10.7439C91.7986 10.1411 92.6023 9.94014 93.2051 10.342C93.8078 10.7439 94.0087 11.3467 93.6069 11.9496L89.7894 18.5807C88.7847 20.1882 86.7755 20.791 85.1681 19.7863C84.1635 19.1835 83.5607 17.9778 83.5607 16.7722C83.3598 16.7722 83.3598 16.5712 83.5607 16.3703Z" fill="white"/>
<path d="M95.4153 27.623C94.8126 27.0202 95.0135 26.0154 95.4153 25.0107V24.6089C95.2144 24.4079 95.2144 24.4079 95.0135 24.4079L92.2006 21.9966C92.2006 21.9966 92.2006 21.9966 91.9996 21.9966C90.995 22.3985 89.9904 23.2023 89.1867 22.5994C88.584 22.1975 88.584 21.3938 88.9858 20.7909C89.1867 20.59 89.1868 20.59 89.3877 20.3891L98.4292 15.3655C99.0319 15.1646 99.4337 15.1646 99.8356 15.5665C100.237 15.9683 100.438 16.3702 100.237 16.973L97.2236 26.8192C97.2236 27.0201 97.0227 27.0202 97.0227 27.2211C96.8218 28.0249 96.0181 28.0249 95.4153 27.623ZM94.8125 20.59C94.6116 20.59 94.6116 20.7909 94.4107 20.7909L96.219 22.1976L97.0227 19.7862C97.0227 19.5853 97.0227 19.5853 97.2236 19.3843L94.8125 20.59Z" fill="white"/>
<path d="M108.073 24.4079L105.863 31.039C105.863 31.24 105.662 31.4409 105.662 31.6419C105.863 31.6419 106.064 31.4409 106.265 31.24L110.484 27.8239C111.087 27.4221 111.69 27.4221 112.293 28.0249C112.695 28.6277 112.695 29.4315 112.092 29.8334L104.859 35.8616C104.256 36.4645 103.251 36.2635 102.648 35.6607C102.247 35.0579 102.247 34.4551 102.448 34.0532L104.658 27.4221C104.658 27.2211 104.859 27.0202 104.859 26.8192C104.658 26.8192 104.457 27.0202 104.256 27.2211L100.036 30.6372C99.4337 31.039 98.8309 31.039 98.2281 30.4362C97.8263 29.8334 97.8263 29.0296 98.4291 28.6277L105.662 22.5995C106.265 21.9966 107.27 22.1976 107.872 22.8004C108.274 23.4032 108.073 24.006 108.073 24.4079Z" fill="white"/>
</svg>
