<svg width="113" height="143" viewBox="0 0 113 143" fill="none" xmlns="http://www.w3.org/2000/svg">
<path d="M43.9421 87.3619C37.9195 87.3619 33.1014 82.5434 33.1014 76.5202C33.1014 70.497 37.9195 65.6785 43.9421 65.6785C49.9647 65.6785 54.7828 70.497 54.7828 76.5202C54.7828 82.3426 49.9647 87.3619 43.9421 87.3619ZM43.9421 69.4932C40.1278 69.4932 37.1165 72.5048 37.1165 76.3194C37.1165 80.1341 40.1278 83.1457 43.9421 83.1457C47.7564 83.1457 50.7677 80.1341 50.7677 76.3194C50.7677 72.7055 47.7564 69.4932 43.9421 69.4932Z" fill="white"/>
<path d="M67.2296 95.7942C65.2221 95.7942 63.8168 95.1919 62.6123 93.9873C60.6048 91.9796 60.0025 88.5664 60.404 82.5432C60.6048 78.327 61.8093 73.7092 62.8131 69.0915C64.6199 61.4621 66.4266 53.8327 63.8168 50.6204C62.8131 49.4157 61.2071 48.8134 58.798 48.8134C52.9762 48.8134 51.9724 51.4235 51.9724 55.6397C51.9724 58.6513 52.5747 61.6629 53.3777 64.8752C54.1807 68.2884 54.9837 71.9023 54.9837 76.1185H50.9686C50.9686 72.3038 50.1656 69.0915 49.5634 65.6783C48.9611 62.466 48.1581 59.2536 48.1581 55.6397C48.1581 48.4119 51.7716 44.798 58.9988 44.798C62.6123 44.798 65.4229 46.0026 67.2296 48.0103C71.044 52.8289 69.0364 61.0606 66.8281 69.8946C65.8244 74.3116 64.6198 78.9293 64.4191 82.744C64.2183 87.161 64.6199 89.9718 65.6236 91.1764C65.8244 91.3772 66.4266 91.7788 67.4304 91.7788C70.2409 91.7788 70.6425 90.5741 71.044 89.3695L75.059 90.1726C74.0553 93.7865 71.4455 95.7942 67.2296 95.7942Z" fill="white"/>
<path d="M55.9871 119.887C28.4839 119.887 6.20032 97.6012 6.20032 70.0953C6.20032 42.5895 28.4839 20.3037 55.9871 20.3037C83.4903 20.3037 105.774 42.5895 105.774 70.0953C105.774 97.6012 83.4903 119.887 55.9871 119.887ZM55.9871 24.5199C30.893 24.5199 10.2154 44.9988 10.2154 70.2961C10.2154 95.3927 30.6922 116.072 55.9871 116.072C81.282 116.072 101.759 95.5935 101.759 70.2961C101.759 44.9988 81.282 24.5199 55.9871 24.5199Z" fill="white"/>
<path d="M87.5055 80.3346C87.5055 79.5315 88.1078 78.7284 89.1115 78.7284C89.9145 78.7284 90.7176 79.3307 90.7176 80.3346C90.7176 81.1377 90.1153 81.9408 89.1115 81.9408C88.3085 81.74 87.5055 81.1377 87.5055 80.3346ZM87.5055 70.296C87.5055 69.4929 88.1078 68.6898 89.1115 68.6898C89.9145 68.6898 90.7176 69.2921 90.7176 70.296C90.7176 71.0991 90.1153 71.9021 89.1115 71.9021C88.3085 71.7014 87.5055 71.0991 87.5055 70.296ZM87.5055 60.2573C87.5055 59.4542 88.1078 58.6511 89.1115 58.6511C89.9145 58.6511 90.7176 59.2534 90.7176 60.2573C90.7176 61.0604 90.1153 61.8635 89.1115 61.8635C88.3085 61.6627 87.5055 61.0604 87.5055 60.2573Z" fill="white"/>
<path d="M21.6583 80.3346C21.6583 79.5315 22.2606 78.7284 23.0636 78.7284C23.8666 78.7284 24.6696 79.3307 24.6696 80.3346C24.6696 81.1377 24.0674 81.9408 23.0636 81.9408C22.2606 81.74 21.6583 81.1377 21.6583 80.3346ZM21.6583 70.296C21.6583 69.4929 22.2606 68.6898 23.0636 68.6898C23.8666 68.6898 24.6696 69.2921 24.6696 70.296C24.6696 71.0991 24.0674 71.9021 23.0636 71.9021C22.2606 71.7014 21.6583 71.0991 21.6583 70.296ZM21.6583 60.2573C21.6583 59.4542 22.2606 58.6511 23.0636 58.6511C23.8666 58.6511 24.6696 59.2534 24.6696 60.2573C24.6696 61.0604 24.0674 61.8635 23.0636 61.8635C22.2606 61.6627 21.6583 61.0604 21.6583 60.2573Z" fill="white"/>
<path d="M43.1389 137.354C43.1389 137.555 42.9382 137.756 43.1389 137.956L45.7487 138.358C46.5517 138.559 46.9532 139.161 46.7525 139.763C46.5517 140.366 45.9495 140.968 45.3472 140.767L41.5329 140.165C40.7299 139.964 40.3284 139.362 40.3284 138.76L42.1352 129.323C42.3359 128.52 42.9382 128.119 43.5404 128.319C44.1427 128.52 44.745 129.122 44.5442 129.725L43.1389 137.354Z" fill="white"/>
<path d="M52.1726 136.952C52.1726 137.153 52.1726 137.354 52.1726 137.555V138.759C52.1726 138.96 52.1726 139.161 52.1726 139.362L54.7824 139.563C55.5855 139.563 56.3885 139.964 56.3885 140.968C56.3885 141.771 55.7862 142.173 54.9832 142.173L50.7674 141.972C49.9644 141.972 49.5629 141.369 49.5629 140.566L49.9644 131.13C49.9644 130.528 50.5666 129.925 51.3696 129.925L55.5855 130.126C56.1877 130.126 56.79 130.729 56.79 131.532C56.79 132.535 55.987 132.736 55.1839 132.736L52.5742 132.535C52.5742 132.736 52.5742 132.937 52.5742 133.138V134.342C52.5742 134.543 52.5742 134.744 52.5742 134.744L55.5855 134.945C56.1877 134.945 56.79 135.547 56.79 136.35C56.79 137.153 56.1877 137.555 55.3847 137.555L52.1726 136.952Z" fill="white"/>
<path d="M64.0174 129.122C67.4302 128.721 70.4415 131.13 70.843 134.342C71.2445 137.756 69.0362 140.767 65.6234 141.169C62.2106 141.57 59.1993 139.161 58.7978 135.949C58.3963 132.736 60.6046 129.524 64.0174 129.122ZM65.4227 138.76C67.4302 138.559 68.8355 136.752 68.434 134.744C68.2332 132.736 66.4264 131.331 64.4189 131.532C62.4114 131.732 61.0061 133.539 61.4076 135.547C61.6084 137.756 63.4152 139.161 65.4227 138.76Z" fill="white"/>
<path d="M6.40109 36.5661C5.99959 36.1645 5.79883 35.763 5.79883 35.3614C5.79883 35.1607 5.39732 31.7475 5.19656 30.1414C5.19656 29.1375 5.19657 28.5352 4.59432 28.1336C3.99206 27.7321 3.18905 27.7321 2.58679 28.3344C2.18528 28.7359 2.18528 29.539 2.58679 29.9406C2.78754 30.3421 2.78754 30.9444 2.58679 31.346C2.18528 31.7475 1.38227 31.9483 0.780011 31.5468C0.579258 31.5468 0.579261 31.346 0.579261 31.1452C-0.22375 29.7398 -0.223753 27.9329 0.780011 26.5274C2.18528 24.9213 4.59431 24.5197 6.20033 25.9251C8.0071 27.3305 7.6056 29.539 7.80636 32.5506V32.9522L9.81388 30.3421C10.2154 29.7398 11.0184 29.7398 11.6207 30.1414C12.2229 30.5429 12.2229 31.346 11.8214 31.9483L8.60937 35.9638C8.20786 36.9676 7.2041 36.9676 6.40109 36.5661Z" fill="white"/>
<path d="M7.80645 22.1105C7.00344 21.1066 7.40495 19.5005 8.40872 18.4966C9.61324 17.2919 11.6208 17.4927 12.6245 18.6974C13.026 19.2997 13.4276 19.902 13.4276 20.5043V20.7051C13.4276 20.7051 13.4275 20.7051 13.6283 20.7051C14.8328 20.5043 16.2381 21.1066 17.0411 21.9097C18.4464 23.5159 18.4464 26.126 16.8404 27.5314C15.4351 28.736 13.026 28.9368 11.8215 27.5314C11.42 26.9291 11.2193 26.3267 11.8215 25.9252C13.026 24.9213 14.0298 26.7283 15.2343 25.7244C15.8366 25.1221 15.8366 24.1182 15.2343 23.5159C14.6321 22.9136 13.6283 22.7128 13.026 23.1144C12.4238 23.5159 11.8215 23.5159 11.42 22.9136C10.617 21.9097 11.8215 21.1066 11.2193 20.3035C11.0185 20.1028 10.4162 20.1028 10.2155 20.3035C9.81398 20.7051 10.2155 21.5082 9.61324 22.1105C8.81022 22.7128 8.20796 22.5121 7.80645 22.1105Z" fill="white"/>
<path d="M20.6545 21.5083C21.056 21.1068 21.859 21.3075 22.0598 21.7091C22.4613 22.1106 22.2606 22.7129 21.859 23.1145C21.2568 23.516 20.6545 23.3153 20.4538 22.9137C20.253 22.5122 20.253 21.9098 20.6545 21.5083Z" fill="white"/>
<path d="M22.6619 19.7012C22.4612 19.0989 22.4612 18.4966 23.0634 18.095C23.4649 17.8942 23.8664 17.6935 24.268 18.095C24.4687 18.2958 24.8702 18.2958 25.071 18.095C25.4725 17.8942 25.6732 17.2919 25.2717 16.8904L21.4574 10.2649C21.0559 9.66257 21.2567 8.85947 21.8589 8.45793C22.4612 8.05638 23.2642 8.25716 23.6657 8.85948L27.48 15.485C28.4838 17.0911 27.8815 19.0989 26.2755 20.1027C25.2717 20.7051 23.8665 20.7051 22.8627 20.1027C22.8627 20.1027 22.8627 19.902 22.6619 19.7012Z" fill="white"/>
<path d="M26.677 7.65499C26.4763 7.05267 26.677 6.24957 27.48 6.0488C28.0823 5.84803 28.8853 6.04881 29.0861 6.65113L31.6959 13.2766C31.8966 14.0797 32.9004 14.2805 33.7034 13.8789C34.3057 13.6782 34.7072 12.8751 34.5064 12.072L31.8966 5.44648C31.6959 4.84416 31.8966 4.04108 32.6996 3.84031C33.3019 3.63953 34.1049 3.8403 34.3056 4.44261L37.1162 11.2689C37.9192 13.2766 36.7147 15.2843 34.7072 16.0874C32.6996 16.8905 30.2906 16.2882 29.6883 14.2805L26.677 7.65499Z" fill="white"/>
<path d="M41.332 10.6666C41.332 10.8674 41.3321 11.0682 41.5328 11.2689L44.1426 10.6666C44.9456 10.4658 45.5479 10.8674 45.7486 11.6705C45.9494 12.2728 45.5479 13.0759 44.7449 13.2767L40.9305 14.0797C40.1275 14.2805 39.5253 13.879 39.3245 13.2767L37.1162 3.84034C36.9155 3.03724 37.317 2.43492 38.12 2.23415C38.7222 2.03337 39.5253 2.43492 39.726 3.23801L41.332 10.6666Z" fill="white"/>
<path d="M44.745 0.828607C45.3472 0.828607 45.7487 1.23015 46.1502 1.83247L47.957 5.04483L48.9608 1.02938C48.9608 0.627831 49.563 0.226286 50.1653 0.0255127C50.9683 0.0255127 51.3698 0.427055 51.5706 1.23015C51.5706 1.43092 51.5706 1.6317 51.5706 1.83247L49.7638 8.05643L50.1653 11.068C50.1653 11.8711 49.7638 12.4734 49.1615 12.4734C48.5593 12.4734 47.7563 12.0719 47.7563 11.2688L47.3547 8.25719L44.1427 2.63557C43.9419 2.43479 43.9419 2.23401 43.9419 2.03324C43.5404 1.6317 43.9419 0.828607 44.745 0.828607Z" fill="white"/>
<path d="M56.3885 6.45032C56.9907 6.45032 57.3923 6.85186 57.3923 7.45418C57.3923 8.0565 56.9907 8.45805 56.3885 8.45805H53.3772C52.7749 8.45805 52.3734 8.0565 52.3734 7.45418C52.3734 6.85186 52.7749 6.45032 53.3772 6.45032H56.3885Z" fill="white"/>
<path d="M59.1991 10.265C59.1991 9.86344 59.6006 9.4619 59.8014 9.06035C60.0021 8.85958 62.6119 6.85185 64.0172 5.84799C64.8202 5.24567 65.4224 5.0449 65.4224 4.2418C65.4224 3.43871 65.0209 2.83641 64.2179 2.63563C63.6157 2.63563 63.0134 2.83639 62.8127 3.43871C62.6119 3.84026 62.0096 4.24181 61.6081 4.04103C61.0059 4.04103 60.4036 3.23795 60.6044 2.63563C60.6044 2.43486 60.6044 2.43485 60.8051 2.23408C61.4074 0.828669 63.0134 -0.175191 64.8202 0.0255819C67.0285 0.226355 68.4337 2.23408 68.233 4.44257C68.0322 6.65107 65.8239 7.45416 63.4149 9.46189L63.0134 9.66267L66.2254 10.0642C66.8277 10.0642 67.43 10.8673 67.43 11.4696C67.43 12.0719 66.627 12.6743 66.0247 12.4735L61.0059 11.8712C59.8014 12.0719 59.1991 11.2688 59.1991 10.265Z" fill="white"/>
<path d="M69.0361 11.6704C69.2368 11.2689 69.4376 10.8674 69.8391 10.6666C70.0399 10.4658 73.0512 8.85962 74.4564 8.2573C75.4602 7.85575 75.8617 7.65498 76.0625 7.05266C76.2632 6.24957 75.8617 5.64725 75.0587 5.24571C74.4564 5.04493 73.8542 5.24571 73.4527 5.84803C73.0512 6.24958 72.6497 6.45034 72.0474 6.24957C71.4451 6.0488 71.0436 5.44649 71.2444 4.6434C71.2444 4.44262 71.4451 4.44262 71.4451 4.24184C72.4489 2.83643 74.0549 2.23413 75.661 2.63567C77.6685 3.23799 78.873 5.44648 78.2707 7.4542C77.6685 9.6627 75.4602 10.0642 72.6497 11.4697L72.2481 11.6704L75.4602 12.6743C76.0625 12.8751 76.464 13.6782 76.2632 14.2805C76.0625 14.8828 75.4602 15.2843 74.6572 15.0836L69.8391 13.6782C69.4376 13.4774 68.8353 12.4735 69.0361 11.6704Z" fill="white"/>
<path d="M79.4752 14.6819C80.0774 14.8827 80.2782 15.485 80.0775 16.0873C79.8767 16.6897 79.2744 16.8904 78.6722 16.6897C78.0699 16.4889 77.8692 15.8866 78.0699 15.2843C78.2707 14.8827 78.8729 14.4812 79.4752 14.6819Z" fill="white"/>
<path d="M88.7098 21.9098C87.9068 21.5083 88.1075 20.3036 88.3083 19.5005V19.099C88.1075 19.099 88.1075 18.8982 87.9068 18.8982L84.6947 17.0913C84.6947 17.0913 84.6947 17.0913 84.494 17.0913C83.4902 17.6936 82.6872 18.6975 81.8842 18.0951C81.2819 17.6936 81.0812 17.0913 81.4827 16.2882C81.6834 16.0874 81.6835 16.0874 81.8842 15.8866L90.1151 9.46193C90.7173 9.06038 91.1188 9.06038 91.5203 9.46193C91.9218 9.6627 92.3234 10.265 92.1226 10.8673L90.5166 21.1067C90.5166 21.3075 90.5166 21.5083 90.3158 21.5083C90.1151 22.3114 89.5128 22.3114 88.7098 21.9098ZM87.1038 15.0836C86.903 15.0836 86.903 15.2843 86.7023 15.2843L88.7098 16.489L89.1113 13.8789C89.1113 13.6782 89.1113 13.4774 89.1113 13.4774L87.1038 15.0836Z" fill="white"/>
<path d="M97.3422 14.682C97.7437 14.0797 98.5467 14.0797 99.1489 14.4813C99.7512 14.8828 99.7512 15.6859 99.3497 16.2882L94.7324 21.7091C94.1301 22.3114 94.5316 23.3153 95.1339 23.7168C95.7361 24.1183 96.5391 24.1183 97.1414 23.7168L101.759 18.2959C102.16 17.6936 102.963 17.6936 103.565 18.0952C104.168 18.4967 104.168 19.2998 103.766 19.9021L98.9482 25.5237C97.5429 27.1299 95.1339 26.9292 93.5278 25.7245C91.9218 24.3191 91.3196 21.9098 92.7248 20.3037L97.3422 14.682Z" fill="white"/>
<path d="M106.376 35.9639C106.175 36.1646 105.774 36.3654 105.372 36.3654C104.77 36.3654 102.763 35.5623 101.357 33.7554C99.1491 31.1453 99.5506 27.3306 102.16 25.1221C104.77 22.9136 108.584 23.3152 110.793 25.9252C112.198 27.7322 112.198 29.3384 112.198 29.7399C112.198 30.1415 112.198 30.543 111.797 30.9446C111.395 31.3461 110.391 31.3461 109.99 30.7438C109.789 30.3422 109.588 30.1415 109.588 29.7399C109.588 28.9368 109.387 28.1337 108.785 27.3306C107.581 25.7245 105.172 25.5237 103.766 26.9291C102.16 28.1337 101.96 30.3422 103.365 32.1492C104.369 33.3538 105.172 33.5546 105.372 33.3538L105.975 32.7515C105.975 32.7515 105.975 32.7515 105.975 32.5507L104.77 31.1453C104.369 30.543 104.369 29.7399 104.971 29.3384C105.573 28.9368 106.376 28.9368 106.778 29.5391L108.986 32.1492C109.588 32.7515 109.387 33.3538 108.785 33.7554L106.376 35.9639Z" fill="white"/>
</svg>
