<svg width="112" height="143" viewBox="0 0 112 143" fill="none" xmlns="http://www.w3.org/2000/svg">
<path d="M55.1903 120.341C27.6742 120.341 5.38019 98.0448 5.38019 70.5261C5.38019 43.0074 27.6742 20.7112 55.1903 20.7112C82.7063 20.7112 105 43.0074 105 70.5261C105 98.0448 82.7063 120.341 55.1903 120.341ZM55.1903 24.9294C30.0844 24.9294 9.39713 45.4178 9.39713 70.7269C9.39713 96.0361 29.8835 116.525 55.1903 116.525C80.497 116.525 100.983 96.0361 100.983 70.7269C100.983 45.4178 80.497 24.9294 55.1903 24.9294Z" fill="white"/>
<path d="M63.8267 103.468C63.8267 102.665 64.4293 101.861 65.4335 101.861C66.2369 101.861 67.0403 102.464 67.0403 103.468C67.0403 104.272 66.4377 105.075 65.4335 105.075C64.4293 105.075 63.8267 104.473 63.8267 103.468ZM53.7844 103.468C53.7844 102.665 54.3869 101.861 55.3911 101.861C56.1945 101.861 56.9979 102.464 56.9979 103.468C56.9979 104.272 56.3954 105.075 55.3911 105.075C54.3869 105.075 53.7844 104.473 53.7844 103.468ZM43.742 103.468C43.742 102.665 44.3445 101.861 45.3488 101.861C46.1522 101.861 46.9556 102.464 46.9556 103.468C46.9556 104.272 46.353 105.075 45.3488 105.075C44.3445 105.075 43.742 104.473 43.742 103.468Z" fill="white"/>
<path d="M63.8268 37.584C63.8268 36.7805 64.4294 35.9771 65.4336 35.9771C66.237 35.9771 67.0404 36.5797 67.0404 37.584C67.0404 38.3875 66.4378 39.1909 65.4336 39.1909C64.4294 38.9901 63.8268 38.3875 63.8268 37.584ZM53.7845 37.584C53.7845 36.7805 54.387 35.9771 55.3913 35.9771C56.1946 35.9771 56.998 36.5797 56.998 37.584C56.998 38.3875 56.3955 39.1909 55.3913 39.1909C54.387 38.9901 53.7845 38.3875 53.7845 37.584ZM43.7421 37.584C43.7421 36.7805 44.3447 35.9771 45.3489 35.9771C46.1523 35.9771 46.9557 36.5797 46.9557 37.584C46.9557 38.3875 46.3531 39.1909 45.3489 39.1909C44.3447 38.9901 43.7421 38.3875 43.7421 37.584Z" fill="white"/>
<path d="M79.4925 84.9884H30.8875V89.0057H79.4925V84.9884Z" fill="white"/>
<path d="M79.4926 79.1633H63.6257C62.8223 79.1633 62.0189 78.5607 61.8181 77.7572C61.6172 76.9537 61.8181 75.9494 62.4206 75.5477C65.2325 73.3382 67.0401 69.9234 67.0401 66.1069C67.0401 59.4783 61.8181 54.2558 55.1901 54.2558C48.5622 54.2558 43.3401 59.4783 43.3401 66.1069C43.3401 69.7225 44.9469 73.1373 47.9596 75.5477C48.5622 76.1503 48.9639 76.9537 48.5622 77.7572C48.3613 78.5607 47.5579 79.1633 46.7545 79.1633H30.8876V75.1459H42.1351C40.3274 72.5347 39.3232 69.5217 39.3232 66.3078C39.3232 57.4697 46.3529 50.4393 55.1901 50.4393C64.0274 50.4393 71.057 57.4697 71.057 66.3078C71.057 69.5217 70.0528 72.5347 68.2452 75.1459H79.4926V79.1633Z" fill="white"/>
<path d="M35.1057 136.009C35.1057 136.209 34.9048 136.41 34.9048 136.611L37.315 137.415C38.1184 137.616 38.3192 138.218 38.1184 139.022C37.9175 139.624 37.315 140.026 36.5116 139.825L32.8964 138.821C32.093 138.62 31.6913 138.017 31.8921 137.214L34.704 127.974C34.9048 127.17 35.5074 126.97 36.3108 127.17C36.9133 127.371 37.315 127.974 37.1141 128.777L35.1057 136.009Z" fill="white"/>
<path d="M44.3446 128.978C45.148 129.179 45.5497 129.782 45.3489 130.384L43.5412 139.825C43.3404 140.428 42.7378 141.03 42.1353 140.83C41.5328 140.629 40.9302 140.026 41.1311 139.423L42.9387 129.983C42.9387 129.38 43.5412 128.978 44.3446 128.978Z" fill="white"/>
<path d="M47.7589 141.834C46.9555 141.834 46.5538 141.231 46.5538 140.428L47.1563 130.987C47.1563 130.184 47.7589 129.782 48.5622 129.782L50.7716 129.983C52.5792 130.184 53.9851 131.791 53.7843 133.598C53.7843 134.402 53.3826 135.004 52.9809 135.607C53.7843 136.41 54.186 137.415 54.186 138.62C53.9851 140.629 52.1775 142.236 50.169 142.236L47.7589 141.834ZM49.5665 136.611C49.1648 136.611 49.3656 136.611 49.1648 136.812L48.9639 139.022V139.223H50.169C50.9724 139.223 51.5749 138.62 51.5749 138.017C51.5749 137.214 51.1733 136.611 50.3699 136.611H49.5665ZM51.3741 133.598C51.3741 132.996 50.9724 132.594 50.3699 132.594H49.7673C49.5665 132.594 49.5665 132.795 49.5665 132.996V134.402C49.5665 134.603 49.5665 134.603 49.5665 134.804H50.3699C50.9724 134.402 51.3741 134 51.3741 133.598Z" fill="white"/>
<path d="M60.2114 137.415C60.0106 137.214 60.2114 137.214 60.2114 137.415H59.408C59.408 137.415 59.408 137.415 59.408 137.616L59.6089 141.03C59.6089 141.834 59.2072 142.436 58.4038 142.436C57.6004 142.436 57.1987 141.834 56.9978 141.231L56.1945 131.79C56.1945 130.987 56.5962 130.384 57.3995 130.384L60.4122 130.183C62.4207 129.983 64.0275 131.59 64.2283 133.598C64.4292 135.004 63.8266 136.009 63.0233 136.812C63.0233 137.013 62.8224 137.013 62.8224 137.013L64.8309 140.026C65.0317 140.227 65.0317 140.428 65.0317 140.629C65.0317 141.231 64.63 141.834 63.8267 142.035C63.425 142.035 62.8224 141.834 62.6216 141.432L60.2114 137.415ZM59.2072 132.594H59.0063L59.2072 135.004L60.8139 134.803C61.6173 134.803 61.8182 133.799 61.8182 133.397C61.8182 132.996 61.4165 132.192 60.6131 132.393L59.2072 132.594Z" fill="white"/>
<path d="M77.2835 138.821C76.4801 139.022 75.6767 138.218 75.275 137.415L75.0742 137.214C74.8733 137.214 74.8733 137.214 74.6725 137.214L71.0572 138.218C70.8564 139.223 70.8564 140.428 69.8521 140.83C69.2496 141.03 68.4462 140.629 68.2454 140.026C68.2454 139.825 68.2454 139.624 68.2454 139.423L69.4504 129.179C69.6513 128.577 69.8521 128.175 70.4547 127.974C71.0572 127.773 71.4589 127.974 71.8606 128.376L78.0869 136.611C78.0869 136.812 78.2877 136.812 78.2877 137.013C78.4886 138.017 78.0869 138.62 77.2835 138.821ZM71.2581 135.205C71.2581 135.406 71.2581 135.406 71.2581 135.607L73.4674 135.004L71.8606 132.795C71.8606 132.594 71.6598 132.594 71.6598 132.393L71.2581 135.205Z" fill="white"/>
<path d="M6.58538 34.9728C6.18369 34.571 5.98284 34.1693 5.98284 33.7676C5.98284 33.5667 5.58115 30.152 5.58115 28.545C5.58115 27.5407 5.58115 26.9381 4.97861 26.5364C4.37607 26.1346 3.57268 26.1346 2.97014 26.7372C2.56844 27.139 2.56844 27.9424 2.76929 28.3442C2.97014 28.7459 2.97014 29.3485 2.56844 29.7502C2.16675 30.152 1.36336 30.3528 0.76082 29.9511C0.559973 29.7502 0.559973 29.7502 0.559973 29.5494C-0.243415 28.1433 -0.243415 26.3355 0.961667 24.9294C2.3676 23.3225 4.77776 23.1216 6.38454 24.5277C8.19216 25.9338 7.58962 28.1433 7.99131 31.1563V31.558L9.99978 28.9468C10.4015 28.3442 11.2049 28.3442 11.8074 28.7459C12.41 29.1476 12.4099 29.9511 12.0083 30.5537L8.7947 34.571C8.39301 35.5754 7.18793 35.5754 6.58538 34.9728Z" fill="white"/>
<path d="M8.39299 20.7113C7.5896 19.707 8.19214 17.8992 8.99553 17.2966C10.2006 16.2923 12.2091 16.2923 13.2133 17.6983C13.615 18.3009 14.0167 18.9035 14.0167 19.5061V19.707C14.0167 19.707 14.0167 19.707 14.2176 19.707C15.4226 19.5061 16.8286 20.1087 17.632 21.1131C19.0379 22.72 18.837 25.3313 17.2303 26.7373C15.8243 27.9425 13.4142 27.9425 12.2091 26.5365C11.8074 25.9339 11.6065 25.3312 12.2091 24.9295C13.4142 23.9252 14.4184 25.9339 15.6235 24.7287C16.226 24.1261 16.226 23.3226 15.6235 22.5191C15.0209 21.9165 14.2176 21.7157 13.4142 22.1174C13.0125 22.1174 12.2091 22.1174 11.8074 21.7157C11.004 20.7113 12.2091 19.9079 11.6065 19.1044C11.4057 18.9035 10.8032 18.7027 10.6023 19.1044C10.2006 19.5061 10.6023 20.3096 9.99976 20.9122C9.39722 21.3139 8.79468 21.1131 8.39299 20.7113Z" fill="white"/>
<path d="M21.2471 20.5104C21.6488 20.1087 22.4522 20.3095 22.653 20.9121C23.0547 21.3139 22.8538 21.9165 22.4522 22.3182C21.8496 22.7199 21.2471 22.5191 21.0462 22.1173C20.6445 21.5147 20.8454 20.9121 21.2471 20.5104Z" fill="white"/>
<path d="M23.8581 16.8948C24.8624 16.2922 25.4649 17.4974 26.4692 16.8948C26.8708 16.6939 27.0717 16.0913 26.8708 15.4887C26.4691 14.6853 25.6658 14.6853 24.8624 14.8861C23.0547 15.2879 21.448 14.6853 20.6446 13.0783C19.6403 11.0697 20.042 9.2619 22.0505 8.25756C23.0548 7.65497 24.6615 7.65496 25.6658 8.65929C25.8666 8.65929 25.8666 8.86015 26.0675 9.06102C26.4692 9.66362 26.2683 10.4671 25.4649 10.8688C25.0632 11.0697 24.4607 11.0697 24.059 10.8688C23.6573 10.4671 23.2556 10.6679 23.0548 10.8688C22.4522 11.2705 22.4522 11.6723 22.6531 12.074C23.0547 12.6766 23.8581 12.6766 24.4607 12.4757H24.6615C26.8708 12.2749 28.0759 12.6766 29.0802 14.4844C30.0844 16.2922 29.4819 18.3009 27.6742 19.3052C26.2683 20.1087 24.059 20.3095 23.2556 18.7026C23.0547 17.8991 23.2556 17.0957 23.8581 16.8948Z" fill="white"/>
<path d="M32.8963 11.4712C32.8963 11.6721 32.8963 11.8729 33.0971 12.0738L33.4988 13.279C33.4988 13.4799 33.6997 13.6808 33.6997 13.6808L36.1098 12.8773C36.9132 12.4755 37.7166 12.6764 38.1183 13.4799C38.3192 14.0825 38.1183 14.8859 37.3149 15.0868L33.298 16.4929C32.6954 16.6937 31.8921 16.4929 31.6912 15.6894L28.4777 6.85126C28.2768 6.24866 28.6785 5.44522 29.281 5.24435L33.298 3.83826C33.9005 3.63739 34.7039 4.03915 34.9048 4.64175C35.3065 5.44521 34.7039 6.0478 33.9005 6.44953L31.4904 7.25302C31.4904 7.45389 31.4904 7.65475 31.6912 7.65475L32.0929 8.65908C32.0929 8.85995 32.2938 9.06081 32.2938 9.06081L35.1056 8.05648C35.7082 7.85561 36.5115 8.25733 36.7124 8.85993C36.9132 9.46253 36.7124 10.266 35.909 10.4669L32.8963 11.4712Z" fill="white"/>
<path d="M37.7166 3.43675C37.5157 2.63329 37.9174 2.03068 38.7208 1.82982L41.131 1.22724C43.1395 0.825509 44.9471 2.0307 45.3488 4.03936C45.7505 6.04802 44.7462 8.05668 42.7378 8.45841L41.9344 8.65929C41.7335 8.65929 41.7335 8.65929 41.7335 8.65929L42.3361 11.8731C42.5369 12.6766 41.9344 13.2792 41.3318 13.4801C40.7293 13.6809 39.9259 13.0783 39.9259 12.4757L37.7166 3.43675ZM40.7293 4.03936H40.5284L40.9301 6.2489L42.1352 6.04802C42.9386 5.84716 42.9386 5.0437 42.9386 4.64196C42.9386 4.24023 42.5369 3.63763 41.7335 3.63763L40.7293 4.03936Z" fill="white"/>
<path d="M51.9767 6.44971C52.5792 6.44971 52.9809 6.85143 53.1817 7.45401C53.1817 8.0566 52.78 8.45833 52.1775 8.6592L49.1648 8.86004C48.5623 8.86004 48.1606 8.45832 47.9597 7.85573C47.9597 7.25315 48.3614 6.85144 48.964 6.65058L51.9767 6.44971Z" fill="white"/>
<path d="M55.1902 10.2662C55.1902 9.86446 55.3911 9.26185 55.7928 9.06098C55.9936 8.86012 58.6046 6.65059 59.8097 5.64625C60.6131 5.04365 61.0148 4.64192 61.2157 4.03932C61.2157 3.23585 60.6131 2.63325 60.0106 2.63325C59.408 2.63325 58.8055 3.03498 58.6046 3.43671C58.4038 3.83844 58.0021 4.24019 57.3996 4.24019C56.797 4.24019 56.1945 3.63757 56.1945 2.8341C56.1945 2.63324 56.1945 2.43238 56.3953 2.43238C56.9979 1.02631 58.6046 -0.178884 60.2114 0.0219822C62.4207 0.222849 64.0275 2.03066 63.8267 4.24019C63.6258 6.44973 61.6174 7.45404 59.2072 9.46271L58.8055 9.66359L62.019 9.86444C62.6216 9.86444 63.2241 10.4671 63.2241 11.2705C63.2241 11.8731 62.6216 12.4757 61.8182 12.4757L56.797 12.074C55.7928 11.8731 55.1902 11.0697 55.1902 10.2662Z" fill="white"/>
<path d="M65.0318 11.0695C65.2327 10.6678 65.4335 10.2661 65.8352 10.0652C66.0361 9.86434 68.8479 8.05653 70.4547 7.45393C71.4589 6.85133 71.8606 6.65047 72.0615 6.04787C72.2623 5.2444 71.8606 4.6418 71.0573 4.44093C70.4547 4.24006 69.8522 4.6418 69.4505 5.04354C69.2496 5.44527 68.6471 5.64614 68.0446 5.64614C67.442 5.44528 67.0403 4.84268 67.0403 4.24008C67.0403 4.03922 67.0403 4.03919 67.2412 3.83833C68.0445 2.43226 69.8522 1.62881 71.4589 2.03054C73.4674 2.43227 74.8733 4.64181 74.2708 6.65048C73.6683 8.86001 71.6598 9.4626 69.0488 11.0695L68.6471 11.2704L71.8606 12.0739C72.4632 12.2747 73.0657 12.8773 72.8649 13.6808C72.664 14.2834 72.0615 14.6851 71.2581 14.6851L66.2369 13.4799C65.4335 12.8773 64.831 11.873 65.0318 11.0695Z" fill="white"/>
<path d="M75.6767 13.4801C76.2792 13.6809 76.4801 14.2835 76.2792 14.8861C76.0784 15.4887 75.4758 15.6896 75.0742 15.4887C74.4716 15.2878 74.2708 14.6852 74.4716 14.0827C74.4716 13.6809 75.0742 13.2792 75.6767 13.4801Z" fill="white"/>
<path d="M88.5311 8.25759C91.5438 9.86452 92.548 13.681 90.9412 16.4931C89.3345 19.5061 85.7192 20.7113 82.7065 19.1044C79.6938 17.4974 78.6896 13.681 80.2963 10.8688C81.7023 7.65497 85.5184 6.65066 88.5311 8.25759ZM83.9116 16.8948C85.7192 17.8992 87.9285 17.0957 88.7319 15.4888C89.7362 13.681 88.9328 11.4714 87.326 10.668C85.5184 9.66365 83.3091 10.4671 82.5057 12.074C81.5014 13.681 82.104 15.8905 83.9116 16.8948Z" fill="white"/>
<path d="M99.9792 19.1043C98.3724 17.8991 96.1631 17.8991 94.958 19.506C93.7529 20.9121 94.1546 23.3225 95.3597 24.5277C95.9622 25.1303 96.7656 25.3312 97.569 25.3312C97.9707 25.3312 98.1716 25.3312 98.5733 25.7329C99.1758 26.1347 99.1758 26.9381 98.7741 27.5407C98.3724 27.9425 97.9707 27.9425 97.569 27.9425C97.3682 27.9425 95.5605 27.9425 93.7529 26.5364C91.1419 24.3269 90.9411 20.5104 93.1504 17.8991C95.3597 15.2878 99.1758 15.087 101.787 17.2965C103.594 18.9035 103.795 20.5104 103.795 20.7113C103.795 21.113 103.996 21.5147 103.594 21.9164C103.193 22.519 102.389 22.5191 101.787 22.1173C101.586 21.9165 101.385 21.7156 101.385 21.3139C100.983 20.5104 100.582 19.7069 99.9792 19.1043Z" fill="white"/>
<path d="M106.808 26.3354C106.607 26.1345 106.607 25.9336 106.406 25.7327L106.005 25.1301C105.603 24.7284 105.804 23.7241 106.206 23.3223C106.808 22.9206 107.612 22.9206 108.013 23.5232L111.428 27.5405C111.829 27.9423 111.829 28.9466 111.227 29.3484C110.825 29.7501 109.821 29.5492 109.419 29.1475L109.017 28.5449L108.616 28.1431L102.189 33.3657C101.586 33.7674 100.984 33.7674 100.381 33.1648C99.9793 32.5622 99.9793 31.9596 100.582 31.357L106.808 26.3354Z" fill="white"/>
</svg>
