<svg width="111" height="143" viewBox="0 0 111 143" fill="none" xmlns="http://www.w3.org/2000/svg">
<path d="M40.0724 94.7645L38.2545 91.1284C38.6585 90.9264 46.7377 86.6844 46.7377 70.5243C46.7377 54.1621 38.2545 49.9201 38.2545 49.9201L39.8704 46.2841C40.2743 46.4861 50.7774 51.5361 50.7774 70.5243C50.9794 89.5124 40.4763 94.5624 40.0724 94.7645Z" fill="white"/>
<path d="M70.9756 94.7645C70.5717 94.5624 60.0686 89.5124 60.0686 70.5243C60.0686 51.5361 70.3697 46.4861 70.9756 46.2841L72.5915 49.9201L71.7836 48.1021L72.5915 49.9201C72.1875 50.1221 64.1082 54.3641 64.1082 70.5243C64.1082 86.8864 72.5915 91.1284 72.5915 91.1284L70.9756 94.7645Z" fill="white"/>
<path d="M71.7836 68.5042H39.2645V72.5442H71.7836V68.5042Z" fill="white"/>
<path d="M55.4227 120.419C27.7512 120.419 5.33118 97.9964 5.33118 70.3222C5.33118 42.648 27.7512 20.2258 55.4227 20.2258C83.0942 20.2258 105.514 42.648 105.514 70.3222C105.514 97.9964 83.0942 120.419 55.4227 120.419ZM55.4227 24.4679C30.175 24.4679 9.37082 45.072 9.37082 70.5242C9.37082 95.9764 30.175 116.379 55.4227 116.379C80.6704 116.379 101.475 95.7744 101.475 70.3222C101.475 44.87 80.8724 24.4679 55.4227 24.4679Z" fill="white"/>
<path d="M20.8838 80.6242C20.8838 79.8162 21.4897 79.0081 22.4996 79.0081C23.3076 79.0081 24.1155 79.6141 24.1155 80.6242C24.1155 81.4322 23.5096 82.2402 22.4996 82.2402C21.4897 82.0382 20.8838 81.4322 20.8838 80.6242ZM20.8838 70.5241C20.8838 69.7161 21.4897 68.9081 22.4996 68.9081C23.3076 68.9081 24.1155 69.5141 24.1155 70.5241C24.1155 71.3321 23.5096 72.1401 22.4996 72.1401C21.4897 71.9381 20.8838 71.3321 20.8838 70.5241ZM20.8838 60.424C20.8838 59.616 21.4897 58.808 22.4996 58.808C23.3076 58.808 24.1155 59.414 24.1155 60.424C24.1155 61.232 23.5096 62.04 22.4996 62.04C21.4897 61.838 20.8838 61.232 20.8838 60.424Z" fill="white"/>
<path d="M87.1342 80.6242C87.1342 79.8162 87.7401 79.0081 88.75 79.0081C89.5579 79.0081 90.3659 79.6141 90.3659 80.6242C90.3659 81.4322 89.7599 82.2402 88.75 82.2402C87.9421 82.0382 87.1342 81.4322 87.1342 80.6242ZM87.1342 70.5241C87.1342 69.7161 87.7401 68.9081 88.75 68.9081C89.5579 68.9081 90.3659 69.5141 90.3659 70.5241C90.3659 71.3321 89.7599 72.1401 88.75 72.1401C87.9421 71.9381 87.1342 71.3321 87.1342 70.5241ZM87.1342 60.424C87.1342 59.616 87.7401 58.808 88.75 58.808C89.5579 58.808 90.3659 59.414 90.3659 60.424C90.3659 61.232 89.7599 62.04 88.75 62.04C87.9421 61.838 87.1342 61.232 87.1342 60.424Z" fill="white"/>
<path d="M31.1848 126.681C31.3868 126.074 32.1948 125.67 32.8007 125.872L35.2245 126.681C37.2443 127.489 38.0522 129.509 37.2443 131.327C36.4364 133.347 34.6185 134.357 32.5987 133.549L31.7908 133.145C31.5888 133.145 31.5888 133.145 31.5888 133.145L30.1749 136.579C29.9729 137.185 29.165 137.589 28.5591 137.387C27.9531 137.185 27.5492 136.377 27.9531 135.771L31.1848 126.681ZM33.4066 128.903H33.2047L32.3967 131.125L33.6086 131.529C34.4165 131.731 34.8205 131.125 35.0225 130.721C35.2245 130.317 35.2245 129.509 34.4165 129.307L33.4066 128.903Z" fill="white"/>
<path d="M41.284 128.498C41.89 128.7 42.2939 129.307 42.2939 130.115L40.0721 139.609C39.8701 140.215 39.2642 140.619 38.4563 140.417C37.8503 140.215 37.2444 139.609 37.4464 139.003L39.6682 129.509C39.8701 128.7 40.6781 128.296 41.284 128.498Z" fill="white"/>
<path d="M44.3137 137.791C45.5256 137.993 45.3236 139.205 46.3335 139.407C46.9395 139.407 47.3434 139.205 47.3434 138.397C47.5454 137.387 46.9395 136.983 46.1315 136.781C44.5157 135.973 43.5058 134.559 43.7078 132.943C43.9097 130.721 45.5256 129.509 47.7474 129.711C48.9593 129.913 50.1712 130.721 50.5752 132.135C50.5752 132.337 50.5752 132.539 50.5752 132.539C50.5752 133.145 49.7672 133.751 49.1613 133.751C48.7573 133.751 48.3534 133.347 48.1514 132.943C47.9494 132.539 47.5454 132.337 47.3434 132.337C46.7375 132.337 46.3335 132.741 46.3335 133.145C46.3335 133.953 47.1415 134.357 47.5454 134.559C49.3633 135.771 50.1712 136.781 49.9692 138.801C49.7672 140.821 47.9494 142.235 46.1315 141.831C44.5157 141.629 42.6979 140.417 42.8998 138.801C43.1018 138.195 43.7078 137.791 44.3137 137.791Z" fill="white"/>
<path d="M58.8564 132.741C56.8366 132.943 55.2207 134.559 55.4227 136.579C55.4227 138.599 57.4425 140.013 59.2604 140.013C60.0683 140.013 60.8762 139.609 61.4822 139.205C61.6842 139.003 62.0881 138.801 62.2901 138.801C63.098 138.801 63.502 139.205 63.704 140.013C63.704 140.619 63.3 141.023 63.098 141.225C62.8961 141.427 61.6842 142.639 59.2604 142.639C55.8267 142.841 52.9989 140.013 52.7969 136.781C52.5949 133.347 55.2207 130.519 58.6544 130.317C61.0782 130.317 62.2901 131.327 62.4921 131.529C62.6941 131.731 63.098 132.135 63.098 132.741C63.098 133.549 62.4921 133.953 61.8861 133.953C61.4822 133.953 61.2802 133.953 60.8762 133.549C60.4723 132.943 59.6643 132.539 58.8564 132.741Z" fill="white"/>
<path d="M68.7535 136.377C68.7535 136.579 68.7535 136.781 68.7535 136.983L68.9555 138.195C68.9555 138.397 68.9555 138.599 69.1575 138.599L71.7832 137.993C72.5912 137.791 73.3991 137.993 73.6011 139.003C73.8031 139.609 73.3991 140.417 72.5912 140.417L68.3495 141.225C67.7436 141.427 66.9357 141.023 66.9357 140.215L64.9159 130.923C64.7139 130.317 65.1178 129.508 65.9258 129.306L70.1674 128.498C70.7733 128.296 71.5813 128.902 71.5813 129.508C71.7832 130.316 71.1773 130.923 70.1674 131.125L67.7436 131.731C67.7436 131.933 67.7436 132.135 67.7436 132.337L67.9456 133.549C67.9456 133.751 67.9456 133.953 68.1476 133.953L70.9753 133.347C71.5812 133.145 72.3892 133.751 72.3892 134.357C72.5912 134.963 72.1872 135.771 71.3793 135.771L68.7535 136.377Z" fill="white"/>
<path d="M76.8329 135.367C77.8428 134.963 78.4488 136.175 79.4587 135.771C80.0647 135.569 80.2666 135.165 80.0646 134.357C79.6607 133.347 79.0547 133.347 78.2468 133.347C76.429 133.347 74.8131 132.741 74.2072 130.923C73.3993 128.903 74.2072 127.085 76.227 126.277C77.2369 125.872 78.8528 126.075 79.8627 127.085C80.0646 127.287 80.0646 127.287 80.0646 127.489C80.2666 128.095 80.0647 128.903 79.2567 129.105C78.8528 129.307 78.2468 129.307 78.0448 128.903C77.6409 128.499 77.2369 128.499 77.0349 128.701C76.429 128.903 76.429 129.509 76.429 129.913C76.631 130.721 77.6409 130.519 78.2468 130.721H78.4488C80.6706 130.923 81.8825 131.529 82.4884 133.347C83.0944 135.165 82.2865 137.185 80.4686 137.993C78.8528 138.599 76.8329 138.397 76.227 136.781C75.823 136.175 76.227 135.569 76.8329 135.367Z" fill="white"/>
<path d="M0.483527 28.1038C-0.122419 27.6998 -0.122431 26.8918 0.281533 26.4878L1.69542 24.8718C2.09938 24.4678 2.70532 24.2658 3.10928 24.6698L10.7846 30.9319C11.3905 31.3359 11.3905 32.1439 10.9866 32.7499C10.5826 33.3559 9.77469 33.3559 9.16874 32.9519L3.10928 27.9018C2.9073 27.6998 2.70533 27.4978 2.50335 27.6998L2.09937 28.1038C1.69541 28.5078 0.887491 28.7098 0.483527 28.1038Z" fill="white"/>
<path d="M16.238 19.6199L17.248 25.6799C17.248 26.0839 17.248 26.4879 16.844 26.8919C16.2381 27.2959 15.6321 27.2959 15.0262 26.6899C14.8242 26.4879 14.8242 26.2859 14.6222 25.8819L14.4202 24.2659C14.4202 24.0639 14.4202 23.8619 14.4202 23.6599C12.6024 24.8719 10.3806 24.6699 8.76473 23.0539C7.14888 21.2359 7.35085 18.6098 9.16869 16.9938C10.9865 15.3778 13.6123 15.5798 15.2281 17.3978C15.6321 18.2058 16.0361 19.0139 16.238 19.6199ZM10.7845 19.2159C9.97662 19.8219 9.97662 20.8319 10.5826 21.6399C11.1885 22.4479 12.1984 22.4479 13.0063 21.8419C13.8143 21.2359 13.8143 20.0239 13.2083 19.4179C12.6024 18.6099 11.5925 18.4078 10.7845 19.2159Z" fill="white"/>
<path d="M21.2877 20.6297C21.6917 20.2257 22.4996 20.4277 22.7016 21.0337C23.1056 21.4377 22.9036 22.0438 22.4996 22.4478C21.8937 22.8518 21.2877 22.6498 21.0857 22.2458C20.6818 21.8418 20.6818 21.0337 21.2877 20.6297Z" fill="white"/>
<path d="M19.4698 11.3377C19.0658 10.7317 19.2678 9.92368 19.8738 9.51968L23.7114 7.49966C24.3174 7.09566 25.1253 7.49966 25.5293 8.10566C25.9332 8.91367 25.5293 9.51968 24.7213 9.92368L22.4995 11.1357C22.4995 11.3377 22.7015 11.5397 22.7015 11.5397L23.3075 12.5497C23.3075 12.7517 23.5094 12.7517 23.5094 12.9537L26.1352 11.5397C26.7412 11.1357 27.5491 11.5397 27.9531 12.1457C28.357 12.7517 28.155 13.5597 27.5491 13.9637L24.9233 15.3777C24.9233 15.5797 25.1253 15.5797 25.1253 15.7817L26.7412 18.6097C27.1451 19.2158 26.9431 20.0238 26.3372 20.2258C25.7312 20.6298 24.9233 20.4278 24.5194 19.8218L19.4698 11.3377Z" fill="white"/>
<path d="M32.3968 11.5398C32.3968 11.7418 32.3968 11.9438 32.5988 12.1458L33.0027 13.3578C33.0027 13.5598 33.2047 13.7618 33.2047 13.7618L35.6285 12.9538C36.4364 12.5498 37.2443 12.7518 37.6483 13.5598C37.8503 14.1658 37.6483 14.9738 36.8404 15.1758L32.8007 16.5898C32.1948 16.7918 31.3869 16.5898 31.1849 15.7818L27.7512 6.89373C27.5492 6.28772 27.7512 5.47972 28.5591 5.27771L32.5988 3.8637C33.2047 3.6617 34.0126 4.06571 34.2146 4.67171C34.6186 5.47972 34.0126 6.08572 33.2047 6.48973L30.7809 7.29773C30.7809 7.49973 30.7809 7.70173 30.9829 7.70173L31.3869 8.71174C31.3869 8.91374 31.5888 9.11575 31.5888 9.11575L34.4166 8.10574C35.0225 7.90374 35.8305 8.30774 36.0325 8.91374C36.2344 9.51975 36.0325 10.3278 35.2245 10.5298L32.3968 11.5398Z" fill="white"/>
<path d="M40.8798 13.9638C40.2739 14.1658 39.4659 13.7618 39.264 12.9538L37.2441 3.66171C37.2441 2.8537 37.6481 2.2477 38.2541 2.04569L40.4759 1.64169C42.2937 1.23769 43.9095 2.4497 44.3135 4.26771C44.5155 5.07572 44.3135 5.88373 44.1115 6.48973C45.1214 7.09574 45.7274 7.90374 45.9294 9.11575C46.3333 11.1358 45.1214 13.1558 43.1016 13.5598L40.8798 13.9638ZM42.0917 4.87372C41.8897 4.46971 41.4858 4.06571 40.8798 4.06571L40.2739 4.26771C40.0719 4.26771 40.0719 4.46971 40.0719 4.67172L40.2739 6.08573C40.2739 6.28773 40.2739 6.28773 40.2739 6.48973L41.0818 6.28773C42.0917 5.88373 42.2937 5.47972 42.0917 4.87372ZM41.2838 8.50975C40.8798 8.50975 41.0818 8.71175 41.0818 8.91375L41.4858 10.9338V11.1358L42.6977 10.9338C43.5056 10.7318 43.9095 10.1258 43.7076 9.31775C43.5056 8.50975 42.8996 8.10574 42.0917 8.30774L41.2838 8.50975Z" fill="white"/>
<path d="M52.1909 6.48962C52.7968 6.48962 53.2008 6.89363 53.4028 7.49963C53.4028 8.10564 52.9988 8.50964 52.3929 8.71164L49.3631 8.91364C48.7572 8.91364 48.3532 8.50964 48.1512 7.90364C48.1512 7.29763 48.5552 6.89363 49.1612 6.69163L52.1909 6.48962Z" fill="white"/>
<path d="M55.2205 10.3277C55.2205 9.92369 55.4224 9.31769 55.8264 9.11568C56.0284 8.91368 58.6541 6.69167 59.866 5.68166C60.674 5.07565 61.0779 4.67165 61.2799 4.06564C61.2799 3.25764 60.674 2.65163 60.068 2.65163C59.4621 2.65163 58.8561 3.05564 58.6541 3.45964C58.4522 3.86364 58.0482 4.26765 57.4423 4.26765C56.8363 4.26765 56.2304 3.66164 56.2304 2.85363C56.2304 2.65163 56.2304 2.44963 56.4323 2.44963C57.0383 0.833619 58.6542 -0.176389 60.27 0.0256123C62.4918 0.227614 64.1077 2.04563 63.9057 4.26765C63.7037 6.48966 61.6839 7.49967 59.4621 9.51969L59.0581 9.72169L62.2898 9.92369C62.8958 9.92369 63.5017 10.5297 63.5017 11.3377C63.5017 11.9437 62.8958 12.5497 62.0879 12.5497L56.8363 12.1457C56.0284 12.1457 55.2205 11.1357 55.2205 10.3277Z" fill="white"/>
<path d="M73.6012 10.7317C73.1972 12.9537 70.9754 14.3677 68.7536 13.7617C66.5318 13.1557 65.1179 10.9337 65.7239 8.91368L66.7338 4.87365C67.1377 2.65163 69.3595 1.23762 71.5813 1.84363C73.8031 2.44963 75.217 4.67165 74.6111 6.69166L73.6012 10.7317ZM68.1477 9.31769C67.9457 10.1257 68.5516 11.1357 69.3595 11.3377C70.1675 11.5397 70.9754 10.9337 71.1774 10.1257L72.1873 6.08566C72.3893 5.27765 71.7833 4.26765 70.9754 4.06564C70.1675 3.86364 69.1576 4.46965 68.9556 5.27765L68.1477 9.31769Z" fill="white"/>
<path d="M75.8228 13.5596C76.4287 13.7616 76.6307 14.3676 76.4287 14.9736C76.2267 15.5796 75.6208 15.7816 75.2168 15.5796C74.6109 15.3776 74.4089 14.7716 74.6109 14.1656C74.6109 13.7616 75.2168 13.3576 75.8228 13.5596Z" fill="white"/>
<path d="M85.1139 14.7718C85.1139 14.9738 85.1139 15.1758 85.1139 15.3778C85.3159 15.1758 85.5179 15.1758 85.7199 14.9738L90.3654 10.7317C90.9714 10.1257 91.9813 9.92372 92.5872 10.3277C93.7991 10.9337 93.7991 12.1457 93.3952 12.9537L89.1535 20.8318C88.9516 21.4378 87.9417 21.6398 87.3357 21.2358C86.7298 20.8318 86.5278 20.2258 86.9317 19.6198L89.5575 14.7718C89.7595 14.5698 89.7595 14.3678 89.9615 14.1658C89.7595 14.3678 89.5575 14.5698 89.3555 14.7718C88.5476 15.5798 84.9119 18.8118 84.9119 18.8118C84.508 19.2158 83.902 19.4178 83.2961 19.0138C82.6901 18.8118 82.4881 18.2058 82.4881 17.5998C82.6901 16.7918 83.2961 12.3477 83.4981 11.5397C83.4981 11.3377 83.4981 11.1357 83.4981 10.9337L80.6703 16.1858C80.2663 16.7918 79.4584 17.1958 78.8525 16.7918C78.2465 16.3878 78.0445 15.5798 78.2465 14.9738L82.4881 7.0957C82.8921 6.28769 84.104 5.68168 85.1139 6.28769C85.9218 6.69169 86.1238 7.4997 85.9218 8.3077L85.1139 14.7718Z" fill="white"/>
<path d="M96.425 28.7098C95.8191 28.1038 96.0211 27.0938 96.425 26.0838V25.6798C96.425 25.4778 96.223 25.4778 96.0211 25.4778L93.1933 23.0538C93.1933 23.0538 93.1933 23.0538 92.9913 23.0538C91.9814 23.4578 90.9715 24.2658 90.1636 23.6598C89.5576 23.2558 89.5576 22.4478 89.9616 21.8418C90.1636 21.6398 90.1636 21.6398 90.3656 21.4378L99.6567 16.5897C100.263 16.3877 100.667 16.3877 101.071 16.7917C101.475 17.1957 101.677 17.5997 101.475 18.2057L98.2428 28.1038C98.2428 28.3058 98.0409 28.3058 98.0409 28.5078C97.6369 29.1138 97.031 29.1138 96.425 28.7098ZM96.0211 21.6398C95.8191 21.6398 95.8191 21.8418 95.6171 21.8418L97.4349 23.2558L98.2428 20.8318C98.2428 20.6297 98.4448 20.6298 98.4448 20.4277L96.0211 21.6398Z" fill="white"/>
<path d="M103.898 30.1238C104.1 29.9218 104.1 29.9218 103.898 30.1238L103.494 29.5178C103.494 29.5178 103.494 29.5178 103.292 29.5178L100.666 31.7398C100.06 32.1438 99.2526 32.1438 98.8486 31.5378C98.4446 30.9318 98.6466 30.1238 99.0506 29.7198L106.322 23.6597C106.928 23.2557 107.736 23.2557 108.14 23.8617L109.958 26.0838C111.371 27.6998 110.968 29.9218 109.352 31.1338C108.342 31.9418 107.13 32.1438 105.918 31.9418C105.716 31.9418 105.716 31.9418 105.514 31.9418L104.302 35.3758C104.302 35.5778 104.1 35.7798 103.898 35.7798C103.494 36.1838 102.686 36.1838 102.08 35.5778C101.878 35.1738 101.676 34.7698 101.878 34.1638L103.898 30.1238ZM107.534 26.4878L107.332 26.2858L105.514 27.9018L106.524 29.1138C107.13 29.7198 107.938 29.5178 108.14 29.1138C108.544 28.9118 108.948 28.1038 108.342 27.4978L107.534 26.4878Z" fill="white"/>
</svg>
