<svg width="113" height="142" viewBox="0 0 113 142" fill="none" xmlns="http://www.w3.org/2000/svg">
<path d="M56.2089 120.308C28.6953 120.308 6.40332 98.0142 6.40332 70.4979C6.40332 42.9817 28.6953 20.6875 56.2089 20.6875C83.7225 20.6875 106.015 42.9817 106.015 70.4979C105.814 98.0142 83.5217 120.308 56.2089 120.308ZM56.2089 24.9053C31.1053 24.9053 10.4199 45.3919 10.4199 70.6988C10.4199 96.0057 30.9045 116.492 56.2089 116.492C81.3125 116.492 101.998 96.0057 101.998 70.6988C101.998 45.3919 81.3125 24.9053 56.2089 24.9053Z" fill="white"/>
<path d="M21.6661 80.5403C21.6661 79.7369 22.2686 78.9335 23.2728 78.9335C24.0761 78.9335 24.8793 79.5361 24.8793 80.5403C24.8793 81.3437 24.2769 82.1471 23.2728 82.1471C22.2686 82.1471 21.6661 81.3437 21.6661 80.5403ZM21.6661 70.4979C21.6661 69.6945 22.2686 68.8911 23.2728 68.8911C24.0761 68.8911 24.8793 69.4936 24.8793 70.4979C24.8793 71.3013 24.2769 72.1046 23.2728 72.1046C22.2686 72.1046 21.6661 71.3013 21.6661 70.4979ZM21.6661 60.4554C21.6661 59.652 22.2686 58.8486 23.2728 58.8486C24.0761 58.8486 24.8793 59.4512 24.8793 60.4554C24.8793 61.2588 24.2769 62.0622 23.2728 62.0622C22.2686 62.0622 21.6661 61.2588 21.6661 60.4554Z" fill="white"/>
<path d="M87.5381 80.5403C87.5381 79.7369 88.1405 78.9335 89.1447 78.9335C89.948 78.9335 90.7513 79.5361 90.7513 80.5403C90.7513 81.3437 90.1488 82.1471 89.1447 82.1471C88.3414 82.1471 87.5381 81.3437 87.5381 80.5403ZM87.5381 70.4979C87.5381 69.6945 88.1405 68.8911 89.1447 68.8911C89.948 68.8911 90.7513 69.4936 90.7513 70.4979C90.7513 71.3013 90.1488 72.1046 89.1447 72.1046C88.3414 72.1046 87.5381 71.3013 87.5381 70.4979ZM87.5381 60.4554C87.5381 59.652 88.1405 58.8486 89.1447 58.8486C89.948 58.8486 90.7513 59.4512 90.7513 60.4554C90.7513 61.2588 90.1488 62.0622 89.1447 62.0622C88.3414 62.0622 87.5381 61.2588 87.5381 60.4554Z" fill="white"/>
<path d="M73.8534 49.9618L35.7958 88.0232L38.6359 90.8636L76.6935 52.8022L73.8534 49.9618Z" fill="white"/>
<path d="M76.2917 73.1089L72.2751 72.908L73.0784 53.4257L53.598 54.2291L53.3972 50.2121L77.2958 49.2079L76.2917 73.1089Z" fill="white"/>
<path d="M40.3573 68.4915L37.5172 71.3319L54.7 88.5164L57.5401 85.676L40.3573 68.4915Z" fill="white"/>
<path d="M9.21508 119.706C10.0184 120.509 9.21507 121.513 10.0184 122.317C10.42 122.718 11.0225 122.718 11.4242 122.116C12.0267 121.313 11.8258 120.71 11.4242 119.907C10.6209 118.3 10.42 116.693 11.625 115.287C13.0308 113.68 15.0391 113.479 16.6458 114.885C17.4491 115.689 18.0516 117.095 17.6499 118.501C17.6499 118.702 17.4491 118.702 17.4491 118.902C17.0474 119.505 16.2441 119.505 15.6416 119.103C15.4408 118.902 15.0391 118.3 15.24 117.898C15.4408 117.496 15.2399 117.095 15.0391 116.894C14.6375 116.492 14.035 116.693 13.6333 117.095C13.2317 117.697 13.6333 118.501 13.8341 119.103C14.8383 121.112 14.8383 122.317 13.4325 123.924C12.0267 125.33 10.0184 125.53 8.41174 124.325C7.20676 123.12 6.40345 121.313 7.40759 119.907C8.21091 119.304 8.81342 119.304 9.21508 119.706Z" fill="white"/>
<path d="M21.4658 133.363C20.6624 132.962 20.8633 131.757 21.0641 130.953V130.552C20.8633 130.552 20.8633 130.351 20.6625 130.351L17.4492 128.342C17.4492 128.342 17.4492 128.342 17.2484 128.342C16.2442 128.945 15.4409 129.748 14.6376 129.346C14.0351 128.945 13.8343 128.141 14.2359 127.539C14.4368 127.338 14.4368 127.338 14.6376 127.137L23.0724 121.112C23.6749 120.71 24.0765 120.71 24.4782 121.112C24.8798 121.513 25.2815 121.915 25.0807 122.518L23.2732 132.761C23.2732 132.962 23.2732 133.163 23.0724 133.163C22.6707 133.564 22.0682 133.765 21.4658 133.363ZM19.8591 126.334C19.6583 126.334 19.6583 126.535 19.4575 126.535L21.2649 127.74L21.6666 125.129C21.6666 124.928 21.6666 124.727 21.6666 124.727L19.8591 126.334Z" fill="white"/>
<path d="M35.5236 136.778C35.3227 137.18 35.1219 137.38 34.7203 137.581C34.1178 137.782 32.1095 138.184 29.9004 137.38C26.6871 136.175 25.2813 132.56 26.4863 129.347C27.6912 126.133 31.3062 124.727 34.5194 125.932C36.7286 126.735 37.5319 128.342 37.5319 128.543C37.7327 128.744 37.9335 129.347 37.7327 129.748C37.5319 130.351 36.7286 130.752 36.1261 130.552C35.7244 130.351 35.5236 130.15 35.3228 129.949C34.9211 129.146 34.3186 128.543 33.5153 128.342C31.7078 127.539 29.4987 128.543 28.8962 130.351C28.0929 132.158 29.097 134.368 30.9045 135.171C32.3103 135.774 33.1136 135.573 33.1136 135.372L33.3145 134.569V134.368L31.507 133.564C30.9045 133.363 30.5028 132.56 30.9045 131.958C31.1053 131.355 31.9087 130.953 32.5111 131.154L35.7244 132.359C36.5277 132.761 36.7286 133.163 36.3269 133.765L35.5236 136.778Z" fill="white"/>
<path d="M42.1509 128.342C42.9542 128.543 43.3559 129.146 43.1551 129.949L40.9459 139.389C40.7451 139.991 40.1426 140.393 39.3393 140.192C38.7368 139.991 38.1343 139.389 38.3352 138.786L40.5443 129.346C40.7451 128.543 41.3476 128.141 42.1509 128.342Z" fill="white"/>
<path d="M47.1716 131.958C46.9708 131.958 46.77 131.958 46.5691 131.757H45.7658C45.1633 131.757 44.5609 130.953 44.7617 130.351C44.7617 129.547 45.565 129.146 46.1675 129.146L51.3891 129.748C51.9916 129.748 52.594 130.552 52.3932 131.154C52.3932 131.757 51.5899 132.359 50.9874 132.158H50.1841H49.5816L48.5774 140.393C48.5774 141.197 47.975 141.598 47.1716 141.397C46.5691 141.397 45.9666 140.795 45.9666 139.991L47.1716 131.958Z" fill="white"/>
<path d="M56.41 132.761C56.2091 132.761 56.0083 132.761 55.8075 132.761H55.0041C54.4017 132.761 53.7992 132.158 53.7992 131.556C53.7992 130.752 54.4017 130.15 55.0041 130.15L60.2257 129.949C60.8282 129.949 61.4307 130.552 61.4307 131.154C61.4307 131.757 60.8282 132.359 60.2257 132.359H59.4224H58.8199L59.0207 140.795C59.0207 141.598 58.4183 142 57.8158 142C57.0125 142 56.6108 141.598 56.41 140.795V132.761Z" fill="white"/>
<path d="M71.4721 140.594C70.6688 140.795 70.0663 139.791 69.4638 138.987L69.263 138.786C69.0622 138.786 69.0622 138.786 68.8613 138.786L65.2464 139.389C65.0456 140.393 64.8448 141.598 63.8406 141.799C63.0373 142 62.4348 141.598 62.4348 140.795C62.4348 140.594 62.4348 140.393 62.4348 140.192L64.6439 130.15C64.8447 129.547 65.2464 129.146 65.6481 129.146C66.2505 129.146 66.6522 129.346 67.0539 129.748L72.4763 138.586C72.4763 138.786 72.6771 138.786 72.6771 138.987C72.6771 139.991 72.2754 140.594 71.4721 140.594ZM65.8489 136.376C65.8489 136.577 65.8489 136.577 65.8489 136.778L68.058 136.376L66.6522 134.167C66.6522 133.966 66.4514 133.966 66.4514 133.765L65.8489 136.376Z" fill="white"/>
<path d="M77.6977 133.966C77.6977 133.765 77.6977 133.966 77.6977 133.966L77.0953 134.167C77.0953 134.167 77.0953 134.167 77.0953 134.368L78.3002 137.581C78.5011 138.184 78.0994 138.987 77.4969 139.188C76.8945 139.389 76.0911 138.987 75.8903 138.385L72.677 129.346C72.4762 128.744 72.6771 127.941 73.4804 127.74L76.292 126.735C78.3002 126.133 80.1077 127.137 80.911 129.146C81.3127 130.351 81.1118 131.556 80.5094 132.56C80.5094 132.761 80.3085 132.761 80.3085 132.962L83.1201 135.372C83.3209 135.573 83.321 135.774 83.5218 135.774C83.7226 136.376 83.5218 137.18 82.7185 137.38C82.3168 137.581 81.7143 137.38 81.5135 137.18L77.6977 133.966ZM75.6895 129.547C75.6895 129.547 75.4887 129.547 75.4887 129.748L76.292 131.957L77.8986 131.355C78.7019 131.154 78.7019 130.15 78.5011 129.748C78.3003 129.346 77.8986 128.744 77.0953 128.945L75.6895 129.547Z" fill="white"/>
<path d="M82.3169 123.924C82.9194 123.522 83.7227 123.924 83.9235 124.526L88.1409 133.163C88.3417 133.765 88.1409 134.569 87.5385 134.769C86.936 135.171 86.1327 134.769 85.9318 134.167L81.7144 125.53C81.3128 124.928 81.7144 124.325 82.3169 123.924Z" fill="white"/>
<path d="M85.7309 123.723C85.3293 123.12 85.5301 122.317 86.1326 121.915C86.7351 121.513 87.5384 121.714 87.9401 122.317L91.7558 128.342C92.1575 128.945 93.1616 128.945 93.7641 128.543C94.3666 128.141 94.5674 127.338 94.3666 126.735L90.5508 120.71C90.1492 120.107 90.35 119.304 90.9525 118.902C91.555 118.501 92.3583 118.701 92.7599 119.304L96.7765 125.53C97.9815 127.338 97.1782 129.547 95.3707 130.752C93.5633 131.957 91.1533 131.757 89.9484 129.949L85.7309 123.723Z" fill="white"/>
<path d="M99.3873 122.919C100.191 122.116 101.195 123.12 101.998 122.317C102.4 121.915 102.4 121.313 101.998 120.911C101.396 120.108 100.793 120.509 99.9898 120.71C98.3832 121.513 96.5757 121.313 95.3707 120.108C93.9649 118.501 93.9649 116.492 95.5716 115.086C96.3749 114.283 97.9815 113.881 99.1865 114.685C99.3873 114.685 99.3873 114.885 99.5881 114.885C99.9898 115.488 99.9898 116.291 99.5881 116.693C99.1865 116.894 98.7848 117.095 98.3831 116.894C97.9815 116.693 97.5798 116.894 97.379 117.095C96.9773 117.496 96.9773 118.099 97.379 118.501C97.7807 119.103 98.7848 118.702 99.3873 118.501H99.5881C101.596 117.898 103.002 117.898 104.207 119.505C105.613 120.911 105.412 123.12 104.006 124.526C102.801 125.731 100.793 126.334 99.5881 124.928C98.7848 123.924 98.7848 123.321 99.3873 122.919Z" fill="white"/>
<path d="M6.40351 36.5544C6.00185 36.1527 5.80102 35.751 5.80102 35.3494C5.80102 35.1485 5.39939 31.7341 5.19856 30.1273C5.19856 29.123 5.19855 28.5205 4.59607 28.1188C3.99358 27.7171 3.19026 27.7171 2.58778 28.3197C2.18612 28.7214 2.18612 29.5247 2.58778 29.9264C2.78861 30.3281 2.78861 30.9307 2.58778 31.3324C2.18612 31.7341 1.38278 31.9349 0.780298 31.5332C0.579469 31.5332 0.579488 31.3324 0.579488 31.1315C-0.223828 29.7256 -0.223846 27.918 0.780298 26.512C2.1861 24.9052 4.59607 24.5035 6.2027 25.9095C8.01016 27.3154 7.60849 29.5247 8.01015 32.5375V32.9392L10.0184 30.3281C10.4201 29.7256 11.2234 29.7256 11.8259 30.1273C12.4284 30.529 12.4284 31.3324 12.0267 31.9349L8.81345 35.9519C8.21097 36.9561 7.006 37.157 6.40351 36.5544Z" fill="white"/>
<path d="M12.4282 28.9222C12.0266 28.5205 12.0266 28.1188 12.0266 27.7171C12.0266 27.5163 12.2274 24.1018 12.4282 22.495C12.6291 21.4908 12.6291 20.8883 12.2274 20.4866C11.6249 19.884 10.8216 19.884 10.2191 20.4866C9.81748 20.8883 9.61663 21.4908 9.81746 22.0934C10.0183 22.4951 9.81746 23.0976 9.41581 23.4993C9.01415 23.901 8.21085 23.901 7.60836 23.4993C7.40753 23.2984 7.40752 23.2985 7.40752 23.0976C6.80503 21.6917 7.00586 19.884 8.41166 18.6789C10.0183 17.273 12.4282 17.273 13.834 18.8798C15.4407 20.4866 14.6374 22.6959 14.4365 25.7086V26.1103L16.8465 23.901C17.449 23.4993 18.2523 23.4993 18.654 23.901C19.0556 24.3027 19.0556 25.1061 18.654 25.7086L14.8382 29.1231C14.2357 29.7256 13.0307 29.5248 12.4282 28.9222Z" fill="white"/>
<path d="M20.6624 21.4907C21.0641 21.089 21.8674 21.2898 22.0682 21.6915C22.4699 22.0932 22.269 22.6958 21.8674 23.0975C21.2649 23.4992 20.6624 23.2983 20.4616 22.8966C20.0599 22.6958 20.0599 21.8924 20.6624 21.4907Z" fill="white"/>
<path d="M21.0641 10.2434L27.089 13.6578C27.2898 13.8587 27.4906 13.8586 27.6915 14.0595C27.6915 13.8586 27.4906 13.6578 27.4906 13.4569L24.8798 8.63659C24.4782 8.03404 24.679 7.23064 25.2815 7.02979C25.884 6.62809 26.6873 6.82893 27.089 7.43148L31.5072 15.6663C31.9089 16.4697 31.5072 17.4739 30.9047 17.8756C30.3022 18.2773 29.6998 18.0765 29.2981 17.8756L23.2732 14.4612C23.0724 14.2603 22.8716 14.2603 22.6707 14.0595C22.6707 14.2603 22.8715 14.4612 22.8715 14.6621L25.4823 19.4824C25.884 20.085 25.6832 20.8884 24.8798 21.0892C24.2773 21.4909 23.474 21.2901 23.0724 20.6875L18.4533 12.4527C18.0516 11.6493 18.4533 10.6451 19.0558 10.2434C20.0599 9.84169 20.6624 10.0425 21.0641 10.2434Z" fill="white"/>
<path d="M35.7247 2.81193C38.9379 1.80768 42.352 3.61533 43.3562 7.02975C44.3603 10.2433 42.5528 13.6577 39.3396 14.662C36.1263 15.6662 32.7122 13.8586 31.7081 10.4442C30.704 7.23059 32.5114 3.81617 35.7247 2.81193ZM38.5363 12.2518C40.5445 11.6493 41.5487 9.64076 40.9462 7.83313C40.3437 6.0255 38.3354 4.82041 36.528 5.42296C34.7205 6.0255 33.5156 8.03398 34.118 9.84161C34.7205 11.6492 36.7288 12.8544 38.5363 12.2518Z" fill="white"/>
<path d="M53.1967 1.6068L50.9875 11.4484C50.7867 12.0509 50.3851 12.4526 49.7826 12.4526C49.1801 12.4526 48.7784 12.2518 48.3768 11.8501L43.9585 2.61104C43.9585 2.41019 43.7577 2.4102 43.7577 2.20935C43.7577 1.40595 44.1593 0.803382 44.9626 0.803382C45.5651 0.803382 45.9668 1.2051 46.3685 1.6068L48.9792 7.43139C48.9792 7.63224 49.1801 7.8331 49.1801 8.03395L49.3809 7.43139C49.7826 5.42291 50.1842 3.21359 50.7867 1.2051C50.7867 0.602558 51.1884 0.200849 51.9917 0C52.795 0 53.3975 0.401709 53.3975 1.2051C53.1967 1.2051 53.1967 1.40595 53.1967 1.6068Z" fill="white"/>
<path d="M57.8158 6.42712C58.4182 6.42712 58.8199 6.82882 58.8199 7.43136C58.8199 8.0339 58.4182 8.43559 57.8158 8.43559H54.8033C54.2009 8.43559 53.7992 8.0339 53.7992 7.43136C53.7992 6.82882 54.2009 6.42712 54.8033 6.42712H57.8158Z" fill="white"/>
<path d="M60.6274 10.4441C60.6274 10.0424 61.0291 9.64074 61.2299 9.23905C61.4307 9.0382 64.0415 7.02971 65.4473 6.22632C66.4515 5.62377 66.8531 5.42292 66.8531 4.61952C67.054 3.81613 66.4515 3.21358 65.6481 3.01273C65.0457 3.01273 64.4432 3.21356 64.2423 3.81611C64.0415 4.21781 63.439 4.61951 63.0374 4.41866C62.4349 4.41866 61.8324 3.61527 62.0332 3.01273C62.0332 2.81188 62.0332 2.61104 62.234 2.61104C63.0374 1.2051 64.644 0.200841 66.2506 0.40169C68.4598 0.803387 69.8656 2.61102 69.4639 4.82035C69.0623 7.02969 67.054 7.8331 64.644 9.64074L64.2423 9.84157L67.4556 10.2433C68.0581 10.2433 68.6606 11.0467 68.4598 11.6492C68.4598 12.2518 67.6564 12.8543 67.0539 12.6535L62.0332 11.8501C61.2299 12.2517 60.4266 11.2475 60.6274 10.4441Z" fill="white"/>
<path d="M74.8861 3.61542C75.087 3.01288 75.6894 2.61116 76.2919 2.81201L78.3002 3.41456C78.9027 3.61541 79.1035 4.21797 78.9027 4.61966L75.8903 14.0595C75.6894 14.6621 75.087 15.0637 74.2836 14.8629C73.6812 14.662 73.2795 14.0595 73.4803 13.2561L75.8903 5.82473C75.8903 5.62388 76.0911 5.22221 75.8903 5.22221L75.4886 5.02135C74.8861 5.02135 74.6853 4.21797 74.8861 3.61542Z" fill="white"/>
<path d="M80.7102 15.2644C81.3127 15.4653 81.3127 16.2686 81.1118 16.6703C80.911 17.2729 80.3085 17.4737 79.706 17.2729C79.1035 17.072 78.9027 16.4695 79.1035 15.8669C79.5052 15.2644 80.3085 15.0636 80.7102 15.2644Z" fill="white"/>
<path d="M87.9401 9.03817C88.3418 8.43562 89.1451 8.23478 89.9484 8.63648L92.1575 10.0424C94.9691 11.8501 95.9733 15.4653 94.1658 18.2772C92.3583 21.0891 88.7434 22.0933 85.9318 20.2857L83.7227 18.8797C83.1202 18.478 82.9194 17.6747 83.321 17.0721L87.9401 9.03817ZM89.7476 11.4483C89.5467 11.4483 89.5467 11.2475 89.3459 11.2475C89.1451 11.4484 89.1451 11.6492 88.9443 11.6492L85.9318 16.6704C85.731 16.8713 85.731 17.0721 85.731 17.0721L86.936 17.8755C88.7434 18.8797 90.7517 18.4781 91.7559 16.6704C92.76 14.8628 92.3583 13.0551 90.7517 11.85L89.7476 11.4483Z" fill="white"/>
<path d="M96.9776 22.2943C96.7767 22.2943 96.7768 22.4952 96.5759 22.696L95.7726 23.7003C95.5718 23.9011 95.5718 23.9011 95.3709 24.102L97.3792 25.7087C97.9817 26.3113 98.3834 27.1147 97.7809 27.7172C97.3792 28.3198 96.5759 28.3198 95.9734 27.9181L92.7602 25.1062C92.1577 24.7045 92.1577 23.9011 92.5594 23.2986L98.785 16.068C99.1867 15.6663 99.99 15.4655 100.592 15.8671L103.806 18.679C104.408 19.0807 104.408 19.8841 104.007 20.4867C103.404 21.0892 102.601 20.8884 101.998 20.2858L99.99 18.679C99.7892 18.679 99.7892 18.8799 99.5883 19.0807L98.785 19.8841C98.5842 20.085 98.5842 20.085 98.3834 20.2858L100.592 22.2943C101.195 22.696 101.195 23.4994 100.793 24.102C100.392 24.7045 99.5883 24.7045 98.9859 24.3028L96.9776 22.2943Z" fill="white"/>
<path d="M109.429 28.3196C108.023 26.7128 105.814 26.5119 104.408 27.717C102.801 28.9221 102.801 31.3323 103.806 32.7382C104.408 33.3408 105.011 33.7425 105.814 33.9433C106.216 33.9433 106.416 34.1442 106.617 34.345C107.019 34.9476 107.019 35.751 106.416 36.1527C106.015 36.5544 105.412 36.3535 105.211 36.3535C105.011 36.3535 103.203 35.9518 101.797 34.1442C99.5882 31.5331 99.9898 27.717 102.801 25.5077C105.412 23.2984 109.228 23.7001 111.437 26.3111C112.843 28.1187 112.843 29.9264 112.843 30.1272C112.843 30.5289 112.843 30.9306 112.441 31.3323C111.839 31.734 111.035 31.734 110.634 31.1314C110.433 30.9306 110.232 30.5289 110.433 30.1272C110.232 29.7255 110.031 28.9221 109.429 28.3196Z" fill="white"/>
</svg>
