<svg width="116" height="142" viewBox="0 0 116 142" fill="none" xmlns="http://www.w3.org/2000/svg">
<path d="M57.0146 119.973C29.5835 119.973 7.3584 97.7455 7.3584 70.3118C7.3584 42.8781 29.5835 20.6508 57.0146 20.6508C84.4456 20.6508 106.671 42.8781 106.671 70.3118C106.671 97.7455 84.4456 119.973 57.0146 119.973ZM57.0146 24.8559C31.9863 24.8559 11.3629 45.281 11.3629 70.512C11.3629 95.743 31.786 116.168 57.0146 116.168C82.2431 116.168 102.666 95.743 102.666 70.512C102.666 45.281 82.2431 24.8559 57.0146 24.8559Z" fill="white"/>
<path d="M22.7758 80.3241C22.7758 79.5231 23.3764 78.7221 24.3776 78.7221C25.1785 78.7221 25.9794 79.3229 25.9794 80.3241C25.9794 81.1251 25.3787 81.9261 24.3776 81.9261C23.3764 81.9261 22.7758 81.1251 22.7758 80.3241ZM22.7758 70.3118C22.7758 69.5108 23.3764 68.7098 24.3776 68.7098C25.1785 68.7098 25.9794 69.3106 25.9794 70.3118C25.9794 71.1128 25.3787 71.9137 24.3776 71.9137C23.3764 71.9137 22.7758 71.1128 22.7758 70.3118ZM22.7758 60.2995C22.7758 59.4985 23.3764 58.6975 24.3776 58.6975C25.1785 58.6975 25.9794 59.2983 25.9794 60.2995C25.9794 61.1005 25.3787 61.9014 24.3776 61.9014C23.3764 61.9014 22.7758 61.1005 22.7758 60.2995Z" fill="white"/>
<path d="M88.4501 80.3241C88.4501 79.5231 89.0508 78.7221 90.0519 78.7221C90.8528 78.7221 91.6537 79.3229 91.6537 80.3241C91.6537 81.1251 91.053 81.9261 90.0519 81.9261C89.251 81.9261 88.4501 81.1251 88.4501 80.3241ZM88.4501 70.3118C88.4501 69.5108 89.0508 68.7098 90.0519 68.7098C90.8528 68.7098 91.6537 69.3106 91.6537 70.3118C91.6537 71.1128 91.053 71.9137 90.0519 71.9137C89.251 71.9137 88.4501 71.1128 88.4501 70.3118ZM88.4501 60.2995C88.4501 59.4985 89.0508 58.6975 90.0519 58.6975C90.8528 58.6975 91.6537 59.2983 91.6537 60.2995C91.6537 61.1005 91.053 61.9014 90.0519 61.9014C89.251 61.9014 88.4501 61.1005 88.4501 60.2995Z" fill="white"/>
<path d="M38.994 86.5319C38.994 86.3317 38.7937 75.1179 39.1942 61.1007C39.1942 57.0958 37.9928 53.4913 35.3899 50.2874L38.3933 47.6842C41.5969 51.4889 43.1987 56.0945 42.9985 61.1007C42.7983 75.1179 42.7983 86.3317 42.7983 86.5319H38.994Z" fill="white"/>
<path d="M52.2091 86.5317C52.2091 86.3314 52.0088 75.1177 52.4093 61.1005C52.4093 55.8941 51.6084 52.6901 50.0066 51.4886C49.2057 51.0882 47.4036 50.2872 46.002 51.0882C44.2 52.0894 43.1989 54.8928 43.1989 59.2983H39.1943C39.3946 53.0906 40.9964 49.2859 44.2 47.4837C47.2034 45.8818 50.407 46.883 52.2091 48.0845C55.2125 50.0869 56.6141 54.2921 56.4138 61.1005C56.2136 75.1177 56.2136 86.3314 56.2136 86.5317H52.2091Z" fill="white"/>
<path d="M76.4365 95.1423C73.0326 95.1423 70.4297 94.1411 68.6277 92.3389C65.6243 89.3352 65.8245 84.9297 66.0247 82.5268C66.0247 80.1238 66.0247 78.5219 66.0247 76.3192C66.0247 73.3155 66.0247 69.3105 66.0247 61.3007C66.0247 56.0943 65.2238 52.8903 63.622 51.6889C62.8211 51.0881 61.019 50.4874 59.4172 51.2884C57.415 52.2896 56.4138 55.2933 56.4138 59.6987H52.4093C52.6095 52.0894 55.4127 48.8854 57.6152 47.6839C60.4184 46.082 63.8222 46.883 65.8245 48.2847C68.8279 50.2871 70.2295 54.4923 70.0292 61.3007C69.829 69.3105 69.829 73.3155 70.0292 76.3192C70.0292 78.7221 70.0292 80.3241 70.0292 82.727C70.0292 84.7295 69.829 87.9334 71.6311 89.7356C72.6322 90.7369 74.234 91.3376 76.6367 91.3376V95.1423H76.4365Z" fill="white"/>
<path d="M74.8346 98.1461L83.4443 93.1399L74.8346 88.1338V98.1461Z" fill="white"/>
<path d="M21.9749 128.183C22.976 128.784 22.3753 129.985 23.3765 130.386C23.7769 130.586 24.3776 130.586 24.7781 129.985C25.3787 129.184 24.7781 128.583 24.1774 127.983C22.976 126.781 22.5756 124.979 23.3765 123.577C24.3776 121.575 26.3799 121.174 28.1819 122.176C29.183 122.776 30.1842 123.978 29.7837 125.379C29.7837 125.58 29.7837 125.78 29.5835 125.78C29.1831 126.381 28.3821 126.581 27.7815 126.18C27.381 125.98 27.1808 125.58 27.1808 124.979C27.1808 124.378 26.9806 124.178 26.7803 123.978C26.1797 123.577 25.7792 123.978 25.579 124.378C25.1785 124.979 25.7792 125.78 26.1796 126.18C27.5812 127.983 27.7815 129.184 26.7803 130.986C25.7792 132.789 23.7769 133.389 21.9749 132.388C20.5733 131.587 19.3719 129.985 20.1729 128.383C20.5733 127.983 21.3742 127.782 21.9749 128.183Z" fill="white"/>
<path d="M37.1918 128.784C35.1896 128.183 33.1873 129.184 32.5866 130.986C31.986 132.789 33.1873 134.791 34.7891 135.592C35.59 135.792 36.3909 135.792 37.1918 135.592C37.5923 135.392 37.7925 135.392 38.193 135.592C38.7937 135.792 39.1941 136.593 38.9939 137.194C38.7937 137.795 38.3932 137.995 37.9928 137.995C37.7925 138.195 36.1907 138.796 33.9882 137.995C30.7846 136.793 29.1828 133.389 30.1839 130.185C31.3853 126.981 34.7891 125.379 37.9928 126.381C40.1952 127.182 40.9962 128.583 41.1964 128.984C41.3966 129.184 41.5968 129.785 41.3966 130.185C41.1964 130.786 40.3955 131.187 39.7948 130.986C39.3943 130.786 39.1941 130.586 38.9939 130.386C38.5934 129.585 37.9928 128.984 37.1918 128.784Z" fill="white"/>
<path d="M49.4058 128.984C52.8096 129.384 55.2124 132.588 54.6117 135.792C54.2112 139.196 51.0076 141.599 47.804 140.999C44.4001 140.598 41.9974 137.394 42.5981 134.19C42.9985 130.986 46.0019 128.583 49.4058 128.984ZM48.0042 138.796C50.0065 138.996 51.8085 137.594 52.0087 135.592C52.209 133.59 50.8074 131.787 49.0053 131.587C47.0031 131.387 45.201 132.789 45.0008 134.791C44.8006 136.593 46.2021 138.395 48.0042 138.796Z" fill="white"/>
<path d="M60.2181 136.994H59.4172C59.4172 136.994 59.4172 136.994 59.4172 137.194L59.6174 140.598C59.6174 141.399 59.0167 142 58.416 142C57.6151 142 57.2147 141.399 57.2147 140.799L56.614 131.387C56.614 130.586 57.0145 129.985 57.8154 129.985L60.8188 129.785C62.821 129.585 64.4228 131.187 64.6231 133.189C64.6231 134.591 64.2226 135.592 63.2215 136.393C63.2215 136.593 63.0213 136.593 63.0213 136.593L65.0235 139.597C65.2237 139.797 65.2237 139.998 65.2237 140.198C65.2237 140.799 64.8233 141.399 64.0224 141.6C63.6219 141.6 63.0213 141.399 62.821 140.999L60.2181 136.994ZM59.4172 132.188H59.2169L59.4172 134.591H61.019C61.8199 134.591 62.0201 133.79 62.0201 133.189C62.0201 132.789 61.6197 131.988 60.8188 131.988L59.4172 132.188Z" fill="white"/>
<path d="M66.2251 130.386C66.0249 129.585 66.4253 128.984 67.2262 128.784L69.629 128.183C71.6312 127.782 73.4333 128.984 73.8337 130.986C74.2342 132.989 73.233 134.991 71.2308 135.392L70.4298 135.592C70.2296 135.592 70.2296 135.592 70.2296 135.592L70.8303 138.796C71.0305 139.597 70.4299 140.198 69.8292 140.398C69.2285 140.598 68.4276 139.997 68.4276 139.397L66.2251 130.386ZM69.2285 130.986H69.0283L69.4287 133.189L70.6301 132.989C71.431 132.788 71.431 131.987 71.431 131.587C71.431 131.187 71.0305 130.586 70.2296 130.586L69.2285 130.986Z" fill="white"/>
<path d="M75.8357 126.581C76.4364 126.381 77.2373 126.781 77.4375 127.382L80.4409 136.593C80.6411 137.194 80.2407 137.995 79.64 138.195C79.0393 138.396 78.2384 137.995 78.0382 137.394L75.0348 128.183C74.6343 127.582 75.0348 126.781 75.8357 126.581Z" fill="white"/>
<path d="M83.8447 123.177C86.8481 121.575 90.4522 122.776 92.054 125.78C93.6558 128.784 92.4544 132.588 89.451 133.99C86.4476 135.592 82.8436 134.391 81.2417 131.387C79.6399 128.383 80.8413 124.779 83.8447 123.177ZM88.2497 131.787C90.0517 130.786 90.6524 128.784 89.8515 126.982C88.8504 125.179 86.8481 124.579 85.046 125.38C83.244 126.181 82.6433 128.383 83.4442 130.185C84.4454 131.988 86.6479 132.789 88.2497 131.787Z" fill="white"/>
<path d="M6.55741 37.8719C6.15696 37.6717 5.95673 37.071 5.95673 36.6705C5.95673 36.4702 5.35604 33.0661 5.35604 31.4641C5.35604 30.4629 5.35605 29.8621 4.75537 29.4616C4.1547 29.0611 3.35379 29.0612 2.75311 29.6619C2.35266 30.0624 2.35266 30.8634 2.75311 31.2639C2.95334 31.6644 2.95334 32.2651 2.75311 32.6656C2.35266 33.2663 1.55175 33.2663 0.951072 32.8658C0.750846 32.8658 0.750849 32.6656 0.750849 32.4653C-0.250283 31.0636 -0.250283 29.2614 0.750849 27.8597C1.95221 26.0575 4.35492 25.8572 6.15695 27.0587C7.95899 28.4604 7.75877 30.6631 7.95899 33.6668V34.0673L9.96126 31.4641C10.3617 30.8634 11.1626 30.8634 11.7633 31.2639C12.364 31.6644 12.364 32.4653 11.9635 33.0661L8.96012 37.071C8.55967 38.0722 7.35832 38.2724 6.55741 37.8719Z" fill="white"/>
<path d="M7.55851 23.4543C6.75761 22.6533 7.15805 20.8511 7.95896 19.8498C9.16032 18.6484 10.9624 18.6484 12.1637 19.8498C12.5642 20.2503 12.9646 21.0513 12.9646 21.6521V21.8523C12.9646 21.8523 12.9646 21.8523 13.1648 21.8523C14.3662 21.652 15.7678 22.0526 16.5687 23.0538C18.1705 24.6557 17.9703 27.0587 16.5687 28.6607C15.1671 29.8621 12.7644 30.0624 11.563 28.8609C11.1626 28.2602 10.9624 27.6594 11.563 27.259C12.5642 26.2577 13.7655 28.0599 14.9669 26.8584C15.5676 26.2577 15.3673 25.2565 14.9669 24.6558C14.3662 24.055 13.3651 23.8548 12.7644 24.2553C12.3639 24.6558 11.563 24.6557 11.1626 24.055C10.1614 23.0538 11.563 22.2528 10.7621 21.4518C10.5619 21.2516 9.96123 21.2516 9.761 21.4518C9.36055 21.8523 9.76099 22.6533 9.16032 23.254C8.75986 23.8548 7.95897 23.8548 7.55851 23.4543Z" fill="white"/>
<path d="M20.5733 22.4532C20.9738 22.0527 21.7747 22.2529 21.9749 22.6534C22.3753 23.0539 22.1751 23.6546 21.7747 24.0551C21.174 24.4556 20.5733 24.4556 20.3731 23.8549C19.9726 23.4544 19.9726 22.8537 20.5733 22.4532Z" fill="white"/>
<path d="M22.9761 8.63629C25.9795 7.03432 29.5835 8.03555 31.3856 11.0392C32.9874 14.0429 31.9863 17.6474 28.9829 19.4496C25.9795 21.0515 22.3754 20.0503 20.5734 17.0466C18.9715 14.0429 19.9727 10.4385 22.9761 8.63629ZM27.7815 17.2469C29.5835 16.2457 30.1842 14.0429 29.1831 12.441C28.182 10.6387 25.9795 10.038 24.3776 11.0392C22.5756 12.0405 21.9749 14.2432 22.9761 16.0454C23.777 17.6474 25.9795 18.2481 27.7815 17.2469Z" fill="white"/>
<path d="M38.3934 5.03167C36.3911 5.63241 35.39 7.63486 35.9907 9.43708C36.5914 11.2393 38.5936 12.2405 40.3957 11.84C41.1966 11.6398 41.7972 11.0391 42.3979 10.4383C42.5982 10.2381 42.7984 9.83757 43.1988 9.83757C43.7995 9.63732 44.6004 10.0378 44.8007 10.6386C45.0009 11.2393 44.8007 11.6398 44.6004 11.84C44.4002 12.0403 43.5993 13.442 41.3968 14.243C38.1932 15.2442 34.7893 13.442 33.7882 10.0378C32.7871 6.83389 34.5891 3.42969 37.7927 2.42846C39.9952 1.82772 41.597 2.42847 41.7973 2.62872C41.9975 2.82896 42.5982 3.02921 42.7984 3.62995C42.9986 4.23069 42.5982 5.03168 41.9975 5.23193C41.597 5.43217 41.3968 5.23193 40.9964 5.23193C39.9952 4.83143 39.1943 4.83142 38.3934 5.03167Z" fill="white"/>
<path d="M48.0043 3.2294C47.8041 3.2294 47.6039 3.2294 47.4037 3.2294H46.6028C46.0021 3.2294 45.4014 2.82891 45.2012 2.22817C45.2012 1.42718 45.6016 0.826422 46.2023 0.826422L51.4082 0.225708C52.0089 0.225708 52.8098 0.626182 52.8098 1.42717C52.8098 2.0279 52.4093 2.62864 51.6084 2.82888H50.8075L50.2068 3.02914L51.208 11.2392C51.208 12.0402 50.8075 12.4407 50.0066 12.641C49.4059 12.641 48.605 12.4407 48.605 11.6397L48.0043 3.2294Z" fill="white"/>
<path d="M57.8155 6.43359C58.4161 6.43359 58.8166 6.83408 58.8166 7.43481C58.8166 8.03555 58.4161 8.43604 57.8155 8.43604H54.812C54.2114 8.43604 53.8109 8.03555 53.8109 7.43481C53.8109 6.83408 54.2114 6.43359 54.812 6.43359H57.8155Z" fill="white"/>
<path d="M60.8187 10.2381C60.8187 9.83758 61.2192 9.43708 61.4194 9.03659C61.6196 8.83634 64.2226 6.83387 65.6242 5.83264C66.6253 5.2319 67.0257 5.03168 67.0257 4.23069C67.0257 3.42971 66.6253 2.82897 65.8244 2.62872C65.2237 2.62872 64.623 2.82895 64.4228 3.42969C64.2226 3.83018 63.6219 4.23068 63.2214 4.03044C62.6208 4.03044 62.0201 3.22946 62.2203 2.62872C62.2203 2.42847 62.2203 2.42848 62.4205 2.22823C63.2214 0.826511 64.623 -0.174732 66.4251 0.0255145C68.6276 0.225761 70.0291 2.22822 69.8289 4.43092C69.6287 6.63363 67.4262 7.43463 65.0235 9.23685L64.623 9.43707L67.8267 9.83756C68.4273 9.83756 69.028 10.6386 68.8278 11.2393C68.8278 11.84 68.0269 12.4408 67.4262 12.2405L62.4205 11.6398C61.4194 12.0403 60.6185 11.2393 60.8187 10.2381Z" fill="white"/>
<path d="M74.8346 3.4296C75.0348 2.82886 75.6355 2.42838 76.2362 2.62863L78.2385 3.22937C78.8391 3.42962 79.0394 4.03034 78.8391 4.43083L76.036 13.8424C75.8357 14.4431 75.2351 14.8436 74.4342 14.6434C73.8335 14.4431 73.433 13.8424 73.6333 13.0414L75.8357 5.63232C75.8357 5.43207 76.036 5.03157 75.8357 5.03157L75.4353 4.83132C75.0348 4.63107 74.6344 4.03034 74.8346 3.4296Z" fill="white"/>
<path d="M81.0415 14.8435C81.6422 15.0438 81.8424 15.8448 81.442 16.2453C81.2418 16.846 80.6411 17.0463 80.0404 16.846C79.4397 16.6458 79.2395 16.045 79.4397 15.4443C79.6399 15.0438 80.4408 14.6433 81.0415 14.8435Z" fill="white"/>
<path d="M90.8528 9.43717V16.2456C90.8528 16.4458 90.8528 16.646 90.8528 16.8463C91.053 16.646 91.053 16.4458 91.2532 16.2456L94.0564 11.6399C94.4568 11.0391 95.0575 10.8389 95.8584 11.2394C96.4591 11.6399 96.6594 12.4409 96.2589 13.0416L91.4534 21.0514C91.053 21.8524 90.0519 22.0527 89.2509 21.6522C88.6503 21.2517 88.45 20.651 88.45 20.2505L88.2498 13.4421C88.2498 13.2418 88.2498 13.0416 88.2498 12.8413C88.0496 13.0416 88.0496 13.2418 87.8494 13.4421L85.0462 18.0478C84.6457 18.6485 84.045 18.8487 83.4444 18.4482C82.8437 18.0477 82.6435 17.2468 83.0439 16.646L87.8494 8.63619C88.2498 7.83521 89.2509 7.63496 90.0519 8.03545C90.6525 8.43594 90.8528 9.03667 90.8528 9.43717Z" fill="white"/>
<path d="M104.668 18.4482C107.071 20.6509 107.271 24.6558 105.069 27.0588C102.866 29.4617 98.8617 29.662 96.4589 27.4593C94.0562 25.2566 93.856 21.2517 96.0585 18.8487C98.261 16.2455 102.065 16.0453 104.668 18.4482ZM98.0608 25.6571C99.4623 27.0588 101.865 26.8585 103.066 25.4568C104.468 24.0551 104.268 21.6522 102.866 20.4507C101.465 19.049 99.0619 19.2492 97.8605 20.6509C96.4589 22.0527 96.6592 24.2554 98.0608 25.6571Z" fill="white"/>
<path d="M114.68 32.6656L105.069 35.6693C104.468 35.8695 104.068 35.6693 103.667 35.2688C103.267 34.8683 103.267 34.2676 103.667 33.6668L109.274 25.2565C109.274 25.0563 109.474 25.0563 109.674 24.856C110.275 24.4555 111.076 24.4555 111.476 25.0563C111.877 25.4568 111.676 26.0575 111.476 26.6582L107.872 31.8646C107.672 32.0649 107.672 32.2651 107.472 32.2651L108.072 32.0649C110.075 31.4641 112.077 30.6631 114.079 30.0624C114.68 29.8622 115.28 29.8622 115.681 30.4629C116.081 31.0636 116.081 31.8646 115.481 32.2651C114.88 32.4654 114.68 32.6656 114.68 32.6656Z" fill="white"/>
</svg>
