<svg width="113" height="142" viewBox="0 0 113 142" fill="none" xmlns="http://www.w3.org/2000/svg">
<path d="M55.4745 93.9378C44.2142 93.9378 34.9647 84.6874 34.9647 73.4259C34.9647 62.1645 44.2142 52.9141 55.4745 52.9141C66.7348 52.9141 75.9844 62.1645 75.9844 73.4259C75.9844 84.6874 66.7348 93.9378 55.4745 93.9378ZM55.4745 56.936C46.426 56.936 38.9862 64.3766 38.9862 73.4259C38.9862 82.4753 46.426 89.9159 55.4745 89.9159C64.523 89.9159 71.9629 82.4753 71.9629 73.4259C71.9629 64.3766 64.523 56.936 55.4745 56.936Z" fill="white"/>
<path d="M55.4746 56.936C45.6218 56.936 36.5733 54.1207 32.5518 49.6965L35.5679 47.0823C38.7852 50.702 46.8283 53.1152 55.4746 53.1152C64.1209 53.1152 72.164 50.702 75.3812 47.0823L78.3974 49.6965C74.1748 54.1207 65.5284 56.936 55.4746 56.936Z" fill="white"/>
<path d="M55.4744 119.879C27.9269 119.879 5.6073 97.5575 5.6073 70.0073C5.6073 42.457 27.9269 20.1353 55.4744 20.1353C83.022 20.1353 105.342 42.457 105.342 70.0073C105.141 97.5575 82.821 119.879 55.4744 119.879ZM55.4744 24.3583C30.3398 24.3583 9.62885 44.8702 9.62885 70.2084C9.62885 95.5466 30.1387 116.058 55.4744 116.058C80.6091 116.058 101.32 95.5466 101.32 70.2084C101.32 44.8702 80.6091 24.3583 55.4744 24.3583Z" fill="white"/>
<path d="M63.9198 103.188C63.9198 102.384 64.523 101.579 65.5284 101.579C66.3327 101.579 67.1371 102.183 67.1371 103.188C67.1371 103.993 66.5338 104.797 65.5284 104.797C64.7241 104.596 63.9198 103.993 63.9198 103.188ZM53.866 103.188C53.866 102.384 54.4692 101.579 55.4745 101.579C56.2789 101.579 57.0832 102.183 57.0832 103.188C57.0832 103.993 56.4799 104.797 55.4745 104.797C54.6702 104.596 53.866 103.993 53.866 103.188ZM43.8121 103.188C43.8121 102.384 44.4153 101.579 45.4207 101.579C46.225 101.579 47.0293 102.183 47.0293 103.188C47.0293 103.993 46.4261 104.797 45.4207 104.797C44.6164 104.596 43.8121 103.993 43.8121 103.188Z" fill="white"/>
<path d="M63.9202 37.0274C63.9202 36.223 64.5234 35.4186 65.5288 35.4186C66.3331 35.4186 67.1374 36.0219 67.1374 37.0274C67.1374 37.8317 66.5342 38.6361 65.5288 38.6361C64.7245 38.6361 63.9202 37.8317 63.9202 37.0274ZM53.8663 37.0274C53.8663 36.223 54.4695 35.4186 55.4749 35.4186C56.2792 35.4186 57.0836 36.0219 57.0836 37.0274C57.0836 37.8317 56.4803 38.6361 55.4749 38.6361C54.6706 38.6361 53.8663 37.8317 53.8663 37.0274ZM43.8124 37.0274C43.8124 36.223 44.4156 35.4186 45.421 35.4186C46.2253 35.4186 47.0297 36.0219 47.0297 37.0274C47.0297 37.8317 46.4264 38.6361 45.421 38.6361C44.6167 38.6361 43.8124 37.8317 43.8124 37.0274Z" fill="white"/>
<path d="M55.4744 75.0347C56.3628 75.0347 57.083 74.3144 57.083 73.4259C57.083 72.5374 56.3628 71.8171 55.4744 71.8171C54.586 71.8171 53.8658 72.5374 53.8658 73.4259C53.8658 74.3144 54.586 75.0347 55.4744 75.0347Z" fill="white"/>
<path d="M30.7417 127.32C30.5406 127.32 30.3395 127.119 30.1385 127.119L29.5352 126.918C28.932 126.717 28.7309 125.912 28.932 125.309C29.1331 124.706 29.9374 124.303 30.5406 124.504L35.3665 126.515C35.9697 126.717 36.3719 127.521 35.9697 128.124C35.7687 128.727 34.9643 128.929 34.3611 128.727L33.7579 128.526L33.1546 128.325L29.9374 135.967C29.7363 136.57 28.932 136.771 28.3287 136.57C27.7255 136.369 27.3234 135.766 27.5244 134.961L30.7417 127.32Z" fill="white"/>
<path d="M41.399 140.592C40.5947 140.391 40.3936 139.185 40.1926 138.38V137.978C39.9915 137.978 39.9915 137.978 39.7904 137.777L36.171 136.771C35.5678 137.576 34.9646 138.782 33.9592 138.38C33.356 138.179 32.7528 137.576 32.9538 136.771C32.9538 136.57 33.1549 136.369 33.1549 136.369L39.1872 127.923C39.5893 127.521 39.9915 127.32 40.5947 127.32C41.198 127.521 41.6001 127.923 41.6001 128.527L43.0077 138.782C43.0077 138.984 43.0077 139.185 43.0077 139.386C42.8066 140.391 42.2033 140.793 41.399 140.592ZM37.9808 134.559C37.9808 134.761 37.7797 134.761 37.7797 134.962L39.9915 135.565L39.5893 132.951C39.5893 132.75 39.5893 132.548 39.5893 132.548L37.9808 134.559Z" fill="white"/>
<path d="M46.2249 130.336C46.2249 129.532 46.8281 129.13 47.6325 129.13C48.4368 129.13 48.8389 129.733 48.8389 130.537L48.2357 137.576C48.2357 138.38 49.04 138.984 49.6432 138.984C50.4475 138.984 51.0507 138.581 51.2518 137.777L51.8551 130.739C51.8551 129.934 52.4583 129.532 53.2626 129.532C54.0669 129.532 54.4691 130.135 54.4691 130.94L53.8659 138.38C53.6648 140.391 51.654 141.799 49.6432 141.598C47.6325 141.397 45.6217 139.788 45.8228 137.777L46.2249 130.336Z" fill="white"/>
<path d="M59.898 136.972H59.0937C59.0937 136.972 59.0937 136.972 59.0937 137.174L59.2948 140.592C59.2948 141.397 58.8927 142 58.0884 142C57.284 142 56.8819 141.397 56.6808 140.793L55.8765 131.342C55.8765 130.537 56.2787 129.934 57.083 129.934L60.0991 129.733C62.1099 129.532 63.7185 131.141 63.9196 133.152C64.1206 134.559 63.5174 135.565 62.7131 136.369C62.7131 136.57 62.512 136.57 62.512 136.57L64.5228 139.587C64.7238 139.788 64.7239 139.989 64.7239 140.19C64.7239 140.793 64.3217 141.397 63.5174 141.598C63.1152 141.598 62.512 141.397 62.3109 140.994L59.898 136.972ZM59.0937 132.146H58.8926L59.0937 134.559L60.7023 134.358C61.5066 134.358 61.7077 133.554 61.7077 132.95C61.7077 132.548 61.3055 131.744 60.5012 131.945L59.0937 132.146Z" fill="white"/>
<path d="M65.7291 130.135C65.5281 129.532 65.9302 128.728 66.7345 128.526C67.3377 128.325 68.142 128.728 68.3431 129.532L69.9518 136.369C70.1528 137.174 71.1582 137.375 71.7615 137.375C72.5658 137.174 72.9679 136.57 72.9679 135.766L71.3593 128.728C71.1582 128.124 71.5604 127.32 72.3647 127.119C72.9679 126.918 73.7722 127.32 73.9733 128.124L75.783 135.364C76.1852 137.375 74.7776 139.185 72.7668 139.788C70.7561 140.19 68.5442 139.386 67.941 137.375L65.7291 130.135Z" fill="white"/>
<path d="M79.0005 133.956C80.0058 133.554 80.609 134.761 81.6144 134.358C82.2177 134.157 82.4188 133.554 82.0166 132.951C81.6145 131.945 81.0112 132.146 80.0058 132.146C78.1962 132.347 76.5875 131.543 75.9843 129.934C75.18 127.923 75.7832 126.113 77.9951 125.108C79.0005 124.706 80.609 124.706 81.6144 125.912C81.8155 126.113 81.8155 126.113 81.8155 126.314C82.0166 126.918 81.8155 127.722 81.2123 127.923C80.8102 128.124 80.2069 128.124 80.0058 127.722C79.6037 127.32 79.2015 127.521 79.0005 127.521C78.3972 127.722 78.3972 128.325 78.5983 128.728C78.7994 129.331 79.8047 129.331 80.408 129.331H80.609C82.8209 129.331 84.0274 129.934 84.8317 131.744C85.636 133.554 84.8317 135.565 83.022 136.369C81.4134 136.973 79.4026 136.973 78.7994 135.364C77.9951 134.761 78.3972 134.157 79.0005 133.956Z" fill="white"/>
<path d="M6.21045 35.8209C5.80829 35.4187 5.60724 35.0165 5.60724 34.6143C5.60724 34.4132 5.20506 30.9945 5.20506 29.3858C5.20506 28.3803 5.20508 27.777 4.60185 27.3748C3.99862 26.9726 3.19431 26.9726 2.59107 27.5759C2.18892 27.9781 2.18892 28.7825 2.59107 29.1847C2.79215 29.5869 2.79215 30.1901 2.59107 30.5923C2.18892 30.9945 1.38459 31.1956 0.781356 30.7934C0.580279 30.5923 0.580297 30.5923 0.580297 30.3912C-0.224013 28.9836 -0.224032 27.1737 0.781356 25.766C2.1889 24.1572 4.60182 23.7551 6.21045 25.1627C8.02014 26.5704 7.61799 28.7825 7.81907 31.7989V32.2011L9.82985 29.5869C10.232 28.9836 11.0363 28.9836 11.6396 29.3858C12.2428 29.788 12.2428 30.5923 11.8406 31.1956L8.6234 35.2176C8.02017 36.2231 6.81368 36.4241 6.21045 35.8209Z" fill="white"/>
<path d="M17.0688 21.1408C18.4763 22.7496 18.4763 25.3638 16.6666 26.9726C15.058 28.5814 12.2429 28.1792 10.8354 26.5704L8.02028 23.554C6.61274 21.9452 6.61273 19.3309 8.42243 17.7221C10.031 16.1134 12.8461 16.5156 14.2537 18.1243L17.0688 21.1408ZM12.8461 24.9616C13.4494 25.5649 14.4548 25.766 15.058 25.1627C15.6612 24.5594 15.6612 23.5539 15.2591 22.9507L12.444 19.7331C11.8407 19.1298 10.8353 18.9287 10.2321 19.532C9.62888 20.1353 9.6289 21.1408 10.0311 21.7441L12.8461 24.9616Z" fill="white"/>
<path d="M20.6879 20.9397C21.0901 20.5375 21.8944 20.7386 22.0955 21.3419C22.4976 21.7441 22.2965 22.3474 21.8944 22.7496C21.2911 23.1518 20.6879 22.9507 20.4868 22.5485C20.0847 22.1463 20.0847 21.3419 20.6879 20.9397Z" fill="white"/>
<path d="M31.7474 17.1188C30.9431 17.521 30.1388 16.7166 29.3345 16.1133L29.1334 15.9122C28.9323 15.9122 28.9324 16.1133 28.7313 16.1133L25.514 17.9232C25.514 19.1298 25.9162 20.1353 24.9108 20.7386C24.3076 21.1408 23.5033 20.9397 23.1011 20.3364C23.1011 20.1353 22.9 19.9342 22.9 19.7331L21.8946 9.47715C21.8946 8.87386 22.0957 8.47166 22.699 8.06947C23.3022 7.86837 23.7043 7.86837 24.1065 8.27057L31.9485 14.9068C32.1496 15.1079 32.1496 15.1079 32.3506 15.309C32.7528 15.9122 32.3507 16.7166 31.7474 17.1188ZM25.1119 14.9068C25.1119 15.1079 25.1119 15.1079 25.1119 15.309L27.1226 14.3035L25.1119 12.4936C24.9108 12.4936 24.9108 12.2925 24.7097 12.2925L25.1119 14.9068Z" fill="white"/>
<path d="M30.9431 5.65625C30.7421 4.85187 30.9431 4.24858 31.7474 4.04748L34.1603 3.24309C36.1711 2.6398 37.9808 3.64529 38.584 5.65625C39.1873 7.66722 38.3829 9.67819 36.3722 10.2815L35.5679 10.4826C35.3668 10.4826 35.3668 10.4826 35.3668 10.6837L36.3722 13.9012C36.5732 14.5045 36.1711 15.3089 35.5679 15.51C34.9646 15.7111 34.1604 15.3089 33.9593 14.7056L30.9431 5.65625ZM33.7582 6.05845L34.3614 8.27051L35.5679 7.86832C36.3722 7.66722 36.3722 6.86283 36.1711 6.46064C35.97 6.05845 35.5679 5.45516 34.7636 5.65625L33.7582 6.05845Z" fill="white"/>
<path d="M45.0183 8.27055C44.8173 8.27055 44.8173 8.27055 45.0183 8.27055H44.214C44.214 8.27055 44.214 8.27055 44.214 8.47165L44.8172 11.8903C45.0183 12.6947 44.4151 13.298 43.8119 13.298C43.2086 13.4991 42.4043 12.8958 42.4043 12.0914L40.5946 2.84094C40.3935 2.03655 40.9968 1.43326 41.6 1.43326L44.6162 1.03107C46.6269 0.628873 48.4366 2.03655 48.6377 4.04752C48.8388 5.4552 48.4366 6.46068 47.6323 7.46617C47.6323 7.66726 47.4312 7.66726 47.4312 7.86836L49.8442 10.6837C50.0452 10.8848 50.0453 11.0859 50.0453 11.287C50.0453 11.8903 49.6431 12.4936 49.0399 12.6947C48.6377 12.6947 48.0345 12.4936 47.8334 12.0914L45.0183 8.27055ZM43.6108 3.64533H43.4097L43.8119 6.05849L45.4205 5.85739C46.2248 5.65629 46.4258 4.85191 46.2247 4.44971C46.2247 4.04752 45.8226 3.24313 45.0183 3.44423L43.6108 3.64533Z" fill="white"/>
<path d="M55.6755 6.46069C56.2787 6.46069 56.6809 6.86289 56.6809 7.46618C56.6809 8.06947 56.2787 8.47166 55.6755 8.47166H52.6593C52.0561 8.47166 51.6539 8.06947 51.6539 7.46618C51.6539 6.86289 52.0561 6.46069 52.6593 6.46069H55.6755Z" fill="white"/>
<path d="M58.6917 10.2816C58.6917 9.87937 59.0938 9.47717 59.2949 9.07498C59.4959 8.87388 62.11 6.86291 63.5175 5.85743C64.3218 5.25414 64.9251 5.05304 64.9251 4.24866C64.9251 3.44427 64.5229 2.84098 63.7186 2.63988C63.1153 2.63988 62.5121 2.84098 62.311 3.44427C62.1099 3.84646 61.5068 4.24866 61.1046 4.04756C60.5014 4.04756 59.8981 3.24317 60.0992 2.63988C60.0992 2.43878 60.0992 2.43878 60.3002 2.23769C60.9035 0.83001 62.5121 -0.175474 64.3218 0.0256232C66.5336 0.22672 67.9412 2.23769 67.7401 4.44975C67.539 6.66182 65.3272 7.4662 62.9143 9.47717L62.5121 9.67827L65.7294 10.0805C66.3326 10.0805 66.9358 10.8848 66.9358 11.4881C66.9358 12.0914 66.1315 12.6947 65.5283 12.4936L60.5013 11.8903C59.2949 12.0914 58.4906 11.287 58.6917 10.2816Z" fill="white"/>
<path d="M76.9895 11.8903C76.3863 13.9013 74.1745 15.309 71.9626 14.7057C69.7507 14.1024 68.5443 11.6892 69.1475 9.67828L70.3539 5.65634C70.9572 3.64537 73.169 2.23769 75.3809 2.84098C77.5927 3.44427 78.7992 5.85744 78.196 7.8684L76.9895 11.8903ZM71.3593 10.0805C71.1583 10.8849 71.5604 11.8903 72.3647 12.0914C73.169 12.2925 74.1744 11.8903 74.3755 11.086L75.582 7.26511C75.783 6.46073 75.3809 5.45524 74.5766 5.25415C73.7723 5.05305 72.7669 5.45524 72.5658 6.25963L71.3593 10.0805Z" fill="white"/>
<path d="M79.0003 14.7056C79.6036 14.9067 79.8046 15.51 79.6035 16.1133C79.4025 16.7166 78.7993 16.9177 78.1961 16.7166C77.5928 16.5155 77.3917 15.9122 77.5928 15.3089C77.7939 14.9067 78.3971 14.5045 79.0003 14.7056Z" fill="white"/>
<path d="M88.049 16.5154C88.049 16.7165 88.0489 16.9176 87.8479 17.1187C88.0489 16.9176 88.25 16.9176 88.4511 16.7165L93.478 12.6946C94.0812 12.0913 95.0866 11.8902 95.6899 12.4935C96.8963 13.0968 96.8964 14.3034 96.2931 15.3089L91.6683 22.9505C91.2662 23.5538 90.4619 23.7549 89.8586 23.3527C89.2554 22.9505 89.0543 22.3473 89.4565 21.744L92.2716 17.1187C92.4727 16.9176 92.4726 16.7165 92.6737 16.5154C92.4726 16.7165 92.2716 16.9176 92.0705 16.9176C91.2662 17.722 87.4457 20.7385 87.4457 20.7385C87.0435 21.1407 86.4403 21.1407 85.8371 20.9396C85.2339 20.5374 85.0328 19.9341 85.2339 19.3308C85.435 18.5264 86.4403 14.3034 86.6414 13.2979C86.6414 13.0968 86.8425 12.8957 86.8425 12.6946L83.6252 17.9231C83.2231 18.5264 82.4188 18.7275 81.8156 18.3253C81.2123 17.9231 81.0112 17.1187 81.4134 16.5154L86.0382 8.87377C86.4403 8.06938 87.6468 7.46609 88.6522 8.27047C89.2554 8.67267 89.6575 9.67815 89.4565 10.4825L88.049 16.5154Z" fill="white"/>
<path d="M98.5047 30.7934C97.9015 30.1901 98.3036 29.1846 98.7058 28.1791L98.9069 27.7769C98.9069 27.5758 98.7058 27.5758 98.5047 27.3747L95.8907 24.7605C95.8907 24.7605 95.8907 24.7605 95.6896 24.7605C94.6842 25.1626 93.6789 25.7659 92.8745 25.1626C92.2713 24.7605 92.2713 23.9561 92.8745 23.3528C93.0756 23.1517 93.0756 23.1517 93.2767 23.1517L102.727 18.7276C103.331 18.5265 103.733 18.5265 104.135 18.9286C104.537 19.3308 104.738 19.733 104.537 20.3363L100.717 29.989C100.717 30.1901 100.515 30.1901 100.515 30.3912C99.7112 31.3966 98.9069 31.3966 98.5047 30.7934ZM98.3037 23.755C98.1026 23.755 98.1026 23.9561 97.9015 23.9561L99.5101 25.5648L100.515 23.1517C100.515 22.9506 100.717 22.9506 100.717 22.7495L98.3037 23.755Z" fill="white"/>
<path d="M108.76 24.3584C109.162 24.9617 109.162 25.3639 108.76 26.1683L106.95 29.3858L110.771 28.1792C111.173 27.9781 111.776 28.1792 112.178 28.5814C112.58 29.1847 112.379 29.9891 111.977 30.3913C111.977 30.3913 111.776 30.5924 111.575 30.5924L105.342 32.2012L102.929 34.2121C102.325 34.6143 101.521 34.6143 101.119 34.0111C100.717 33.4078 100.717 32.6034 101.32 32.2012L103.733 30.1902L106.749 24.3584C106.749 24.1573 106.95 23.9562 107.151 23.9562C107.553 23.7551 108.358 23.7551 108.76 24.3584Z" fill="white"/>
</svg>
