<svg width="111" height="143" viewBox="0 0 111 143" fill="none" xmlns="http://www.w3.org/2000/svg">
<path d="M54.8949 120.417C27.224 120.417 4.80447 97.9954 4.80447 70.3218C4.80447 42.6481 27.224 20.2264 54.8949 20.2264C82.5658 20.2264 104.985 42.6481 104.985 70.3218C104.783 97.9954 82.3639 120.417 54.8949 120.417ZM54.8949 24.4684C29.6477 24.4684 8.84403 45.0721 8.84403 70.5238C8.84403 95.7734 29.4457 116.579 54.8949 116.579C80.1421 116.579 100.946 95.9754 100.946 70.5238C100.744 45.0721 80.1421 24.4684 54.8949 24.4684Z" fill="white"/>
<path d="M86.6053 80.6235C86.6053 79.8155 87.2113 79.0075 88.2211 79.0075C89.0291 79.0075 89.837 79.6135 89.837 80.6235C89.837 81.4315 89.231 82.2395 88.2211 82.2395C87.2113 82.0375 86.6053 81.4315 86.6053 80.6235ZM86.6053 70.5236C86.6053 69.7156 87.2113 68.9076 88.2211 68.9076C89.0291 68.9076 89.837 69.5136 89.837 70.5236C89.837 71.3316 89.231 72.1396 88.2211 72.1396C87.2113 71.9376 86.6053 71.3316 86.6053 70.5236ZM86.6053 60.4237C86.6053 59.6157 87.2113 58.8077 88.2211 58.8077C89.0291 58.8077 89.837 59.4137 89.837 60.4237C89.837 61.2317 89.231 62.0397 88.2211 62.0397C87.2113 61.8377 86.6053 61.2317 86.6053 60.4237Z" fill="white"/>
<path d="M20.1548 80.6235C20.1548 79.8155 20.7607 79.0075 21.7706 79.0075C22.5786 79.0075 23.3865 79.6135 23.3865 80.6235C23.3865 81.4315 22.7805 82.2395 21.7706 82.2395C20.7607 82.0375 20.1548 81.4315 20.1548 80.6235ZM20.1548 70.5236C20.1548 69.7156 20.7607 68.9076 21.7706 68.9076C22.5786 68.9076 23.3865 69.5136 23.3865 70.5236C23.3865 71.3316 22.7805 72.1396 21.7706 72.1396C20.7607 71.9376 20.1548 71.3316 20.1548 70.5236ZM20.1548 60.4237C20.1548 59.6157 20.7607 58.8077 21.7706 58.8077C22.5786 58.8077 23.3865 59.4137 23.3865 60.4237C23.3865 61.2317 22.7805 62.0397 21.7706 62.0397C20.7607 61.8377 20.1548 61.2317 20.1548 60.4237Z" fill="white"/>
<path d="M36.3132 89.3094C36.3132 89.1074 36.1112 77.7956 36.5151 63.6558C36.5151 59.6158 35.1013 55.9799 32.2737 52.9499L35.3033 50.1219C38.9389 53.9599 40.7566 58.6058 40.5547 63.6558C40.3527 77.7956 40.3527 89.1074 40.3527 89.3094H36.3132Z" fill="white"/>
<path d="M51.0576 89.3093C51.0576 89.1074 50.8556 77.7955 51.2596 63.6557C51.4615 58.4038 50.4517 55.1718 48.4319 53.9598C47.422 53.3538 45.2002 52.5458 43.3824 53.5558C41.5646 54.5658 40.5547 57.3938 40.3528 61.8377H36.3132C36.5152 55.9798 38.131 51.9399 41.3627 50.1219C44.3923 48.5059 48.2299 49.1119 50.4517 50.5259C54.8952 53.1518 55.2991 59.4138 55.2991 63.8577C55.0971 77.9975 55.0971 89.3093 55.0971 89.5113L51.0576 89.3093Z" fill="white"/>
<path d="M66.61 93.3492C66.61 93.1472 66.4079 77.7954 66.8119 63.6556C67.0139 58.4037 66.004 55.1717 63.9842 53.9598C62.9743 53.3538 60.5506 52.7478 58.5309 53.7577C56.5111 54.9697 55.2992 57.7977 55.2992 62.2416H51.2596C51.4616 54.7677 54.2893 51.7378 56.5111 50.3238C59.7427 48.5058 63.5803 49.3138 66.004 50.5258C70.4475 53.1518 70.8515 59.4137 70.8515 63.8576C70.6495 77.9974 70.6495 93.3492 70.6495 93.5512L66.61 93.3492Z" fill="white"/>
<path d="M62.1664 96.1774L59.1367 93.5514C61.3585 90.9254 63.3782 88.9055 64.9941 86.8855C72.8712 77.9976 75.4969 75.1697 75.6989 67.4938C75.6989 64.2618 74.689 62.4438 73.6791 61.8378C73.2752 61.6358 72.6692 61.6358 72.2653 61.8378C71.4574 62.2418 70.6495 63.6558 70.6495 66.0798H66.6099C66.6099 62.4438 68.0237 59.6159 70.2455 58.4039C71.8613 57.3939 73.8811 57.5959 75.6989 58.6059C78.3246 60.2219 79.7385 63.4538 79.5365 67.8977C79.3345 76.9876 75.6989 81.0276 67.8217 89.9155C66.2059 91.5314 64.3881 93.5514 62.1664 96.1774Z" fill="white"/>
<path d="M38.939 130.113L32.4757 138.193C32.0717 138.597 31.4658 138.799 31.0619 138.597C30.456 138.395 30.052 137.991 30.052 137.385V127.083C30.052 126.881 30.052 126.679 30.052 126.679C30.254 126.073 31.0619 125.669 31.6678 125.871C32.2737 126.073 32.4757 126.679 32.4757 127.285L32.2738 133.749C32.2738 133.951 32.2738 134.153 32.2738 134.355L32.6777 133.951C33.8896 132.335 35.3034 130.517 36.5153 128.901C36.9192 128.295 37.5252 128.093 37.9291 128.295C38.5351 128.497 38.939 129.305 38.737 129.911C39.141 129.911 39.141 130.113 38.939 130.113Z" fill="white"/>
<path d="M42.5747 129.103C43.3826 129.305 43.7865 129.911 43.5846 130.517L41.5648 140.011C41.3628 140.617 40.7569 141.021 40.151 141.021C39.5451 140.819 38.9391 140.213 39.1411 139.607L41.1609 130.113C41.1609 129.305 41.7668 128.901 42.5747 129.103Z" fill="white"/>
<path d="M48.2302 137.587C48.2302 137.385 48.2302 137.385 48.2302 137.587L47.6242 137.385L47.4223 140.819C47.4223 141.627 46.6143 142.031 46.0084 142.031C45.2005 142.031 44.7965 141.223 44.9985 140.617L45.8064 131.123C45.8064 130.315 46.4124 129.911 47.2203 129.911L50.2499 130.113C52.2697 130.315 53.6836 132.133 53.4816 134.153C53.2796 135.567 52.6736 136.577 51.6638 137.183C51.4618 137.183 51.4618 137.385 51.2598 137.385L52.8756 140.819C52.8756 141.021 52.8756 141.223 52.8756 141.425C52.8756 142.031 52.2697 142.637 51.4618 142.637C51.0579 142.637 50.6539 142.233 50.4519 141.829L48.2302 137.587ZM48.2302 132.537H48.0282L47.8262 134.961L49.442 135.163C50.25 135.163 50.6539 134.355 50.6539 133.951C50.6539 133.547 50.4519 132.739 49.644 132.739L48.2302 132.537Z" fill="white"/>
<path d="M66.8121 139.203C66.8121 139.607 66.8121 140.011 66.6102 140.213C66.2062 140.819 64.5904 142.031 62.1666 142.233C58.733 142.637 55.7033 140.011 55.5013 136.577C55.0974 133.143 57.7231 130.113 61.1567 129.911C63.5805 129.709 64.7923 130.719 65.1963 130.921C65.3983 131.123 65.8022 131.325 66.0042 131.931C66.0042 132.537 65.6002 133.143 64.9943 133.345C64.5903 133.345 64.3884 133.345 63.9844 133.143C63.3785 132.739 62.3686 132.335 61.5607 132.537C59.5409 132.739 58.1271 134.557 58.329 136.577C58.531 138.597 60.1468 140.011 62.3686 139.809C63.9844 139.607 64.5904 139.203 64.3884 139.001V138.193C64.3884 138.193 64.3884 137.991 64.1864 137.991L62.1666 138.193C61.5607 138.193 60.9547 137.789 60.7527 136.981C60.7527 136.173 61.1567 135.567 61.9646 135.567L65.3983 135.163C66.2062 135.163 66.6102 135.567 66.6102 136.173L66.8121 139.203Z" fill="white"/>
<path d="M73.0734 127.487C76.305 126.477 79.7387 128.295 80.7486 131.527C81.7584 134.759 79.9406 138.193 76.709 139.203C73.4774 140.213 70.0437 138.395 69.0338 135.163C68.024 131.931 69.6398 128.497 73.0734 127.487ZM75.9011 136.779C77.7188 136.173 78.9307 134.153 78.3248 132.133C77.7189 130.315 75.6991 129.103 73.6794 129.709C71.8616 130.315 70.6497 132.335 71.2556 134.355C72.0635 136.375 74.0833 137.385 75.9011 136.779Z" fill="white"/>
<path d="M6.42039 34.3659C6.01644 33.9619 5.81449 33.5579 5.81449 33.1539C5.81449 32.9519 5.61248 29.518 5.41051 27.902C5.41051 26.892 5.41051 26.286 5.00656 25.8821C4.40063 25.4781 3.59272 25.4781 2.98679 26.084C2.58283 26.488 2.58285 27.296 2.78483 27.7C2.9868 28.104 2.98679 28.71 2.58284 29.114C2.17888 29.518 1.37099 29.72 0.765055 29.316C0.563078 29.114 0.563065 29.114 0.563065 28.912C-0.244844 27.498 -0.24485 25.68 0.967014 24.2661C2.38085 22.6501 4.80458 22.4481 6.42039 23.8621C8.23819 25.2761 7.63228 27.498 7.83426 30.528V30.932L10.056 28.508C10.4599 27.902 11.2679 27.902 11.8738 28.306C12.4797 28.71 12.4797 29.518 12.0758 30.124L8.64216 33.9619C8.2382 34.9719 7.02633 34.9719 6.42039 34.3659Z" fill="white"/>
<path d="M8.23825 20.0244C7.43034 19.0144 8.03626 17.1964 9.04614 16.5904C10.258 15.5804 12.2778 15.5804 13.2877 16.9944C13.6916 17.6004 14.0956 18.2064 14.0956 18.8124V19.0144C14.0956 19.0144 14.0956 19.0144 14.2976 19.0144C15.5094 19.0144 16.9233 19.4184 17.7312 20.4283C19.145 22.0443 18.9431 24.6703 17.3272 26.0843C15.9134 27.2963 13.4897 27.2963 12.2778 25.8823C11.8738 25.2763 11.8738 24.6703 12.2778 24.2663C13.4897 23.2563 14.4995 25.2763 15.7114 24.2663C16.3173 23.6603 16.3173 22.8523 15.7114 22.0443C15.1055 21.4383 14.2976 21.2363 13.4896 21.6403C12.8837 22.0443 12.2778 21.8423 11.8739 21.4383C11.0659 20.4283 12.4798 19.6204 11.6719 18.8124C11.4699 18.6104 11.0659 18.4084 10.662 18.8124C10.258 19.2164 10.662 20.0244 10.056 20.6304C9.4501 20.6304 8.6422 20.4284 8.23825 20.0244Z" fill="white"/>
<path d="M21.367 20.0244C21.7709 19.6204 22.5788 19.8224 22.7808 20.4284C23.1848 20.8324 22.9828 21.4384 22.5788 21.8424C21.9729 22.2464 21.367 22.0444 21.165 21.6404C20.761 21.0344 20.761 20.2264 21.367 20.0244Z" fill="white"/>
<path d="M32.6776 16.1863C31.8697 16.5903 31.0618 15.7823 30.2539 15.1763L30.0519 14.9743C29.8499 14.9743 29.8499 15.1763 29.6479 15.1763L26.2143 16.7923C26.2143 18.0043 26.4163 19.0142 25.6084 19.6202C25.0024 20.0242 24.1945 19.8222 23.7906 19.0142C23.7906 18.8122 23.5886 18.6102 23.5886 18.4082L22.7807 8.10638C22.7807 7.50039 22.9826 7.0964 23.5886 6.8944C24.1945 6.69241 24.5985 6.6924 25.0024 7.0964L32.6776 14.1663C32.8796 14.3683 32.8796 14.3683 33.0816 14.5703C33.4855 15.1763 33.2835 15.9843 32.6776 16.1863ZM26.0123 13.7623C26.0123 13.9643 26.0123 13.9643 26.0123 14.1663L28.0321 13.1563L26.0123 11.3383C26.0123 11.3383 25.8103 11.1363 25.6084 11.1363L26.0123 13.7623Z" fill="white"/>
<path d="M31.2638 5.07637C31.0619 4.47038 31.4658 3.6624 32.0717 3.4604C32.6777 3.2584 33.4856 3.66238 33.6875 4.26838L35.7073 11.1363C35.9093 11.9443 36.9192 12.1463 37.5251 11.9443C38.333 11.7423 38.737 10.9343 38.535 10.3283L36.5152 3.4604C36.3132 2.85441 36.7172 2.04641 37.3232 1.84442C37.9291 1.64242 38.737 2.04642 38.939 2.65241L40.9587 9.72231C41.5647 11.7423 40.1508 13.7622 38.1311 14.3682C36.1113 14.9742 33.8896 14.1662 33.2836 12.1463L31.2638 5.07637Z" fill="white"/>
<path d="M54.0871 9.31843C54.0871 9.72243 54.0871 10.1264 53.8851 10.3284C53.4811 10.9344 51.8653 12.1464 49.4416 12.3484C46.008 12.7524 42.9783 10.1264 42.7763 6.89447C42.3724 3.46052 44.7961 0.430555 48.2297 0.0265607C50.6535 -0.175437 51.8653 0.83455 52.2693 1.03655C52.4713 1.23854 52.8752 1.44054 53.0772 2.04653C53.0772 2.65253 52.6732 3.46052 52.0673 3.46052C51.6633 3.46052 51.4614 3.46051 51.0574 3.25851C50.4515 2.85452 49.4416 2.65253 48.6337 2.65253C46.6139 2.85453 45.2001 4.6725 45.4021 6.69248C45.604 8.71245 47.4218 10.1264 49.4416 9.92443C51.0574 9.72243 51.6634 9.31843 51.4614 9.11644V8.30845C51.4614 8.30845 51.4614 8.10645 51.2594 8.10645L49.2396 8.30845C48.6337 8.30845 48.0277 7.90445 47.8258 7.09647C47.8258 6.28848 48.2297 5.68249 48.8357 5.68249L52.2693 5.27849C53.0772 5.27849 53.4812 5.68248 53.4812 6.28847L54.0871 9.31843Z" fill="white"/>
<path d="M60.3488 6.49048C60.9548 6.49048 61.3587 6.89447 61.3587 7.70246C61.3587 8.30846 60.9547 8.71245 60.1468 8.71245L57.1172 8.51046C56.5113 8.51046 56.1073 8.10646 56.1073 7.50047C56.1073 6.89447 56.5113 6.49048 57.3192 6.49048H60.3488Z" fill="white"/>
<path d="M62.9746 10.7323C62.9746 10.3283 63.3786 9.9243 63.7825 9.5203C63.9845 9.31831 66.8122 7.50033 68.2261 6.69234C69.2359 6.08634 69.6399 5.88434 69.8419 5.27834C70.0438 4.47035 69.4379 3.86437 68.832 3.66237C68.226 3.46038 67.6201 3.86436 67.4182 4.26836C67.2162 4.67235 66.6102 4.87436 66.0043 4.87436C65.3984 4.67236 64.7924 4.06637 64.9944 3.46038C64.9944 3.25838 64.9944 3.25837 65.1964 3.05638C66.0043 1.64239 67.6201 0.8344 69.4379 1.23839C71.6597 1.64239 72.8715 3.66237 72.4676 5.88434C72.0636 8.10632 69.8419 8.7123 67.2162 10.3283L66.8122 10.5303L70.0438 11.1363C70.6498 11.3383 71.2557 11.9443 71.0537 12.5503C70.8517 13.1563 70.2459 13.5603 69.6399 13.5603L64.5905 12.5503C63.3786 12.5503 62.7727 11.5403 62.9746 10.7323Z" fill="white"/>
<path d="M72.6696 12.7525C72.8716 12.3485 73.2755 11.9445 73.6795 11.7425C73.8814 11.5405 77.1131 10.3285 78.5269 9.72255C79.5368 9.31856 80.1427 9.11656 80.3447 8.51057C80.5467 7.70258 80.3447 6.89459 79.5368 6.69259C78.9309 6.4906 78.3249 6.69259 77.9209 7.09658C77.517 7.50058 77.1131 7.70258 76.5071 7.50059C75.9012 7.29859 75.4973 6.49059 75.6992 5.8846C75.6992 5.6826 75.9012 5.68261 75.9012 5.48061C76.9111 4.26863 78.7289 3.66262 80.3447 4.26862C82.3645 5.0766 83.3744 7.29858 82.5665 9.31855C81.7586 11.5405 79.5368 11.7425 76.7091 12.9545L76.3051 13.1565L79.3348 14.3685C79.9407 14.5705 80.3447 15.3785 80.1427 15.9845C79.9407 16.5905 79.1328 16.9945 78.5269 16.5905L73.6795 14.7725C72.8716 14.5705 72.4676 13.5605 72.6696 12.7525Z" fill="white"/>
<path d="M82.9701 16.7923C83.374 16.9943 83.576 17.8022 83.3741 18.2062C83.1721 18.6102 82.5661 18.8122 81.9602 18.6102C81.3542 18.4082 81.1523 17.6002 81.5562 17.1962C81.7582 16.7923 82.3641 16.5903 82.9701 16.7923Z" fill="white"/>
<path d="M87.4137 17.1962C88.4236 17.8022 87.6157 19.0142 88.6256 19.6202C89.0295 20.0242 89.6354 19.8222 90.0394 19.2162C90.6453 18.4082 90.2414 17.8022 89.6355 17.1962C88.6256 15.7823 88.2216 14.1663 89.2315 12.5503C90.4433 10.7323 92.4631 10.3283 94.281 11.5403C95.2909 12.1463 96.0988 13.5603 95.6948 14.9743C95.6948 15.1763 95.6948 15.3783 95.4928 15.3783C95.0889 15.9842 94.281 16.1863 93.675 15.7823C93.2711 15.5803 93.0691 15.1763 93.0691 14.5703C93.0691 13.9643 92.8671 13.7623 92.6651 13.5603C92.0592 13.1563 91.6552 13.3583 91.4533 13.9643C91.0493 14.5703 91.6553 15.3783 91.8572 15.7823C93.0691 17.6002 93.2711 18.8122 92.2612 20.6302C91.2513 22.2462 89.0295 22.8522 87.4137 21.6402C85.9998 20.6302 84.9899 19.0142 85.7979 17.3982C85.9998 16.9942 86.8077 16.9942 87.4137 17.1962Z" fill="white"/>
<path d="M96.503 22.6503C96.301 22.6503 96.301 22.8523 96.099 23.0543L95.2911 23.8623C95.0891 24.0643 95.0892 24.0643 94.8872 24.2663L96.907 26.0843C97.5129 26.6903 97.9168 27.4983 97.3109 28.1042C96.9069 28.7102 96.099 28.7102 95.4931 28.1042L92.2614 25.2763C91.6555 24.8723 91.6555 24.0643 92.0595 23.4583L98.3208 16.3884C98.7247 15.9844 99.5326 15.7824 100.139 16.1864L103.37 19.0144C103.976 19.4184 103.976 20.2264 103.37 20.8323C102.764 21.4383 101.956 21.2363 101.35 20.6304L99.5326 19.0144C99.3307 19.0144 99.3306 19.2164 99.1287 19.4184L98.3208 20.2263C98.1188 20.4283 98.1188 20.4284 97.9168 20.6304L100.139 22.6503C100.543 23.0543 100.744 23.8623 100.139 24.4683C99.7346 25.0743 98.9267 25.0743 98.3208 24.6703L96.503 22.6503Z" fill="white"/>
<path d="M105.794 23.2563C106.4 22.8523 107.208 22.8523 107.612 23.4583L109.227 25.2763C110.641 26.8922 110.237 29.1142 108.621 30.3262C107.006 31.7402 104.784 31.5382 103.37 29.9222L102.764 29.3162L102.562 29.1142L99.9364 31.3362C99.3305 31.7402 98.5225 31.7402 98.1186 31.1342C97.7146 30.5282 97.9166 29.7202 98.3206 29.3162L105.794 23.2563ZM106.602 26.0843C106.4 26.0843 106.602 26.0843 106.602 26.0843L104.582 27.4982L105.39 28.5082C105.996 29.1142 106.602 28.7102 107.006 28.5082C107.41 28.3062 107.814 27.4982 107.208 26.8923L106.602 26.0843Z" fill="white"/>
</svg>
